<?xml version="1.0" standalone="no"?>
<!DOCTYPE svg PUBLIC "-//W3C//DTD SVG 1.1//EN" "http://www.w3.org/Graphics/SVG/1.1/DTD/svg11.dtd" >
<svg xmlns="http://www.w3.org/2000/svg">
<metadata></metadata>
<defs>
<font id="newsgoth_btroman" horiz-adv-x="1233" >
<font-face units-per-em="2048" ascent="1556" descent="-492" />
<missing-glyph horiz-adv-x="616" />
<glyph horiz-adv-x="0" />
<glyph unicode="&#xd;" horiz-adv-x="616" />
<glyph unicode=" "  horiz-adv-x="616" />
<glyph unicode="&#x09;" horiz-adv-x="616" />
<glyph unicode="&#xa0;" horiz-adv-x="616" />
<glyph unicode="!" horiz-adv-x="633" d="M215 0v231h201v-231h-201zM219 1481h193l-45 -1006h-103z" />
<glyph unicode="&#x22;" horiz-adv-x="590" d="M94 881v553h117v-553h-117zM377 881v553h119v-553h-119z" />
<glyph unicode="#" horiz-adv-x="1575" d="M104 467l43 123h320l96 272h-342l43 123h344l168 471h146l-166 -471h260l168 471h143l-164 -471h307l-43 -123h-311l-94 -272h330l-43 -123h-332l-166 -469h-145l168 469h-265l-168 -469h-143l166 469h-320zM614 590h263l96 272h-264z" />
<glyph unicode="$" d="M117 264l116 88q59 -105 143.5 -164t192.5 -71v581q-219 69 -314 161.5t-95 234.5q0 167 108 268t301 115v135h113v-137q133 -10 230.5 -69t170.5 -175l-114 -84q-53 99 -123.5 150t-163.5 57v-539q226 -56 333 -159t107 -265q0 -171 -116 -275.5t-324 -119.5v-195h-113 v195q-147 11 -260.5 78t-191.5 190zM301 1116q0 -91 62.5 -153.5t205.5 -112.5v506q-127 -8 -197.5 -71t-70.5 -169zM682 119q134 6 215.5 77.5t81.5 182.5q0 104 -72.5 174t-224.5 113v-547z" />
<glyph unicode="%" horiz-adv-x="1741" d="M106 1163q0 143 99 241.5t241 98.5q143 0 240.5 -98.5t97.5 -241.5q0 -142 -98 -240t-240 -98t-241 98t-99 240zM236 1163q0 -87 61.5 -149t148.5 -62q88 0 148.5 61.5t60.5 149.5q0 90 -60 150.5t-149 60.5t-149.5 -61t-60.5 -150zM389 -25l846 1528h113l-844 -1528 h-115zM952 315q0 143 97.5 240.5t240.5 97.5t241.5 -97.5t98.5 -240.5q0 -142 -99 -241t-241 -99q-141 0 -239.5 99t-98.5 241zM1081 315q0 -88 61 -149.5t148 -61.5q88 0 149.5 61.5t61.5 149.5q0 89 -60.5 149t-150.5 60q-89 0 -149 -60t-60 -149z" />
<glyph unicode="&#x26;" horiz-adv-x="1309" d="M74 399q0 140 78.5 249.5t244.5 203.5q-57 93 -84.5 177t-27.5 167q0 140 84 224.5t223 84.5t219 -75t80 -205q0 -119 -72 -220.5t-223 -195.5q82 -137 164.5 -247t163.5 -191q51 81 84 173.5t49 196.5l139 -22q-17 -128 -59.5 -239t-110.5 -204q49 -50 110 -81.5 t126 -38.5v-160q-99 6 -179.5 42.5t-154.5 106.5q-100 -86 -202.5 -128t-213.5 -42q-199 0 -318.5 116.5t-119.5 307.5zM227 406q0 -127 83.5 -210t211.5 -83q85 0 164 34t145 99q-106 101 -199 224.5t-171 266.5q-118 -76 -176 -158t-58 -173zM432 1200q0 -59 23.5 -131.5 t70.5 -159.5q118 79 170 151.5t52 158.5q0 80 -41.5 125t-114.5 45t-116.5 -51.5t-43.5 -137.5z" />
<glyph unicode="'" horiz-adv-x="305" d="M94 881v553h117v-553h-117z" />
<glyph unicode="(" horiz-adv-x="672" d="M125 670q0 220 69.5 424.5t215.5 410.5h157q-151 -207 -222 -409t-71 -426t71 -426t222 -410h-157q-146 207 -215.5 411.5t-69.5 424.5z" />
<glyph unicode=")" horiz-adv-x="672" d="M104 -166q152 208 222.5 410t70.5 426t-70.5 426t-222.5 409h158q146 -206 215.5 -410.5t69.5 -424.5t-69.5 -424.5t-215.5 -411.5h-158z" />
<glyph unicode="*" horiz-adv-x="1024" d="M109 1128l47 150l311 -139l-25 342h140l-25 -342l311 139l47 -150l-329 -75l227 -252l-129 -96l-172 294l-172 -294l-129 96l227 252z" />
<glyph unicode="+" horiz-adv-x="1706" d="M254 553v117h541v551h118v-551h539v-117h-539v-553h-118v553h-541z" />
<glyph unicode="," horiz-adv-x="616" d="M195 -305l112 319h-86v213h199v-239l-125 -297z" />
<glyph unicode="-" horiz-adv-x="676" d="M84 467v137h500v-137h-500z" />
<glyph unicode="." horiz-adv-x="616" d="M209 0v225h199v-225h-199z" />
<glyph unicode="/" horiz-adv-x="557" d="M-84 -190l549 1695h121l-551 -1695h-119z" />
<glyph unicode="0" d="M102 739q0 374 132 569t382 195q251 0 382.5 -195t131.5 -569q0 -373 -131.5 -568.5t-382.5 -195.5q-250 0 -382 195.5t-132 568.5zM258 739q0 -312 90.5 -471t267.5 -159t267 158.5t90 471.5q0 314 -90 472.5t-267 158.5q-175 0 -266.5 -160.5t-91.5 -470.5z" />
<glyph unicode="1" d="M276 1298v103q87 23 163 49t139 53h118v-1370h244v-133h-639v133h250v1196z" />
<glyph unicode="2" d="M102 0v139q49 110 128.5 212.5t197.5 205.5q53 47 169.5 131.5t162.5 132.5q71 75 104 141.5t33 135.5q0 128 -75.5 202t-207.5 74q-135 0 -225.5 -82t-122.5 -235l-143 30q44 205 170 310.5t325 105.5q202 0 319.5 -107.5t117.5 -291.5q0 -78 -19 -141.5t-59 -118.5 q-77 -109 -316 -286q-53 -38 -79 -58q-126 -95 -208 -185.5t-120 -177.5h801v-137h-953z" />
<glyph unicode="3" d="M70 270l127 88q68 -123 167 -186t224 -63q155 0 242.5 78.5t87.5 218.5q0 156 -108.5 236.5t-320.5 80.5q-30 0 -56.5 -1t-55.5 -3v141q8 0 24 -1q64 -3 86 -3q189 0 288 72.5t99 210.5q0 108 -73.5 170.5t-200.5 62.5q-104 0 -186 -49t-156 -156l-117 88q92 126 207 187 t258 61q194 0 309 -97.5t115 -260.5q0 -123 -57.5 -211t-169.5 -135q135 -52 204.5 -148.5t69.5 -230.5q0 -203 -130.5 -324t-352.5 -121q-175 0 -307.5 74.5t-216.5 220.5z" />
<glyph unicode="4" d="M84 350v105l600 1024h211v-1002h244v-127h-244v-375h-145v375h-666zM246 477h504v866z" />
<glyph unicode="5" d="M139 264l135 78q62 -117 148.5 -177.5t191.5 -60.5q161 0 255 110t94 298q0 164 -90 264.5t-236 100.5q-111 0 -189.5 -59.5t-115.5 -170.5l-133 33l63 799h758v-138h-631l-39 -464q67 68 139.5 98.5t169.5 30.5q207 0 334 -137t127 -363q0 -236 -139.5 -383.5 t-362.5 -147.5q-168 0 -288.5 73t-190.5 216z" />
<glyph unicode="6" d="M123 666q0 386 159.5 610.5t430.5 224.5q91 0 173 -21t163 -65l-66 -127q-56 39 -122 57.5t-144 18.5q-198 0 -314 -166.5t-116 -452.5q81 96 176.5 143.5t204.5 47.5q206 0 331 -133.5t125 -353.5q0 -209 -135.5 -340.5t-351.5 -131.5q-254 0 -384 174t-130 515z M285 525q7 -193 102.5 -304.5t251.5 -111.5q140 0 233 97.5t93 246.5q0 161 -86 256.5t-230 95.5q-115 0 -208.5 -72t-155.5 -208z" />
<glyph unicode="7" d="M150 1341v138h927v-99l-626 -1405h-170l626 1366h-757z" />
<glyph unicode="8" d="M100 383q0 134 84 238t240 163q-132 51 -200 139t-68 207q0 168 125 270.5t333 102.5q218 0 345.5 -99t127.5 -267q0 -122 -67 -209t-201 -137q166 -67 244 -168.5t78 -249.5q0 -187 -140 -292.5t-389 -105.5q-239 0 -375.5 109t-136.5 299zM256 381q0 -119 98.5 -194.5 t255.5 -75.5q176 0 275.5 71.5t99.5 198.5q0 113 -86.5 189.5t-306.5 150.5q-174 -66 -255 -148.5t-81 -191.5zM303 1145q0 -95 80.5 -166t249.5 -125q165 54 232 118.5t67 168.5q0 109 -86.5 173t-233.5 64q-135 0 -222 -66t-87 -167z" />
<glyph unicode="9" d="M119 1030q0 207 135.5 339t349.5 132q255 0 385.5 -174t130.5 -514q0 -387 -162 -612.5t-438 -225.5q-101 0 -183 22.5t-144 65.5l65 127q57 -39 123 -58t143 -19q197 0 313.5 167t116.5 453q-81 -95 -176.5 -142.5t-204.5 -47.5q-207 0 -330.5 132t-123.5 355zM276 1026 q0 -161 86.5 -256.5t231.5 -95.5q115 0 207.5 71.5t154.5 208.5q-7 193 -102 304.5t-252 111.5q-140 0 -233 -98t-93 -246z" />
<glyph unicode=":" horiz-adv-x="633" d="M217 0v225h199v-225h-199zM217 592v225h199v-225h-199z" />
<glyph unicode=";" horiz-adv-x="633" d="M203 -305l112 319h-82v213h195v-239l-125 -297zM233 592v225h195v-225h-195z" />
<glyph unicode="&#x3c;" horiz-adv-x="1706" d="M264 559v103l1178 483v-127l-1000 -408l1000 -405v-129z" />
<glyph unicode="=" horiz-adv-x="1706" d="M254 360v117h1198v-117h-1198zM254 743v117h1198v-117h-1198z" />
<glyph unicode="&#x3e;" horiz-adv-x="1706" d="M264 76v129l1000 405l-1000 408v127l1178 -483v-103z" />
<glyph unicode="?" horiz-adv-x="899" d="M115 1278q54 115 137 171t199 56q147 0 234 -85.5t87 -231.5q0 -69 -25.5 -135t-78.5 -135q-30 -39 -88.5 -103.5t-79.5 -95.5q-29 -41 -41.5 -85.5t-12.5 -111.5q0 -8 1.5 -24.5t1.5 -26.5h-139q-2 14 -2.5 27.5t-0.5 40.5q0 92 21 156.5t71 129.5q19 24 55 69 q156 195 156 306q0 78 -46.5 126t-121.5 48q-67 0 -113.5 -38.5t-84.5 -125.5zM274 0v225h197v-225h-197z" />
<glyph unicode="@" horiz-adv-x="2048" d="M113 522q0 163 50.5 309t149.5 269q146 176 349.5 267t453.5 91q165 0 311 -43.5t248 -124.5q129 -99 195.5 -230t66.5 -282q0 -169 -62.5 -308.5t-182.5 -236.5q-69 -55 -148.5 -83.5t-163.5 -28.5q-99 0 -148.5 39t-49.5 116q0 3 1 11t1 12q-51 -87 -127 -132.5 t-170 -45.5q-153 0 -233.5 85t-80.5 247q0 230 137 389t332 159q91 0 153.5 -39.5t96.5 -117.5l58 121h110l-141 -568q-6 -24 -9 -44t-3 -36q0 -44 27.5 -67t82.5 -23q45 0 100 24t103 64q89 76 139.5 196.5t50.5 254.5q0 266 -195.5 428t-518.5 162q-168 0 -312.5 -52 t-259.5 -153q-140 -122 -211 -282.5t-71 -354.5q0 -173 60.5 -304t186.5 -230q101 -81 240 -124.5t295 -43.5q172 0 334.5 48.5t296.5 139.5l45 -66q-147 -109 -313 -165t-347 -56q-191 0 -348 46.5t-276 138.5q-153 117 -228 272t-75 352zM713 446q0 -110 51 -169.5 t145 -59.5q102 0 183.5 70.5t109.5 185.5l60 242q-17 90 -72 140t-135 50q-146 0 -244 -131.5t-98 -327.5z" />
<glyph unicode="A" d="M35 0l457 1481h249l455 -1481h-172l-133 461h-551l-131 -461h-174zM379 598h467l-221 772h-23z" />
<glyph unicode="B" horiz-adv-x="1313" d="M199 0v1481h401q303 0 438.5 -88.5t135.5 -284.5q0 -117 -61.5 -200t-180.5 -128q138 -53 211.5 -150.5t73.5 -230.5q0 -198 -142.5 -298.5t-425.5 -100.5h-450zM360 141h306q199 0 291 67t92 212q0 141 -98 215t-285 74h-306v-568zM360 846h316q160 0 246 67.5t86 194.5 q0 123 -92 181.5t-285 58.5h-271v-502z" />
<glyph unicode="C" horiz-adv-x="1237" d="M94 741q0 357 149.5 560.5t407.5 203.5q206 0 334 -111.5t174 -330.5l-149 -39q-35 166 -124 254t-220 88q-195 0 -300.5 -164t-105.5 -467q0 -296 107 -457t303 -161q145 0 240.5 93.5t125.5 266.5l150 -33q-54 -234 -184.5 -351.5t-337.5 -117.5q-273 0 -421.5 199.5 t-148.5 566.5z" />
<glyph unicode="D" horiz-adv-x="1389" d="M199 0v1481h352q169 0 276.5 -27.5t190.5 -89.5q124 -94 190 -254.5t66 -368.5q0 -369 -190.5 -555t-569.5 -186h-315zM360 145h132q167 0 264.5 24t165.5 79q93 73 142.5 199t49.5 292q0 177 -49 305.5t-145 202.5q-67 52 -154 74t-252 22h-154v-1198z" />
<glyph unicode="E" horiz-adv-x="1169" d="M199 0v1481h874v-140h-711v-495h504v-137h-504v-568h746v-141h-909z" />
<glyph unicode="F" horiz-adv-x="1100" d="M199 0v1481h868v-140h-705v-493h523v-139h-523v-709h-163z" />
<glyph unicode="G" horiz-adv-x="1352" d="M92 733q0 367 154 569.5t432 202.5q195 0 323.5 -108.5t190.5 -325.5l-168 -33q-43 163 -131.5 244.5t-220.5 81.5q-198 0 -305 -160.5t-107 -458.5q0 -297 111.5 -462.5t310.5 -165.5q165 0 261.5 95.5t96.5 260.5v105h-342v141h512v-719h-141l-6 162q-69 -95 -165 -141 t-226 -46q-268 0 -424 203.5t-156 554.5z" />
<glyph unicode="H" horiz-adv-x="1464" d="M199 0v1481h161v-633h744v633h162v-1481h-162v705h-744v-705h-161z" />
<glyph unicode="I" horiz-adv-x="584" d="M209 0v1481h166v-1481h-166z" />
<glyph unicode="J" horiz-adv-x="899" d="M6 168l129 90q51 -80 99 -111.5t116 -31.5q106 0 150.5 64.5t44.5 230.5v1071h160v-1088q0 -204 -90.5 -311t-264.5 -107q-115 0 -197.5 46.5t-146.5 146.5z" />
<glyph unicode="K" horiz-adv-x="1276" d="M209 0v1481h162v-781l624 781h181l-463 -570l528 -911h-190l-445 784l-235 -286v-498h-162z" />
<glyph unicode="L" horiz-adv-x="1067" d="M209 0v1481h168v-1340h661v-141h-829z" />
<glyph unicode="M" horiz-adv-x="1716" d="M199 0v1481h252l413 -1252l416 1252h238v-1481h-158v1305l-447 -1305h-110l-447 1305v-1305h-157z" />
<glyph unicode="N" horiz-adv-x="1464" d="M199 0v1481h233l680 -1155v1155h154v-1481h-127l-787 1311v-1311h-153z" />
<glyph unicode="O" horiz-adv-x="1360" d="M94 741q0 349 159.5 556.5t426.5 207.5t426.5 -206.5t159.5 -557.5q0 -350 -159.5 -558t-426.5 -208q-266 0 -426 208t-160 558zM260 741q0 -294 111.5 -458t308.5 -164t308.5 164t111.5 458q0 295 -111.5 459t-308.5 164t-308.5 -164t-111.5 -459z" />
<glyph unicode="P" d="M199 0v1481h430q265 0 391.5 -98.5t126.5 -305.5q0 -198 -123.5 -306.5t-347.5 -108.5h-318v-662h-159zM358 801h252q202 0 285.5 64t83.5 214q0 142 -87.5 203t-293.5 61h-240v-542z" />
<glyph unicode="Q" horiz-adv-x="1360" d="M94 741q0 351 159.5 557.5t426.5 206.5t426.5 -206.5t159.5 -557.5q0 -174 -42 -315t-126 -250q40 -65 91 -97.5t115 -35.5l1 -164h-7q-97 0 -173 46t-138 143q-71 -47 -146.5 -70t-160.5 -23q-267 0 -426.5 208t-159.5 558zM260 741q0 -294 111.5 -458t308.5 -164 q69 0 123.5 17t103.5 54q-39 64 -81.5 95t-96.5 35v157q80 0 147 -39.5t130 -124.5q46 79 70 184t24 230q0 304 -110 470.5t-310 166.5q-197 0 -308.5 -164t-111.5 -459z" />
<glyph unicode="R" horiz-adv-x="1339" d="M199 0v1481h415q311 0 451.5 -93.5t140.5 -297.5q0 -145 -76.5 -240t-230.5 -139l348 -711h-180l-326 672h-381v-672h-161zM360 809h248q229 0 330.5 63t101.5 203q0 149 -90.5 208.5t-335.5 59.5h-254v-534z" />
<glyph unicode="S" horiz-adv-x="1147" d="M70 371l155 51q40 -142 137 -223.5t224 -81.5q141 0 225 70.5t84 187.5q0 69 -25 120t-75 85q-72 48 -249 112q-63 23 -95 35q-187 73 -263.5 161t-76.5 222q0 179 118.5 287t315.5 108q172 0 291.5 -93t171.5 -269l-148 -43q-36 131 -121 199.5t-211 68.5 q-119 0 -189.5 -65.5t-70.5 -176.5q0 -52 23.5 -96t73.5 -84q49 -38 227 -103q57 -20 88 -32q211 -80 292 -175t81 -251q0 -185 -125.5 -297.5t-333.5 -112.5q-199 0 -331 100t-193 296z" />
<glyph unicode="T" horiz-adv-x="1124" d="M45 1339v142h1032v-142h-432v-1339h-168v1339h-432z" />
<glyph unicode="U" horiz-adv-x="1456" d="M195 500v981h161v-955q0 -100 9 -150.5t30 -90.5q41 -80 128 -124t204 -44q119 0 206 44t128 124q21 42 30 94.5t9 173.5v928h162v-981q0 -257 -136.5 -391t-398.5 -134q-263 0 -397.5 132.5t-134.5 392.5z" />
<glyph unicode="V" horiz-adv-x="1208" d="M31 1481h168l399 -1200h12l402 1200h166l-504 -1481h-144z" />
<glyph unicode="W" horiz-adv-x="1866" d="M45 1481h166l315 -1110h11l321 1110h150l321 -1110h10l316 1110h164l-430 -1481h-107l-350 1202l-348 -1202h-107z" />
<glyph unicode="X" horiz-adv-x="1122" d="M16 0l455 788l-410 693h189l313 -551l303 551h189l-400 -693l451 -788h-191l-352 643l-360 -643h-187z" />
<glyph unicode="Y" horiz-adv-x="1124" d="M31 1481h178l352 -684l354 684h179l-451 -856v-625h-162v625z" />
<glyph unicode="Z" horiz-adv-x="1118" d="M80 0v109l749 1234h-677v138h872v-105l-750 -1235h744v-141h-938z" />
<glyph unicode="[" horiz-adv-x="668" d="M154 -145v1626h409v-90h-262v-1446h262v-90h-409z" />
<glyph unicode="\" horiz-adv-x="557" d="M-29 1505h119l551 -1695h-119z" />
<glyph unicode="]" horiz-adv-x="668" d="M102 -55h265v1446h-265v90h412v-1626h-412v90z" />
<glyph unicode="^" horiz-adv-x="2048" d="M422 901l520 557h162l520 -557h-158l-442 438l-442 -438h-160z" />
<glyph unicode="_" horiz-adv-x="1024" d="M0 -365h1024v-118h-1024v118z" />
<glyph unicode="`" horiz-adv-x="1024" d="M262 1550h178l209 -348h-106z" />
<glyph unicode="a" horiz-adv-x="1034" d="M86 279q0 167 147 268t494 168v78q0 73 -60 120.5t-155 47.5q-87 0 -154 -43t-108 -125l-129 69q59 113 159.5 170.5t239.5 57.5q171 0 265 -83.5t94 -234.5v-598q0 -41 5.5 -81t16.5 -77v-16h-164l-16 145q-75 -81 -160 -121t-180 -40q-131 0 -213 82t-82 213zM233 276 q0 -73 47 -116t128 -43q68 0 146 40t173 124v294q-268 -54 -381 -123t-113 -176z" />
<glyph unicode="b" horiz-adv-x="1102" d="M156 0q7 82 10.5 167t3.5 173v1141h147v-537q50 74 117.5 110t155.5 36q208 0 322 -146t114 -414q0 -265 -113 -406.5t-325 -141.5q-94 0 -163 36t-120 111l-35 -129h-114zM317 268q58 -84 126 -124t153 -40q131 0 203.5 110t72.5 308q0 222 -72.5 331.5t-219.5 109.5 q-81 0 -147.5 -40.5t-115.5 -119.5v-535z" />
<glyph unicode="c" horiz-adv-x="961" d="M76 537q0 261 114 408t316 147q138 0 238.5 -75.5t148.5 -213.5l-148 -47q-31 99 -94.5 153t-148.5 54q-133 0 -204 -110t-71 -316q0 -212 71.5 -320t211.5 -108q85 0 158 56t120 159l125 -66q-65 -139 -166.5 -207.5t-240.5 -68.5q-210 0 -320 142t-110 413z" />
<glyph unicode="d" horiz-adv-x="1102" d="M78 541q0 263 112 406t318 143q95 0 164.5 -35.5t113.5 -106.5v533h148v-1147q0 -137 3.5 -206t10.5 -128h-114l-35 135q-60 -80 -130.5 -115.5t-168.5 -35.5q-200 0 -311 146.5t-111 410.5zM231 551q0 -222 73 -332t220 -110q81 0 147.5 40t114.5 119v535 q-57 84 -125 124t-153 40q-131 0 -204 -109t-73 -307z" />
<glyph unicode="e" horiz-adv-x="985" d="M78 537q0 258 111.5 405.5t306.5 147.5q198 0 307.5 -142t109.5 -397v-45h-682v-35q0 -166 79.5 -264t211.5 -98q101 0 179.5 49.5t125.5 142.5l109 -68q-63 -128 -168 -189.5t-260 -61.5q-209 0 -319.5 142t-110.5 413zM233 633h522q-2 153 -71.5 241.5t-185.5 88.5 q-120 0 -189 -86.5t-76 -243.5z" />
<glyph unicode="f" horiz-adv-x="569" d="M6 944v127h180v152q0 140 62 209t188 69q28 0 60 -4.5t71 -13.5v-123q-31 7 -58.5 10.5t-51.5 3.5q-62 0 -92.5 -35t-30.5 -104v-164h225v-127h-225v-944h-148v944h-180z" />
<glyph unicode="g" horiz-adv-x="995" d="M47 -129q0 76 41.5 126.5t136.5 88.5q-66 23 -97.5 62.5t-31.5 99.5q0 52 32 92t112 86q-68 49 -102 121.5t-34 169.5q0 174 106 274.5t290 100.5q75 0 138 -20t114 -60q56 50 102.5 72t93.5 22h27v-139h-31q-55 0 -83 -8t-42 -25q31 -44 45.5 -95t14.5 -116 q0 -171 -104.5 -271t-282.5 -100q-38 0 -78.5 6t-81.5 17q-43 -16 -66.5 -41.5t-23.5 -54.5q0 -69 203 -83q65 -4 104 -8q244 -22 333 -86t89 -202q0 -142 -123.5 -215.5t-360.5 -73.5q-220 0 -330 65t-110 195zM190 -106q0 -80 75.5 -121t219.5 -41q173 0 256.5 39.5 t83.5 122.5q0 80 -83.5 118.5t-258.5 38.5q-140 0 -216.5 -41t-76.5 -116zM244 731q0 -123 65 -190.5t185 -67.5q114 0 179.5 65.5t65.5 180.5q0 117 -68 185.5t-186 68.5q-110 0 -175.5 -65.5t-65.5 -176.5z" />
<glyph unicode="h" horiz-adv-x="1126" d="M168 0v1481h147v-568q90 93 176 135t187 42q138 0 213.5 -77.5t75.5 -219.5v-793h-146v737q0 121 -42.5 172.5t-139.5 51.5q-86 0 -166.5 -40.5t-157.5 -121.5v-799h-147z" />
<glyph unicode="i" horiz-adv-x="508" d="M166 1300v181h176v-181h-176zM178 0v1071h152v-1071h-152z" />
<glyph unicode="j" horiz-adv-x="514" d="M0 -248q18 -4 37.5 -6t42.5 -2q57 0 80.5 29.5t23.5 105.5v1192h152v-1157q0 -179 -54 -241t-188 -62q-28 0 -50.5 3.5t-43.5 11.5v126zM172 1300v181h178v-181h-178z" />
<glyph unicode="k" horiz-adv-x="1006" d="M168 0v1481h149v-957l476 547h163l-344 -389l381 -682h-164l-317 567l-195 -215v-352h-149z" />
<glyph unicode="l" horiz-adv-x="508" d="M178 0v1481h150v-1481h-150z" />
<glyph unicode="m" horiz-adv-x="1698" d="M164 0v1071h137v-162q90 96 172 138.5t178 42.5q99 0 164 -46t94 -135q89 95 173 138t182 43q131 0 202.5 -77.5t71.5 -219.5v-793h-147v745q0 115 -39.5 165.5t-128.5 50.5q-81 0 -154.5 -40t-146.5 -122v-799h-142v741q0 116 -40 168t-130 52q-79 0 -150.5 -38.5 t-148.5 -123.5v-799h-147z" />
<glyph unicode="n" horiz-adv-x="1098" d="M168 0v1071h137v-162q88 93 174 137t180 44q134 0 206.5 -78t72.5 -219v-793h-145v737q0 120 -40.5 172t-131.5 52q-80 0 -156 -40.5t-150 -121.5v-799h-147z" />
<glyph unicode="o" horiz-adv-x="1030" d="M70 537q0 263 117 408t329 145t329.5 -145t117.5 -408q0 -264 -117.5 -409.5t-329.5 -145.5t-329 145.5t-117 409.5zM221 537q0 -210 76 -320.5t219 -110.5q142 0 217.5 110.5t75.5 318.5q0 209 -75 318.5t-218 109.5t-219 -109.5t-76 -316.5z" />
<glyph unicode="p" horiz-adv-x="1108" d="M168 -389v1460h115l24 -131q63 80 130.5 115t156.5 35q212 0 328 -146t116 -414q0 -266 -115 -407t-331 -141q-90 0 -158 32.5t-119 100.5v-504h-147zM315 268q61 -85 130 -124.5t157 -39.5q136 0 209.5 110t73.5 314q0 217 -75 326t-224 109q-83 0 -152 -41t-119 -119 v-535z" />
<glyph unicode="q" horiz-adv-x="1102" d="M74 541q0 261 111 405t313 144q100 0 174.5 -37.5t122.5 -110.5l34 129h115q-7 -82 -10.5 -166.5t-3.5 -173.5v-1120h-148v516q-50 -73 -117 -109t-155 -36q-208 0 -322 146t-114 413zM227 551q0 -222 73 -332t220 -110q81 0 147.5 40t114.5 119v535q-57 84 -125 124 t-153 40q-131 0 -204 -109t-73 -307z" />
<glyph unicode="r" horiz-adv-x="664" d="M168 0v1071h151v-244q55 132 130.5 194t179.5 62q14 0 21 -0.5t13 -1.5l1 -147h-19q-110 0 -193.5 -86.5t-132.5 -251.5v-596h-151z" />
<glyph unicode="s" horiz-adv-x="891" d="M39 184l119 95q63 -87 139 -130t166 -43q98 0 156.5 49.5t58.5 131.5q0 122 -245 192q-55 16 -85 25q-136 41 -203 113.5t-67 179.5q0 130 90 211.5t233 81.5q119 0 214 -44t171 -135l-98 -98q-60 77 -129.5 115.5t-148.5 38.5q-83 0 -132 -42.5t-49 -113.5q0 -35 14 -64 t40 -47q49 -35 183 -71q65 -17 101 -29q136 -43 198 -114.5t62 -182.5q0 -146 -104 -233.5t-279 -87.5q-126 0 -232.5 53t-172.5 149z" />
<glyph unicode="t" horiz-adv-x="627" d="M31 944v127h159v346h156v-346h244v-127h-244v-686q0 -92 29 -118.5t112 -26.5q40 0 100 15l5 1v-125q-33 -11 -71.5 -16.5t-86.5 -5.5q-121 0 -182.5 52t-61.5 156v754h-159z" />
<glyph unicode="u" horiz-adv-x="1098" d="M158 279v792h147v-737q0 -120 40.5 -171.5t131.5 -51.5q79 0 154 39.5t149 121.5v799h148v-1071h-135v162q-88 -93 -175 -136.5t-182 -43.5q-133 0 -205.5 77.5t-72.5 219.5z" />
<glyph unicode="v" horiz-adv-x="938" d="M20 1071h152l295 -917l295 917h151l-350 -1071h-192z" />
<glyph unicode="w" horiz-adv-x="1495" d="M45 1071h145l244 -897l248 897h129l248 -897l244 897h143l-295 -1071h-182l-224 803l-223 -803h-180z" />
<glyph unicode="x" horiz-adv-x="893" d="M16 0l340 563l-313 508h166l231 -389l224 389h165l-303 -504l351 -567h-172l-265 455l-258 -455h-166z" />
<glyph unicode="y" horiz-adv-x="938" d="M20 1071h152l311 -856l279 856h151l-366 -1089q-75 -220 -159.5 -296.5t-229.5 -76.5q-25 0 -49 3t-46 9l1 137q23 -5 44.5 -7.5t38.5 -2.5q110 0 167.5 60t91.5 210z" />
<glyph unicode="z" horiz-adv-x="891" d="M49 0v109l604 835h-544v127h725v-106l-607 -834h602v-131h-780z" />
<glyph unicode="{" horiz-adv-x="1024" d="M172 467v127q8 0 23 -1t22 -1q134 0 189 61.5t55 214.5v244q0 153 22.5 215.5t77.5 97.5q42 28 102 40t160 12h35v-127q-8 0 -23 1t-22 1q-121 0 -164 -47t-43 -197v-242q0 -166 -43.5 -235.5t-154.5 -100.5q111 -30 154.5 -99.5t43.5 -235.5v-242q0 -149 43.5 -195.5 t169.5 -46.5h39v-125h-35q-99 0 -159.5 12t-102.5 40q-55 36 -77.5 100t-22.5 213v244q0 152 -55 213t-189 61q-7 0 -22 -1t-23 -1z" />
<glyph unicode="|" horiz-adv-x="1024" d="M449 -483v2048h126v-2048h-126z" />
<glyph unicode="}" horiz-adv-x="1024" d="M166 -289q8 0 23 -1t22 -1q120 0 163.5 47.5t43.5 198.5v240q0 166 43.5 235.5t154.5 99.5q-111 31 -154.5 100.5t-43.5 235.5v242q0 149 -44 196.5t-169 47.5h-39v125h35q100 0 161 -12.5t103 -39.5q54 -35 76 -98t22 -215v-244q0 -152 55.5 -214t190.5 -62q7 0 22 1 t23 1v-127q-8 0 -23 1t-22 1q-135 0 -190.5 -62t-55.5 -214v-242q0 -153 -22 -216.5t-76 -99.5q-39 -26 -97.5 -37.5t-160.5 -11.5h-41v125z" />
<glyph unicode="~" horiz-adv-x="1706" d="M178 461v133q105 73 202 109t185 36q56 0 116.5 -12.5t174.5 -52.5q14 -5 44 -16q158 -58 245 -58q84 0 174.5 37t210.5 121v-131q-101 -72 -197.5 -108t-189.5 -36q-43 0 -90.5 9t-100.5 26q-30 10 -87 31q-202 72 -302 72q-83 0 -173.5 -37.5t-211.5 -122.5z" />
<glyph unicode="&#xa0;" />
<glyph unicode="&#xa1;" horiz-adv-x="633" d="M215 1249v232h201v-232h-201zM219 0l47 1006h101l47 -1006h-195z" />
<glyph unicode="&#xa2;" d="M197 563q0 246 120 396.5t314 150.5q32 0 63 -3.5t61 -10.5l79 213h120l-94 -258q49 -33 92 -91t78 -141l-141 -51q-17 49 -37 81.5t-45 53.5l-275 -751q26 -11 52.5 -16t56.5 -5q96 0 168 52.5t113 152.5l129 -60q-59 -136 -163 -206t-249 -70q-49 0 -85 6.5t-67 20.5 l-86 -240h-120l108 301q-93 62 -142.5 184.5t-49.5 290.5zM352 559q0 -114 22 -197.5t64 -130.5l272 734q-24 9 -47 13.5t-45 4.5q-119 0 -192.5 -115.5t-73.5 -308.5z" />
<glyph unicode="&#xa3;" d="M61 -23v166q113 39 166.5 147.5t53.5 299.5q0 35 -0.5 53t-2.5 35h-215v121h205q-11 88 -16.5 150.5t-5.5 105.5q0 206 114.5 327t309.5 121q183 0 303 -96.5t166 -282.5l-148 -30q-26 128 -112.5 203t-208.5 75q-127 0 -199 -82.5t-72 -228.5q0 -40 6 -110t17 -152h299 v-121h-283q0 -9 1 -28.5t1 -28.5q0 -107 -16.5 -194t-50.5 -159q106 -74 199 -110.5t173 -36.5q122 0 191 61.5t94 192.5l144 -25q-34 -187 -133.5 -282t-262.5 -95q-110 0 -226 41t-245 125q-53 -68 -114.5 -108.5t-131.5 -53.5z" />
<glyph unicode="&#xa4;" d="M0 559l27 94h129q-1 14 -2 37q-2 38 -2 49q0 21 1.5 48.5t3.5 60.5h-157l27 94h139q32 271 163 416t343 145q175 0 284 -99t158 -302l-137 -39q-43 153 -121 230t-190 77q-143 0 -233 -112t-109 -316h567l-27 -94h-550q-4 -36 -5.5 -63.5t-1.5 -47.5q0 -11 3 -52 q1 -20 1 -32h494l-29 -94h-457q25 -216 116.5 -333t236.5 -117q124 0 208.5 87t118.5 253l138 -33q-48 -222 -163.5 -331.5t-301.5 -109.5q-215 0 -345.5 150t-162.5 434h-164z" />
<glyph unicode="&#xa5;" d="M80 629v98h407l-100 197h-307v98h254l-242 457h160l362 -717l369 717h156l-240 -457h252v-98h-305l-103 -197h408v-98h-463v-629h-143v629h-465z" />
<glyph unicode="&#xa6;" horiz-adv-x="1024" d="M449 -350v758h126v-758h-126zM449 674v758h126v-758h-126z" />
<glyph unicode="&#xa7;" horiz-adv-x="1024" d="M145 805q0 104 60.5 161.5t169.5 57.5q-62 69 -91.5 128.5t-29.5 117.5q0 103 72 169t186 66q87 0 162.5 -45.5t122.5 -126.5l-101 -71q-39 60 -86.5 94.5t-91.5 34.5q-58 0 -95.5 -33t-37.5 -84q0 -41 35.5 -92.5t154.5 -171.5l10 -10q304 -300 304 -459 q0 -90 -62.5 -146t-166.5 -59q60 -69 90 -135.5t30 -132.5q0 -112 -73.5 -182t-188.5 -70q-93 0 -175.5 47.5t-135.5 132.5l100 74q44 -63 97.5 -98t103.5 -35q61 0 101 36t40 90q0 86 -169 265l-7 8q-21 22 -62 64q-266 274 -266 405zM274 823q0 -38 26 -84t93 -125 q82 -92 143.5 -137t106.5 -45q48 0 80.5 32t32.5 79q0 42 -30 92t-112 139q-79 88 -130.5 125t-92.5 37q-46 0 -81.5 -34t-35.5 -79z" />
<glyph unicode="&#xa8;" horiz-adv-x="1024" d="M272 1266v186h160v-186h-160zM592 1266v186h160v-186h-160z" />
<glyph unicode="&#xa9;" horiz-adv-x="1706" d="M119 725q0 145 56.5 279.5t162.5 242.5q102 104 234 158.5t280 54.5q151 0 285 -55t239 -160q102 -102 156.5 -236t54.5 -284q0 -151 -54 -283t-157 -233q-109 -106 -244.5 -162.5t-279.5 -56.5q-146 0 -278 55.5t-238 161.5q-106 105 -161.5 238.5t-55.5 279.5zM207 725 q0 -127 49 -244t141 -211q93 -92 209.5 -141t245.5 -49t248.5 50t214.5 142q91 90 138.5 205.5t47.5 247.5q0 130 -49 249t-139 210q-92 92 -210 140t-251 48q-132 0 -247.5 -47.5t-205.5 -138.5q-93 -95 -142.5 -214t-49.5 -247zM465 721q0 208 107.5 332.5t287.5 124.5 q137 0 230 -74.5t104 -192.5h-129q-15 77 -70.5 120.5t-138.5 43.5q-117 0 -182.5 -92.5t-65.5 -259.5q0 -160 66.5 -252t181.5 -92q87 0 145.5 48.5t73.5 133.5h129q-11 -127 -109 -207t-245 -80q-176 0 -280.5 121t-104.5 326z" />
<glyph unicode="&#xaa;" horiz-adv-x="776" d="M66 926q0 118 110 188.5t369 116.5v55q0 52 -44.5 84.5t-115.5 32.5q-66 0 -116.5 -30t-80.5 -87l-98 49q46 79 121 118.5t180 39.5q127 0 197.5 -58t70.5 -163v-418q0 -29 4.5 -56.5t12.5 -54.5v-12h-123l-12 103q-56 -58 -119.5 -86.5t-134.5 -28.5q-98 0 -159.5 58 t-61.5 149zM176 926q0 -52 35 -82.5t94 -30.5q52 0 110 27.5t130 87.5v207q-199 -38 -284 -86.5t-85 -122.5z" />
<glyph unicode="&#xab;" horiz-adv-x="1020" d="M117 537l260 315h155l-258 -315l254 -320h-163zM432 537l262 315h156l-258 -315l252 -320h-162z" />
<glyph unicode="&#xac;" horiz-adv-x="1706" d="M254 741v117h1198v-502h-115v385h-1083z" />
<glyph unicode="&#xad;" horiz-adv-x="676" d="M84 467v137h500v-137h-500z" />
<glyph unicode="&#xae;" horiz-adv-x="1706" d="M119 725q0 147 57 282t164 242q101 103 232 157t280 54q150 0 284 -55.5t240 -161.5q102 -102 156.5 -235.5t54.5 -282.5q0 -151 -54.5 -283t-158.5 -233q-109 -106 -243.5 -162.5t-278.5 -56.5q-145 0 -278.5 56t-239.5 163q-105 104 -160 237t-55 279zM207 725 q0 -127 49 -244t141 -211q91 -92 208 -141t245 -49q131 0 249.5 48.5t213.5 141.5q91 90 139.5 206t48.5 245q0 133 -48 251.5t-138 209.5q-94 93 -211.5 141.5t-251.5 48.5q-132 0 -247 -47t-204 -137q-94 -95 -144 -214t-50 -249zM561 317v840h311q178 0 264.5 -57 t86.5 -174q0 -89 -53 -148.5t-144 -75.5l188 -385h-157l-176 365h-179v-365h-141zM702 774h148q123 0 175 33t52 108q0 79 -54.5 114.5t-176.5 35.5h-144v-291z" />
<glyph unicode="&#xaf;" horiz-adv-x="1024" d="M254 1296v125h516v-125h-516z" />
<glyph unicode="&#xb0;" horiz-adv-x="674" d="M55 1171q0 119 82.5 201t200.5 82q117 0 200 -83t83 -200q0 -116 -83.5 -199t-201.5 -83t-199.5 82t-81.5 200zM135 1171q0 -84 59.5 -143t143.5 -59t142.5 59t58.5 143t-58.5 142.5t-142.5 58.5t-143.5 -58.5t-59.5 -142.5z" />
<glyph unicode="&#xb1;" horiz-adv-x="1706" d="M254 41v117h1198v-117h-1198zM254 719v117h541v344h118v-344h539v-117h-539v-344h-118v344h-541z" />
<glyph unicode="&#xb2;" horiz-adv-x="813" d="M68 592v84q32 66 84.5 127t130.5 123q35 29 112 80t107 79q47 44 68.5 84t21.5 82q0 77 -50 121.5t-136 44.5q-90 0 -149 -49t-81 -141l-94 18q29 122 112 185t214 63q133 0 210.5 -64.5t77.5 -175.5q0 -45 -12.5 -83t-38.5 -72q-51 -65 -210 -172q-35 -23 -52 -35 q-82 -56 -136.5 -110.5t-78.5 -106.5h528v-82h-628z" />
<glyph unicode="&#xb3;" horiz-adv-x="813" d="M45 754l84 53q45 -74 110 -112t148 -38q103 0 161 47t58 132q0 94 -71.5 142t-210.5 48q-21 0 -39 -0.5t-37 -1.5v84q15 -1 31.5 -1.5t42.5 -0.5q125 0 190.5 43.5t65.5 126.5q0 64 -49 101.5t-134 37.5q-68 0 -122.5 -29.5t-102.5 -93.5l-76 54q59 74 135 110.5 t170 36.5q129 0 205 -58.5t76 -156.5q0 -73 -37.5 -125.5t-112.5 -81.5q89 -30 135 -88t46 -139q0 -123 -86 -194.5t-234 -71.5q-115 0 -202 44t-144 132z" />
<glyph unicode="&#xb4;" horiz-adv-x="1024" d="M375 1202l209 348h178l-281 -348h-106z" />
<glyph unicode="&#xb5;" horiz-adv-x="1128" d="M-111 -426l316 1495h157l-126 -595q-8 -33 -11.5 -67t-3.5 -71q0 -109 57 -168t160 -59q125 0 208 101t128 308l121 551h156l-162 -754q-12 -52 -17.5 -84t-5.5 -51q0 -32 18.5 -48.5t53.5 -16.5q9 0 17.5 0.5t17.5 1.5l-27 -125q-21 -5 -44 -7.5t-48 -2.5 q-70 0 -104.5 35t-40.5 112q-41 -70 -117 -108.5t-172 -38.5q-87 0 -152.5 34t-109.5 103l-113 -545h-156z" />
<glyph unicode="&#xb6;" horiz-adv-x="1024" d="M76 1130q0 157 107.5 253t285.5 96h479v-78h-125v-1401h-94v1401h-182v-1401h-96v782q-173 8 -274 102.5t-101 245.5z" />
<glyph unicode="&#xb7;" horiz-adv-x="616" d="M184 729q0 52 35.5 87.5t87.5 35.5q53 0 89 -35.5t36 -87.5t-37 -88.5t-88 -36.5t-87 36.5t-36 88.5z" />
<glyph unicode="&#xb8;" horiz-adv-x="1024" d="M299 -336q74 -17 136.5 -26t109.5 -9q60 0 90.5 20.5t30.5 61.5q0 52 -33 75.5t-107 23.5q-20 0 -30.5 -0.5t-20.5 -1.5v192h74v-106h22q112 0 169 -45t57 -132q0 -89 -63 -135.5t-185 -46.5q-44 0 -103 10t-147 33v86z" />
<glyph unicode="&#xb9;" horiz-adv-x="813" d="M184 1370v62q59 15 108.5 30t90.5 31h78v-821h160v-80h-422v80h166v717z" />
<glyph unicode="&#xba;" horiz-adv-x="772" d="M53 1106q0 184 87.5 285.5t246.5 101.5t247.5 -101.5t88.5 -285.5t-88.5 -285.5t-247.5 -101.5q-158 0 -246 101.5t-88 285.5zM166 1106q0 -146 57 -223.5t164 -77.5q106 0 162.5 77.5t56.5 223.5t-56 222.5t-163 76.5q-108 0 -164.5 -77t-56.5 -222z" />
<glyph unicode="&#xbb;" horiz-adv-x="1020" d="M160 217l256 315l-252 320h162l249 -320l-260 -315h-155zM479 217l258 315l-252 320h162l250 -320l-262 -315h-156z" />
<glyph unicode="&#xbc;" horiz-adv-x="1894" d="M174 1378v58q50 12 97.5 26.5t90.5 30.5h76v-768h154v-74h-404v74h158v670zM434 -25l912 1528h112l-915 -1528h-109zM1171 197v57l377 573h133v-561h154v-69h-154v-211h-90v211h-420zM1274 266h317v486z" />
<glyph unicode="&#xbd;" horiz-adv-x="1894" d="M174 1378v58q50 12 97.5 26.5t90.5 30.5h76v-768h154v-74h-404v74h158v670zM434 -25l912 1528h112l-915 -1528h-109zM1184 0v78q28 60 78 116.5t127 116.5q33 27 106.5 74.5t101.5 75.5q45 41 65.5 78.5t20.5 74.5q0 73 -47.5 114.5t-130.5 41.5q-85 0 -142 -46.5 t-77 -131.5l-90 16q28 115 106.5 174.5t204.5 59.5q127 0 201 -60.5t74 -163.5q0 -44 -11.5 -79.5t-35.5 -65.5q-50 -61 -202 -161q-32 -21 -48 -31q-79 -55 -131 -105.5t-76 -97.5h504v-78h-598z" />
<glyph unicode="&#xbe;" horiz-adv-x="1896" d="M43 803l80 49q44 -69 106.5 -104t141.5 -35q97 0 152 44t55 122q0 88 -68 133t-201 45q-19 0 -35.5 -0.5t-35.5 -1.5v78q15 0 38 -1.5t31 -1.5q118 0 181 41t63 117q0 61 -46 96t-126 35q-66 0 -118 -27.5t-99 -86.5l-74 49q58 70 130 104.5t163 34.5q123 0 195.5 -54.5 t72.5 -146.5q0 -68 -36 -117t-107 -77q85 -30 128.5 -83t43.5 -128q0 -115 -81.5 -182.5t-221.5 -67.5q-110 0 -194 42t-138 124zM434 -25l912 1528h112l-915 -1528h-109zM1171 197v57l377 573h133v-561h154v-69h-154v-211h-90v211h-420zM1274 266h317v486z" />
<glyph unicode="&#xbf;" horiz-adv-x="899" d="M113 293q0 69 25.5 135t78.5 135q29 38 86.5 103t79.5 96q30 44 42.5 89.5t12.5 111.5q0 6 -1 22t-1 25h139q2 -14 2.5 -27.5t0.5 -40.5q0 -92 -21 -156.5t-72 -130.5q-18 -24 -54 -68q-157 -196 -157 -306q0 -78 47 -126.5t121 -48.5q67 0 114 39t85 127l129 -69 q-54 -115 -137 -171.5t-199 -56.5q-147 0 -234 86t-87 232zM414 1255v226h196v-226h-196z" />
<glyph unicode="&#xc0;" d="M35 0l457 1481h249l455 -1481h-172l-133 461h-551l-131 -461h-174zM366 1966h178l209 -348h-106zM379 598h467l-221 772h-23z" />
<glyph unicode="&#xc1;" d="M35 0l457 1481h249l455 -1481h-172l-133 461h-551l-131 -461h-174zM379 598h467l-221 772h-23zM479 1618l209 348h178l-281 -348h-106z" />
<glyph unicode="&#xc2;" d="M35 0l457 1481h249l455 -1481h-172l-133 461h-551l-131 -461h-174zM329 1618l197 348h178l197 -348h-107l-178 242l-180 -242h-107zM379 598h467l-221 772h-23z" />
<glyph unicode="&#xc3;" d="M35 0l457 1481h249l455 -1481h-172l-133 461h-551l-131 -461h-174zM325 1676q22 91 72.5 138.5t126.5 47.5q14 0 29 -2.5t30 -7.5l78 -27q17 -5 32.5 -7.5t28.5 -2.5q36 0 60.5 17.5t36.5 51.5h88q-24 -92 -75 -141t-124 -49q-16 0 -32 2.5t-33 7.5l-80 27q-12 4 -25.5 6 t-27.5 2q-35 0 -58.5 -15.5t-38.5 -47.5h-88zM379 598h467l-221 772h-23z" />
<glyph unicode="&#xc4;" d="M35 0l457 1481h249l455 -1481h-172l-133 461h-551l-131 -461h-174zM376 1682v186h160v-186h-160zM379 598h467l-221 772h-23zM696 1682v186h160v-186h-160z" />
<glyph unicode="&#xc5;" d="M35 0l457 1481q-64 38 -94.5 91t-30.5 124q0 104 71.5 176t175.5 72q105 0 177.5 -72t72.5 -176q0 -67 -30 -120t-93 -95l455 -1481h-172l-133 461h-551l-131 -461h-174zM379 598h467l-221 772h-23zM473 1696q0 -60 42 -102t101 -42q60 0 101 42t41 102t-41 101.5 t-101 41.5t-101.5 -41.5t-41.5 -101.5z" />
<glyph unicode="&#xc6;" horiz-adv-x="1794" d="M-45 0l688 1481h1018v-140h-664v-495h465v-137h-465v-568h699v-141h-856v461h-512l-213 -461h-160zM389 598h451v743h-113z" />
<glyph unicode="&#xc7;" horiz-adv-x="1237" d="M94 741q0 357 149.5 560.5t407.5 203.5q206 0 334 -111.5t174 -330.5l-149 -39q-35 166 -124 254t-220 88q-195 0 -300.5 -164t-105.5 -467q0 -296 107 -457t303 -161q145 0 240.5 93.5t125.5 266.5l150 -33q-54 -234 -184.5 -351.5t-337.5 -117.5q-273 0 -421.5 199.5 t-148.5 566.5zM432 -336q74 -17 136.5 -26t109.5 -9q60 0 90.5 20.5t30.5 61.5q0 52 -33 75.5t-107 23.5q-20 0 -30.5 -0.5t-20.5 -1.5v192h74v-106h22q112 0 169 -45t57 -132q0 -89 -63 -135.5t-185 -46.5q-44 0 -103 10t-147 33v86z" />
<glyph unicode="&#xc8;" horiz-adv-x="1169" d="M199 0v1481h874v-140h-711v-495h504v-137h-504v-568h746v-141h-909zM403 1966h178l209 -348h-106z" />
<glyph unicode="&#xc9;" horiz-adv-x="1169" d="M199 0v1481h874v-140h-711v-495h504v-137h-504v-568h746v-141h-909zM516 1618l209 348h178l-281 -348h-106z" />
<glyph unicode="&#xca;" horiz-adv-x="1169" d="M199 0v1481h874v-140h-711v-495h504v-137h-504v-568h746v-141h-909zM366 1618l197 348h178l197 -348h-107l-178 242l-180 -242h-107z" />
<glyph unicode="&#xcb;" horiz-adv-x="1169" d="M199 0v1481h874v-140h-711v-495h504v-137h-504v-568h746v-141h-909zM413 1682v186h160v-186h-160zM733 1682v186h160v-186h-160z" />
<glyph unicode="&#xcc;" horiz-adv-x="584" d="M43 1966h178l209 -348h-106zM209 0v1481h166v-1481h-166z" />
<glyph unicode="&#xcd;" horiz-adv-x="584" d="M156 1618l209 348h178l-281 -348h-106zM209 0v1481h166v-1481h-166z" />
<glyph unicode="&#xce;" horiz-adv-x="584" d="M6 1618l197 348h178l197 -348h-107l-178 242l-180 -242h-107zM209 0v1481h166v-1481h-166z" />
<glyph unicode="&#xcf;" horiz-adv-x="584" d="M53 1682v186h160v-186h-160zM209 0v1481h166v-1481h-166zM373 1682v186h160v-186h-160z" />
<glyph unicode="&#xd0;" horiz-adv-x="1397" d="M0 717v119h207v645h350q170 0 278.5 -27.5t190.5 -89.5q124 -94 190 -254.5t66 -368.5q0 -369 -190.5 -555t-569.5 -186h-315v717h-207zM367 145h133q167 0 263.5 24t164.5 79q93 73 142.5 199t49.5 292q0 178 -48.5 306t-143.5 202q-67 52 -154 74t-252 22h-155v-507 h331v-119h-331v-572z" />
<glyph unicode="&#xd1;" horiz-adv-x="1464" d="M199 0v1481h233l680 -1155v1155h154v-1481h-127l-787 1311v-1311h-153zM442 1676q22 91 72.5 138.5t126.5 47.5q14 0 29 -2.5t30 -7.5l78 -27q17 -5 32.5 -7.5t28.5 -2.5q36 0 60.5 17.5t36.5 51.5h88q-24 -92 -75 -141t-124 -49q-16 0 -32 2.5t-33 7.5l-80 27 q-12 4 -25.5 6t-27.5 2q-35 0 -58.5 -15.5t-38.5 -47.5h-88z" />
<glyph unicode="&#xd2;" horiz-adv-x="1360" d="M94 741q0 349 159.5 556.5t426.5 207.5t426.5 -206.5t159.5 -557.5q0 -350 -159.5 -558t-426.5 -208q-266 0 -426 208t-160 558zM260 741q0 -294 111.5 -458t308.5 -164t308.5 164t111.5 458q0 295 -111.5 459t-308.5 164t-308.5 -164t-111.5 -459zM430 1966h178 l209 -348h-106z" />
<glyph unicode="&#xd3;" horiz-adv-x="1360" d="M94 741q0 349 159.5 556.5t426.5 207.5t426.5 -206.5t159.5 -557.5q0 -350 -159.5 -558t-426.5 -208q-266 0 -426 208t-160 558zM260 741q0 -294 111.5 -458t308.5 -164t308.5 164t111.5 458q0 295 -111.5 459t-308.5 164t-308.5 -164t-111.5 -459zM543 1618l209 348h178 l-281 -348h-106z" />
<glyph unicode="&#xd4;" horiz-adv-x="1360" d="M94 741q0 349 159.5 556.5t426.5 207.5t426.5 -206.5t159.5 -557.5q0 -350 -159.5 -558t-426.5 -208q-266 0 -426 208t-160 558zM260 741q0 -294 111.5 -458t308.5 -164t308.5 164t111.5 458q0 295 -111.5 459t-308.5 164t-308.5 -164t-111.5 -459zM393 1618l197 348h178 l197 -348h-107l-178 242l-180 -242h-107z" />
<glyph unicode="&#xd5;" horiz-adv-x="1360" d="M94 741q0 349 159.5 556.5t426.5 207.5t426.5 -206.5t159.5 -557.5q0 -350 -159.5 -558t-426.5 -208q-266 0 -426 208t-160 558zM260 741q0 -294 111.5 -458t308.5 -164t308.5 164t111.5 458q0 295 -111.5 459t-308.5 164t-308.5 -164t-111.5 -459zM389 1676 q22 91 72.5 138.5t126.5 47.5q14 0 29 -2.5t30 -7.5l78 -27q17 -5 32.5 -7.5t28.5 -2.5q36 0 60.5 17.5t36.5 51.5h88q-24 -92 -75 -141t-124 -49q-16 0 -32 2.5t-33 7.5l-80 27q-12 4 -25.5 6t-27.5 2q-35 0 -58.5 -15.5t-38.5 -47.5h-88z" />
<glyph unicode="&#xd6;" horiz-adv-x="1360" d="M94 741q0 349 159.5 556.5t426.5 207.5t426.5 -206.5t159.5 -557.5q0 -350 -159.5 -558t-426.5 -208q-266 0 -426 208t-160 558zM260 741q0 -294 111.5 -458t308.5 -164t308.5 164t111.5 458q0 295 -111.5 459t-308.5 164t-308.5 -164t-111.5 -459zM440 1682v186h160 v-186h-160zM760 1682v186h160v-186h-160z" />
<glyph unicode="&#xd7;" horiz-adv-x="1706" d="M301 135l475 475l-475 477l80 82l477 -477l475 477l82 -82l-475 -477l475 -475l-82 -82l-475 475l-477 -475z" />
<glyph unicode="&#xd8;" horiz-adv-x="1360" d="M86 -47l158 246q-76 112 -113 246t-37 296q0 350 160 557t426 207q99 0 180.5 -26.5t145.5 -79.5l110 172l113 -72l-125 -201q80 -101 121 -241t41 -316q0 -350 -159 -558t-425 -208q-106 0 -193 31t-153 92l-137 -217zM260 741q0 -113 20 -213.5t60 -191.5l592 930 q-51 49 -114 73.5t-138 24.5q-197 0 -308.5 -164t-111.5 -459zM412 233q48 -57 118 -85.5t162 -28.5q189 0 298.5 168.5t109.5 464.5q0 112 -23 213.5t-69 199.5z" />
<glyph unicode="&#xd9;" horiz-adv-x="1456" d="M195 500v981h161v-955q0 -100 9 -150.5t30 -90.5q41 -80 128 -124t204 -44q119 0 206 44t128 124q21 42 30 94.5t9 173.5v928h162v-981q0 -257 -136.5 -391t-398.5 -134q-263 0 -397.5 132.5t-134.5 392.5zM491 1966h178l209 -348h-106z" />
<glyph unicode="&#xda;" horiz-adv-x="1456" d="M195 500v981h161v-955q0 -100 9 -150.5t30 -90.5q41 -80 128 -124t204 -44q119 0 206 44t128 124q21 42 30 94.5t9 173.5v928h162v-981q0 -257 -136.5 -391t-398.5 -134q-263 0 -397.5 132.5t-134.5 392.5zM604 1618l209 348h178l-281 -348h-106z" />
<glyph unicode="&#xdb;" horiz-adv-x="1456" d="M195 500v981h161v-955q0 -100 9 -150.5t30 -90.5q41 -80 128 -124t204 -44q119 0 206 44t128 124q21 42 30 94.5t9 173.5v928h162v-981q0 -257 -136.5 -391t-398.5 -134q-263 0 -397.5 132.5t-134.5 392.5zM454 1618l197 348h178l197 -348h-107l-178 242l-180 -242h-107z " />
<glyph unicode="&#xdc;" horiz-adv-x="1456" d="M195 500v981h161v-955q0 -100 9 -150.5t30 -90.5q41 -80 128 -124t204 -44q119 0 206 44t128 124q21 42 30 94.5t9 173.5v928h162v-981q0 -257 -136.5 -391t-398.5 -134q-263 0 -397.5 132.5t-134.5 392.5zM501 1682v186h160v-186h-160zM821 1682v186h160v-186h-160z" />
<glyph unicode="&#xdd;" horiz-adv-x="1124" d="M31 1481h178l352 -684l354 684h179l-451 -856v-625h-162v625zM426 1618l209 348h178l-281 -348h-106z" />
<glyph unicode="&#xde;" d="M199 0v1481h159v-303h271q265 0 391.5 -98.5t126.5 -305.5q0 -198 -123.5 -307t-347.5 -109h-318v-358h-159zM358 498h252q202 0 285.5 64t83.5 214q0 141 -87.5 202.5t-293.5 61.5h-240v-542z" />
<glyph unicode="&#xdf;" horiz-adv-x="1083" d="M168 0v1092q0 183 101 286t280 103q175 0 273 -98t98 -273q0 -119 -50 -197t-139 -98q127 -25 201 -137t74 -281q0 -193 -97 -304t-264 -111q-55 0 -106 14.5t-99 44.5l62 119q38 -25 74 -37t69 -12q98 0 151.5 74.5t53.5 211.5q0 170 -87 253.5t-267 86.5v121 q137 8 205.5 70.5t68.5 179.5q0 114 -62 180t-169 66q-105 0 -162.5 -68t-57.5 -192v-1094h-151z" />
<glyph unicode="&#xe0;" horiz-adv-x="1034" d="M86 279q0 167 147 268t494 168v78q0 73 -60 120.5t-155 47.5q-87 0 -154 -43t-108 -125l-129 69q59 113 159.5 170.5t239.5 57.5q171 0 265 -83.5t94 -234.5v-598q0 -41 5.5 -81t16.5 -77v-16h-164l-16 145q-75 -81 -160 -121t-180 -40q-131 0 -213 82t-82 213zM233 276 q0 -73 47 -116t128 -43q68 0 146 40t173 124v294q-268 -54 -381 -123t-113 -176zM268 1550h178l209 -348h-106z" />
<glyph unicode="&#xe1;" horiz-adv-x="1034" d="M86 279q0 167 147 268t494 168v78q0 73 -60 120.5t-155 47.5q-87 0 -154 -43t-108 -125l-129 69q59 113 159.5 170.5t239.5 57.5q171 0 265 -83.5t94 -234.5v-598q0 -41 5.5 -81t16.5 -77v-16h-164l-16 145q-75 -81 -160 -121t-180 -40q-131 0 -213 82t-82 213zM233 276 q0 -73 47 -116t128 -43q68 0 146 40t173 124v294q-268 -54 -381 -123t-113 -176zM381 1202l209 348h178l-281 -348h-106z" />
<glyph unicode="&#xe2;" horiz-adv-x="1034" d="M86 279q0 167 147 268t494 168v78q0 73 -60 120.5t-155 47.5q-87 0 -154 -43t-108 -125l-129 69q59 113 159.5 170.5t239.5 57.5q171 0 265 -83.5t94 -234.5v-598q0 -41 5.5 -81t16.5 -77v-16h-164l-16 145q-75 -81 -160 -121t-180 -40q-131 0 -213 82t-82 213zM231 1202 l197 348h178l197 -348h-107l-178 242l-180 -242h-107zM233 276q0 -73 47 -116t128 -43q68 0 146 40t173 124v294q-268 -54 -381 -123t-113 -176z" />
<glyph unicode="&#xe3;" horiz-adv-x="1034" d="M86 279q0 167 147 268t494 168v78q0 73 -60 120.5t-155 47.5q-87 0 -154 -43t-108 -125l-129 69q59 113 159.5 170.5t239.5 57.5q171 0 265 -83.5t94 -234.5v-598q0 -41 5.5 -81t16.5 -77v-16h-164l-16 145q-75 -81 -160 -121t-180 -40q-131 0 -213 82t-82 213zM227 1260 q22 91 72.5 138.5t126.5 47.5q14 0 29 -2.5t30 -7.5l78 -27q17 -5 32.5 -7.5t28.5 -2.5q36 0 60.5 17.5t36.5 51.5h88q-24 -92 -75 -141t-124 -49q-16 0 -32 2.5t-33 7.5l-80 27q-12 4 -25.5 6t-27.5 2q-35 0 -58.5 -15.5t-38.5 -47.5h-88zM233 276q0 -73 47 -116t128 -43 q68 0 146 40t173 124v294q-268 -54 -381 -123t-113 -176z" />
<glyph unicode="&#xe4;" horiz-adv-x="1034" d="M86 279q0 167 147 268t494 168v78q0 73 -60 120.5t-155 47.5q-87 0 -154 -43t-108 -125l-129 69q59 113 159.5 170.5t239.5 57.5q171 0 265 -83.5t94 -234.5v-598q0 -41 5.5 -81t16.5 -77v-16h-164l-16 145q-75 -81 -160 -121t-180 -40q-131 0 -213 82t-82 213zM233 276 q0 -73 47 -116t128 -43q68 0 146 40t173 124v294q-268 -54 -381 -123t-113 -176zM278 1266v186h160v-186h-160zM598 1266v186h160v-186h-160z" />
<glyph unicode="&#xe5;" horiz-adv-x="1034" d="M86 279q0 167 147 268t494 168v78q0 73 -60 120.5t-155 47.5q-87 0 -154 -43t-108 -125l-129 69q59 113 159.5 170.5t239.5 57.5q171 0 265 -83.5t94 -234.5v-598q0 -41 5.5 -81t16.5 -77v-16h-164l-16 145q-75 -81 -160 -121t-180 -40q-131 0 -213 82t-82 213zM233 276 q0 -73 47 -116t128 -43q68 0 146 40t173 124v294q-268 -54 -381 -123t-113 -176zM301 1430q0 104 71.5 175.5t176.5 71.5q104 0 176 -71.5t72 -175.5q0 -105 -72 -176.5t-176 -71.5q-105 0 -176.5 71.5t-71.5 176.5zM406 1430q0 -60 41.5 -102t101.5 -42q59 0 100 41.5 t41 102.5q0 60 -41 101.5t-100 41.5q-61 0 -102 -41.5t-41 -101.5z" />
<glyph unicode="&#xe6;" horiz-adv-x="1608" d="M51 279q0 169 154.5 272.5t486.5 155.5v86q0 79 -57 124.5t-158 45.5q-87 0 -152.5 -42.5t-109.5 -127.5l-129 69q59 112 157 170t230 58q106 0 188.5 -36.5t141.5 -109.5q57 74 131.5 110t171.5 36q200 0 309 -142t109 -401v-41h-682v-31q0 -171 78.5 -266.5 t218.5 -95.5q98 0 174.5 48t124.5 140l108 -68q-63 -130 -166.5 -190.5t-261.5 -60.5q-131 0 -218.5 50.5t-141.5 157.5q-95 -107 -195 -157.5t-217 -50.5q-130 0 -212.5 82.5t-82.5 214.5zM201 276q0 -74 47 -118.5t127 -44.5q66 0 143.5 40.5t175.5 127.5v294 q-268 -54 -380.5 -123t-112.5 -176zM846 633h522q-3 154 -72 242t-186 88q-120 0 -189 -86.5t-75 -243.5z" />
<glyph unicode="&#xe7;" horiz-adv-x="961" d="M76 537q0 261 114 408t316 147q138 0 238.5 -75.5t148.5 -213.5l-148 -47q-31 99 -94.5 153t-148.5 54q-133 0 -204 -110t-71 -316q0 -212 71.5 -320t211.5 -108q85 0 158 56t120 159l125 -66q-65 -139 -166.5 -207.5t-240.5 -68.5q-210 0 -320 142t-110 413zM268 -336 q74 -17 136.5 -26t109.5 -9q60 0 90.5 20.5t30.5 61.5q0 52 -33 75.5t-107 23.5q-20 0 -30.5 -0.5t-20.5 -1.5v192h74v-106h22q112 0 169 -45t57 -132q0 -89 -63 -135.5t-185 -46.5q-44 0 -103 10t-147 33v86z" />
<glyph unicode="&#xe8;" horiz-adv-x="985" d="M78 537q0 258 111.5 405.5t306.5 147.5q198 0 307.5 -142t109.5 -397v-45h-682v-35q0 -166 79.5 -264t211.5 -98q101 0 179.5 49.5t125.5 142.5l109 -68q-63 -128 -168 -189.5t-260 -61.5q-209 0 -319.5 142t-110.5 413zM233 633h522q-2 153 -71.5 241.5t-185.5 88.5 q-120 0 -189 -86.5t-76 -243.5zM260 1550h178l209 -348h-106z" />
<glyph unicode="&#xe9;" horiz-adv-x="985" d="M78 537q0 258 111.5 405.5t306.5 147.5q198 0 307.5 -142t109.5 -397v-45h-682v-35q0 -166 79.5 -264t211.5 -98q101 0 179.5 49.5t125.5 142.5l109 -68q-63 -128 -168 -189.5t-260 -61.5q-209 0 -319.5 142t-110.5 413zM233 633h522q-2 153 -71.5 241.5t-185.5 88.5 q-120 0 -189 -86.5t-76 -243.5zM373 1202l209 348h178l-281 -348h-106z" />
<glyph unicode="&#xea;" horiz-adv-x="985" d="M78 537q0 258 111.5 405.5t306.5 147.5q198 0 307.5 -142t109.5 -397v-45h-682v-35q0 -166 79.5 -264t211.5 -98q101 0 179.5 49.5t125.5 142.5l109 -68q-63 -128 -168 -189.5t-260 -61.5q-209 0 -319.5 142t-110.5 413zM223 1202l197 348h178l197 -348h-107l-178 242 l-180 -242h-107zM233 633h522q-2 153 -71.5 241.5t-185.5 88.5q-120 0 -189 -86.5t-76 -243.5z" />
<glyph unicode="&#xeb;" horiz-adv-x="985" d="M78 537q0 258 111.5 405.5t306.5 147.5q198 0 307.5 -142t109.5 -397v-45h-682v-35q0 -166 79.5 -264t211.5 -98q101 0 179.5 49.5t125.5 142.5l109 -68q-63 -128 -168 -189.5t-260 -61.5q-209 0 -319.5 142t-110.5 413zM233 633h522q-2 153 -71.5 241.5t-185.5 88.5 q-120 0 -189 -86.5t-76 -243.5zM270 1266v186h160v-186h-160zM590 1266v186h160v-186h-160z" />
<glyph unicode="&#xec;" horiz-adv-x="508" d="M4 1550h178l209 -348h-106zM178 0v1071h152v-1071h-152z" />
<glyph unicode="&#xed;" horiz-adv-x="508" d="M117 1202l209 348h178l-281 -348h-106zM178 0v1071h152v-1071h-152z" />
<glyph unicode="&#xee;" horiz-adv-x="508" d="M-33 1202l197 348h178l197 -348h-107l-178 242l-180 -242h-107zM178 0v1071h152v-1071h-152z" />
<glyph unicode="&#xef;" horiz-adv-x="508" d="M14 1266v186h160v-186h-160zM178 0v1071h152v-1071h-152zM334 1266v186h160v-186h-160z" />
<glyph unicode="&#xf0;" horiz-adv-x="1030" d="M70 506q0 251 117 389.5t329 138.5q33 0 64 -4t63 -12q-40 55 -84.5 101t-93.5 83l-242 -147l-51 75l219 132q-55 38 -113.5 69.5t-119.5 57.5l45 114q85 -29 163.5 -69.5t151.5 -92.5l232 140l47 -74l-203 -125q184 -160 276.5 -353.5t92.5 -422.5q0 -251 -117 -387.5 t-330 -136.5q-212 0 -329 137t-117 387zM221 506q0 -197 76 -301.5t219 -104.5q142 0 217.5 104t75.5 302t-75 301.5t-218 103.5t-219 -104t-76 -301z" />
<glyph unicode="&#xf1;" horiz-adv-x="1098" d="M168 0v1071h137v-162q88 93 174 137t180 44q134 0 206.5 -78t72.5 -219v-793h-145v737q0 120 -40.5 172t-131.5 52q-80 0 -156 -40.5t-150 -121.5v-799h-147zM258 1260q22 91 72.5 138.5t126.5 47.5q14 0 29 -2.5t30 -7.5l78 -27q17 -5 32.5 -7.5t28.5 -2.5 q36 0 60.5 17.5t36.5 51.5h88q-24 -92 -75 -141t-124 -49q-16 0 -32 2.5t-33 7.5l-80 27q-12 4 -25.5 6t-27.5 2q-35 0 -58.5 -15.5t-38.5 -47.5h-88z" />
<glyph unicode="&#xf2;" horiz-adv-x="1030" d="M70 537q0 263 117 408t329 145t329.5 -145t117.5 -408q0 -264 -117.5 -409.5t-329.5 -145.5t-329 145.5t-117 409.5zM221 537q0 -210 76 -320.5t219 -110.5q142 0 217.5 110.5t75.5 318.5q0 209 -75 318.5t-218 109.5t-219 -109.5t-76 -316.5zM266 1550h178l209 -348 h-106z" />
<glyph unicode="&#xf3;" horiz-adv-x="1030" d="M70 537q0 263 117 408t329 145t329.5 -145t117.5 -408q0 -264 -117.5 -409.5t-329.5 -145.5t-329 145.5t-117 409.5zM221 537q0 -210 76 -320.5t219 -110.5q142 0 217.5 110.5t75.5 318.5q0 209 -75 318.5t-218 109.5t-219 -109.5t-76 -316.5zM379 1202l209 348h178 l-281 -348h-106z" />
<glyph unicode="&#xf4;" horiz-adv-x="1030" d="M70 537q0 263 117 408t329 145t329.5 -145t117.5 -408q0 -264 -117.5 -409.5t-329.5 -145.5t-329 145.5t-117 409.5zM221 537q0 -210 76 -320.5t219 -110.5q142 0 217.5 110.5t75.5 318.5q0 209 -75 318.5t-218 109.5t-219 -109.5t-76 -316.5zM229 1202l197 348h178 l197 -348h-107l-178 242l-180 -242h-107z" />
<glyph unicode="&#xf5;" horiz-adv-x="1030" d="M70 537q0 263 117 408t329 145t329.5 -145t117.5 -408q0 -264 -117.5 -409.5t-329.5 -145.5t-329 145.5t-117 409.5zM221 537q0 -210 76 -320.5t219 -110.5q142 0 217.5 110.5t75.5 318.5q0 209 -75 318.5t-218 109.5t-219 -109.5t-76 -316.5zM225 1260q22 91 72.5 138.5 t126.5 47.5q14 0 29 -2.5t30 -7.5l78 -27q17 -5 32.5 -7.5t28.5 -2.5q36 0 60.5 17.5t36.5 51.5h88q-24 -92 -75 -141t-124 -49q-16 0 -32 2.5t-33 7.5l-80 27q-12 4 -25.5 6t-27.5 2q-35 0 -58.5 -15.5t-38.5 -47.5h-88z" />
<glyph unicode="&#xf6;" horiz-adv-x="1030" d="M70 537q0 263 117 408t329 145t329.5 -145t117.5 -408q0 -264 -117.5 -409.5t-329.5 -145.5t-329 145.5t-117 409.5zM221 537q0 -210 76 -320.5t219 -110.5q142 0 217.5 110.5t75.5 318.5q0 209 -75 318.5t-218 109.5t-219 -109.5t-76 -316.5zM276 1266v186h160v-186 h-160zM596 1266v186h160v-186h-160z" />
<glyph unicode="&#xf7;" horiz-adv-x="1706" d="M254 553v117h1198v-117h-1198zM739 250q0 48 34 81.5t81 33.5t81 -34t34 -81t-33.5 -81t-81.5 -34t-81.5 33.5t-33.5 81.5zM739 971q0 47 34 80.5t81 33.5q48 0 81.5 -33.5t33.5 -80.5q0 -48 -33.5 -81.5t-81.5 -33.5q-49 0 -82 33.5t-33 81.5z" />
<glyph unicode="&#xf8;" horiz-adv-x="1030" d="M68 528q0 270 117 416t333 146q69 0 126 -15t106 -45l86 139l104 -65l-98 -156q60 -66 90.5 -171t30.5 -249q0 -260 -119 -403t-334 -143q-63 0 -120.5 15.5t-110.5 47.5l-101 -160l-104 66l112 178q-60 79 -89 177t-29 222zM221 526q0 -80 12.5 -146t38.5 -124l408 653 q-32 26 -72 39t-90 13q-147 0 -222 -109t-75 -326zM346 162q39 -28 80 -42t86 -14q148 0 222.5 111.5t74.5 335.5q0 86 -13 150t-40 116z" />
<glyph unicode="&#xf9;" horiz-adv-x="1098" d="M158 279v792h147v-737q0 -120 40.5 -171.5t131.5 -51.5q79 0 154 39.5t149 121.5v799h148v-1071h-135v162q-88 -93 -175 -136.5t-182 -43.5q-133 0 -205.5 77.5t-72.5 219.5zM299 1550h178l209 -348h-106z" />
<glyph unicode="&#xfa;" horiz-adv-x="1098" d="M158 279v792h147v-737q0 -120 40.5 -171.5t131.5 -51.5q79 0 154 39.5t149 121.5v799h148v-1071h-135v162q-88 -93 -175 -136.5t-182 -43.5q-133 0 -205.5 77.5t-72.5 219.5zM412 1202l209 348h178l-281 -348h-106z" />
<glyph unicode="&#xfb;" horiz-adv-x="1098" d="M158 279v792h147v-737q0 -120 40.5 -171.5t131.5 -51.5q79 0 154 39.5t149 121.5v799h148v-1071h-135v162q-88 -93 -175 -136.5t-182 -43.5q-133 0 -205.5 77.5t-72.5 219.5zM262 1202l197 348h178l197 -348h-107l-178 242l-180 -242h-107z" />
<glyph unicode="&#xfc;" horiz-adv-x="1098" d="M158 279v792h147v-737q0 -120 40.5 -171.5t131.5 -51.5q79 0 154 39.5t149 121.5v799h148v-1071h-135v162q-88 -93 -175 -136.5t-182 -43.5q-133 0 -205.5 77.5t-72.5 219.5zM309 1266v186h160v-186h-160zM629 1266v186h160v-186h-160z" />
<glyph unicode="&#xfd;" horiz-adv-x="938" d="M20 1071h152l311 -856l279 856h151l-366 -1089q-75 -220 -159.5 -296.5t-229.5 -76.5q-25 0 -49 3t-46 9l1 137q23 -5 44.5 -7.5t38.5 -2.5q110 0 167.5 60t91.5 210zM332 1202l209 348h178l-281 -348h-106z" />
<glyph unicode="&#xfe;" horiz-adv-x="1108" d="M168 -389v1870h147v-531q56 72 124 106t155 34q212 0 328 -146t116 -414q0 -266 -115 -407t-331 -141q-90 0 -158 32.5t-119 100.5v-504h-147zM315 268q61 -85 130 -124.5t157 -39.5q136 0 209.5 110t73.5 314q0 211 -74.5 323t-214.5 112q-91 0 -159 -39t-122 -121v-535 z" />
<glyph unicode="&#xff;" horiz-adv-x="938" d="M20 1071h152l311 -856l279 856h151l-366 -1089q-75 -220 -159.5 -296.5t-229.5 -76.5q-25 0 -49 3t-46 9l1 137q23 -5 44.5 -7.5t38.5 -2.5q110 0 167.5 60t91.5 210zM229 1266v186h160v-186h-160zM549 1266v186h160v-186h-160z" />
<glyph unicode="&#x152;" horiz-adv-x="1931" d="M94 741q0 363 148 563.5t413 200.5q111 0 198.5 -40t162.5 -126v142h819v-140h-664v-495h467v-137h-467v-568h699v-141h-854v154q-68 -91 -158.5 -135t-210.5 -44q-259 0 -406 203t-147 563zM260 741q0 -297 106 -460.5t298 -163.5q84 0 151 32t125 101q34 39 55 83.5 t21 74.5v659q0 34 -21.5 80.5t-56.5 87.5q-57 68 -121.5 98.5t-150.5 30.5q-194 0 -300 -162.5t-106 -460.5z" />
<glyph unicode="&#x153;" horiz-adv-x="1716" d="M70 537q0 262 117 406t329 144q128 0 219.5 -50.5t149.5 -153.5q56 102 141.5 153t200.5 51q197 0 306 -141t109 -397v-45h-681v-31q0 -172 78.5 -269.5t217.5 -97.5q99 0 176.5 49.5t125.5 141.5l106 -68q-62 -127 -165.5 -189.5t-254.5 -62.5q-135 0 -221.5 49 t-146.5 160q-61 -105 -151.5 -157t-215.5 -52q-206 0 -323 148t-117 412zM221 537q0 -210 76 -320.5t219 -110.5q142 0 217.5 110.5t75.5 318.5t-74.5 317t-218.5 109t-219.5 -108.5t-75.5 -315.5zM965 629h522q-4 155 -73 243.5t-185 88.5q-120 0 -189 -87t-75 -245z" />
<glyph unicode="&#x178;" horiz-adv-x="1124" d="M31 1481h178l352 -684l354 684h179l-451 -856v-625h-162v625zM323 1682v186h160v-186h-160zM643 1682v186h160v-186h-160z" />
<glyph unicode="&#x2c6;" horiz-adv-x="1024" d="M225 1202l197 348h178l197 -348h-107l-178 242l-180 -242h-107z" />
<glyph unicode="&#x2dc;" horiz-adv-x="1024" d="M221 1260q22 91 72.5 138.5t126.5 47.5q14 0 29 -2.5t30 -7.5l78 -27q17 -5 32.5 -7.5t28.5 -2.5q36 0 60.5 17.5t36.5 51.5h88q-24 -92 -75 -141t-124 -49q-16 0 -32 2.5t-33 7.5l-80 27q-12 4 -25.5 6t-27.5 2q-35 0 -58.5 -15.5t-38.5 -47.5h-88z" />
<glyph unicode="&#x2000;" horiz-adv-x="983" />
<glyph unicode="&#x2001;" horiz-adv-x="1966" />
<glyph unicode="&#x2002;" horiz-adv-x="983" />
<glyph unicode="&#x2003;" horiz-adv-x="1966" />
<glyph unicode="&#x2004;" horiz-adv-x="655" />
<glyph unicode="&#x2005;" horiz-adv-x="491" />
<glyph unicode="&#x2006;" horiz-adv-x="327" />
<glyph unicode="&#x2007;" horiz-adv-x="327" />
<glyph unicode="&#x2008;" horiz-adv-x="245" />
<glyph unicode="&#x2009;" horiz-adv-x="393" />
<glyph unicode="&#x200a;" horiz-adv-x="109" />
<glyph unicode="&#x2010;" horiz-adv-x="676" d="M84 467v137h500v-137h-500z" />
<glyph unicode="&#x2011;" horiz-adv-x="676" d="M84 467v137h500v-137h-500z" />
<glyph unicode="&#x2012;" horiz-adv-x="676" d="M84 467v137h500v-137h-500z" />
<glyph unicode="&#x2013;" horiz-adv-x="1024" d="M0 481v107h1024v-107h-1024z" />
<glyph unicode="&#x2014;" horiz-adv-x="2048" d="M0 481v107h2048v-107h-2048z" />
<glyph unicode="&#x2018;" horiz-adv-x="473" d="M141 952v226l127 303h103l-111 -312h80v-217h-199z" />
<glyph unicode="&#x2019;" horiz-adv-x="473" d="M102 952l111 314h-78v215h197v-224l-127 -305h-103z" />
<glyph unicode="&#x201a;" horiz-adv-x="473" d="M104 -305l111 305h-80v223h199v-229l-127 -299h-103z" />
<glyph unicode="&#x201c;" horiz-adv-x="829" d="M141 952v226l127 303h103l-111 -312h80v-217h-199zM504 952v226l127 303h102l-110 -312h79v-217h-198z" />
<glyph unicode="&#x201d;" horiz-adv-x="829" d="M102 952l111 314h-78v215h197v-224l-127 -305h-103zM459 952l110 314h-80v215h199v-224l-127 -305h-102z" />
<glyph unicode="&#x201e;" horiz-adv-x="829" d="M102 -311l111 311h-78v217h197v-223l-127 -305h-103zM459 -311l110 311h-80v217h199v-223l-127 -305h-102z" />
<glyph unicode="&#x2022;" horiz-adv-x="1208" d="M307 762q0 123 87 209t210 86q122 0 208.5 -86.5t86.5 -208.5t-87.5 -209.5t-209.5 -87.5q-123 0 -209 87t-86 210z" />
<glyph unicode="&#x2026;" horiz-adv-x="2048" d="M242 0v225h199v-225h-199zM924 0v225h199v-225h-199zM1608 0v225h199v-225h-199z" />
<glyph unicode="&#x202f;" horiz-adv-x="393" />
<glyph unicode="&#x2039;" horiz-adv-x="702" d="M117 537l260 315h155l-258 -315l254 -320h-163z" />
<glyph unicode="&#x203a;" horiz-adv-x="702" d="M160 217l256 315l-252 320h162l249 -320l-260 -315h-155z" />
<glyph unicode="&#x205f;" horiz-adv-x="491" />
<glyph unicode="&#x20ac;" d="M0 559l27 94h129q-1 14 -2 37q-2 38 -2 49q0 21 1.5 48.5t3.5 60.5h-157l27 94h139q32 271 163 416t343 145q175 0 284 -99t158 -302l-137 -39q-43 153 -121 230t-190 77q-143 0 -233 -112t-109 -316h567l-27 -94h-550q-4 -36 -5.5 -63.5t-1.5 -47.5q0 -11 3 -52 q1 -20 1 -32h494l-29 -94h-457q25 -216 116.5 -333t236.5 -117q124 0 208.5 87t118.5 253l138 -33q-48 -222 -163.5 -331.5t-301.5 -109.5q-215 0 -345.5 150t-162.5 434h-164z" />
<glyph unicode="&#x2122;" horiz-adv-x="1706" d="M254 1389v67h440v-67h-172v-467h-94v467h-174zM819 922v534h129l160 -405l149 405h132v-534h-82v458l-172 -458h-54l-180 458v-458h-82z" />
<glyph unicode="&#x25fc;" horiz-adv-x="1070" d="M0 0v1070h1070v-1070h-1070z" />
<glyph unicode="&#xfb01;" horiz-adv-x="1036" d="M6 944v127h180v152q0 140 62 209t188 69q28 0 60 -4.5t71 -13.5v-123q-31 7 -58.5 10.5t-51.5 3.5q-62 0 -92.5 -35t-30.5 -104v-164h225v-127h-225v-944h-148v944h-180zM702 1300v181h177v-181h-177zM715 0v1071h149v-1071h-149z" />
<glyph unicode="&#xfb02;" horiz-adv-x="1036" d="M6 944v127h180v152q0 140 62 209t188 69q28 0 60 -4.5t71 -13.5v-123q-31 7 -58.5 10.5t-51.5 3.5q-62 0 -92.5 -35t-30.5 -104v-164h225v-127h-225v-944h-148v944h-180zM719 0v1481h151v-1481h-151z" />
</font>
</defs>
</svg>
