<?xml version="1.0" encoding="utf-8"?>
<!-- Generator: Adobe Illustrator 18.0.0, SVG Export Plug-In . SVG Version: 6.00 Build 0)  -->
<!DOCTYPE svg PUBLIC "-//W3C//DTD SVG 1.1//EN" "http://www.w3.org/Graphics/SVG/1.1/DTD/svg11.dtd">
<svg version="1.1" id="Camada_1" xmlns="http://www.w3.org/2000/svg" xmlns:xlink="http://www.w3.org/1999/xlink" x="0px" y="0px"
	 viewBox="0 0 214 35" enable-background="new 0 0 214 35" xml:space="preserve">
<path fill="#67B22E" d="M74.4,3.8V1.2c0-0.5-0.3-0.8-0.8-0.8h-8.5c-0.5,0-0.8,0.3-0.8,0.8v2.5c0,0.5,0.3,0.8,0.8,0.8h8.5
	C74.1,4.6,74.4,4.3,74.4,3.8L74.4,3.8z M63.7,3.8V1.2c0-0.5-0.3-0.8-0.8-0.8h-8.3c-0.6,0-0.9,0.3-0.9,0.8v2.5c0,0.5,0.3,0.8,0.9,0.8
	h8.3C63.4,4.6,63.7,4.3,63.7,3.8L63.7,3.8z M85,3.8V1.2c0-0.5-0.3-0.8-0.8-0.8h-8.3c-0.5,0-0.8,0.3-0.8,0.8v2.5
	c0,0.5,0.3,0.8,0.8,0.8h8.3C84.7,4.6,85,4.3,85,3.8L85,3.8z M68.8,8.8V6.3c0-0.6-0.3-0.9-0.8-0.9h-8.3c-0.6,0-0.9,0.3-0.9,0.9v2.5
	c0,0.5,0.3,0.8,0.9,0.8H68C68.6,9.6,68.8,9.3,68.8,8.8L68.8,8.8z M79.7,8.8V6.3c0-0.6-0.3-0.9-0.9-0.9h-8.3c-0.5,0-0.8,0.3-0.8,0.9
	v2.5c0,0.5,0.3,0.8,0.8,0.8h8.3C79.4,9.6,79.7,9.3,79.7,8.8L79.7,8.8z M74.4,14v-2.5c0-0.5-0.3-0.8-0.9-0.8h-8.3
	c-0.5,0-0.8,0.3-0.8,0.8V14c0,0.6,0.3,0.9,0.8,0.9h8.3C74.1,14.9,74.4,14.6,74.4,14L74.4,14z M85,14v-2.5c0-0.5-0.3-0.8-0.8-0.8
	h-8.3c-0.5,0-0.8,0.3-0.8,0.8V14c0,0.6,0.3,0.9,0.8,0.9h8.3C84.7,14.9,85,14.6,85,14L85,14z M63.7,14v-2.5c0-0.5-0.3-0.8-0.8-0.8
	h-8.3c-0.6,0-0.9,0.3-0.9,0.8V14c0,0.6,0.3,0.9,0.9,0.9h8.3C63.4,14.9,63.7,14.6,63.7,14L63.7,14z M68.8,19v-2.4
	c0-0.6-0.3-0.9-0.8-0.9h-8.3c-0.6,0-0.9,0.3-0.9,0.9V19c0,0.6,0.3,0.9,0.9,0.9H68C68.6,19.9,68.8,19.6,68.8,19L68.8,19z M79.7,19
	v-2.4c0-0.6-0.3-0.9-0.9-0.9h-8.3c-0.5,0-0.8,0.3-0.8,0.9V19c0,0.6,0.3,0.9,0.8,0.9h8.3C79.4,19.9,79.7,19.6,79.7,19L79.7,19z
	 M74.4,24.1v-2.5c0-0.5-0.3-0.8-0.8-0.8h-8.5c-0.5,0-0.8,0.3-0.8,0.8v2.5c0,0.5,0.3,0.8,0.8,0.8h8.5C74.1,24.9,74.4,24.7,74.4,24.1
	L74.4,24.1z M63.7,24.1v-2.5c0-0.5-0.3-0.8-0.8-0.8h-8.3c-0.6,0-0.9,0.3-0.9,0.8v2.5c0,0.5,0.3,0.8,0.9,0.8h8.3
	C63.4,24.9,63.7,24.7,63.7,24.1L63.7,24.1z M85,24.1v-2.5c0-0.5-0.3-0.8-0.8-0.8h-8.3c-0.5,0-0.8,0.3-0.8,0.8v2.5
	c0,0.5,0.3,0.8,0.8,0.8h8.3C84.7,24.9,85,24.7,85,24.1L85,24.1z M68.8,29.2v-2.5c0-0.6-0.3-0.9-0.8-0.9h-8.3c-0.6,0-0.9,0.3-0.9,0.9
	v2.5c0,0.5,0.3,0.8,0.9,0.8H68C68.6,30,68.8,29.7,68.8,29.2L68.8,29.2z M79.7,29.2v-2.5c0-0.6-0.3-0.9-0.9-0.9h-8.3
	c-0.5,0-0.8,0.3-0.8,0.9v2.5c0,0.5,0.3,0.8,0.8,0.8h8.3C79.4,30,79.7,29.7,79.7,29.2L79.7,29.2z M74.4,34.2v-2.5
	c0-0.5-0.3-0.8-0.8-0.8h-8.5c-0.5,0-0.8,0.3-0.8,0.8v2.5c0,0.5,0.3,0.8,0.8,0.8h8.5C74.1,35,74.4,34.7,74.4,34.2L74.4,34.2z
	 M63.7,34.2v-2.5c0-0.5-0.3-0.8-0.8-0.8h-8.3c-0.6,0-0.9,0.3-0.9,0.8v2.5c0,0.5,0.3,0.8,0.9,0.8h8.3C63.4,35,63.7,34.7,63.7,34.2
	L63.7,34.2z M85,34.2v-2.5c0-0.5-0.3-0.8-0.8-0.8h-8.3c-0.5,0-0.8,0.3-0.8,0.8v2.5c0,0.5,0.3,0.8,0.8,0.8h8.3
	C84.7,35,85,34.7,85,34.2L85,34.2z M20.8,3.8V1.2c0-0.5-0.3-0.8-0.8-0.8h-8.3c-0.6,0-0.9,0.3-0.9,0.8v2.5c0,0.5,0.3,0.8,0.9,0.8H20
	C20.5,4.6,20.8,4.3,20.8,3.8L20.8,3.8z M31.5,3.8V1.2c0-0.5-0.3-0.8-0.9-0.8h-8.3c-0.5,0-0.8,0.3-0.8,0.8v2.5c0,0.5,0.3,0.8,0.8,0.8
	h8.3C31.2,4.6,31.5,4.3,31.5,3.8L31.5,3.8z M15.2,8.8V6.3c0-0.6-0.3-0.9-0.8-0.9H6.1c-0.5,0-0.8,0.3-0.8,0.9v2.5
	c0,0.5,0.3,0.8,0.8,0.8h8.3C15,9.6,15.2,9.3,15.2,8.8L15.2,8.8z M26.1,8.8V6.3c0-0.6-0.3-0.9-0.8-0.9h-8.5c-0.5,0-0.8,0.3-0.8,0.9
	v2.5c0,0.5,0.3,0.8,0.8,0.8h8.5C25.8,9.6,26.1,9.3,26.1,8.8L26.1,8.8z M20.8,14v-2.5c0-0.5-0.3-0.8-0.9-0.8h-8.3
	c-0.5,0-0.8,0.3-0.8,0.8V14c0,0.6,0.3,0.9,0.8,0.9h8.3C20.5,14.9,20.8,14.6,20.8,14L20.8,14z M31.5,14v-2.5c0-0.5-0.3-0.8-0.9-0.8
	h-8.3c-0.5,0-0.8,0.3-0.8,0.8V14c0,0.6,0.3,0.9,0.8,0.9h8.3C31.2,14.9,31.5,14.6,31.5,14L31.5,14z M10.1,14v-2.5
	c0-0.5-0.3-0.8-0.8-0.8H0.9c-0.5,0-0.8,0.3-0.8,0.8V14c0,0.6,0.3,0.9,0.8,0.9h8.3C9.8,14.9,10.1,14.6,10.1,14L10.1,14z M15.2,19
	v-2.4c0-0.6-0.3-0.9-0.8-0.9H6.1c-0.5,0-0.8,0.3-0.8,0.9V19c0,0.6,0.3,0.9,0.8,0.9h8.3C15,19.9,15.2,19.6,15.2,19L15.2,19z M26.1,19
	v-2.4c0-0.6-0.3-0.9-0.8-0.9h-8.5c-0.5,0-0.8,0.3-0.8,0.9V19c0,0.6,0.3,0.9,0.8,0.9h8.5C25.8,19.9,26.1,19.6,26.1,19L26.1,19z
	 M20.8,24.1v-2.5c0-0.5-0.3-0.8-0.8-0.8h-8.3c-0.6,0-0.9,0.3-0.9,0.8v2.5c0,0.5,0.3,0.8,0.9,0.8H20C20.5,24.9,20.8,24.7,20.8,24.1
	L20.8,24.1z M10.1,24.1v-2.5c0-0.5-0.3-0.8-0.8-0.8H0.9c-0.6,0-0.9,0.3-0.9,0.8v2.5c0,0.5,0.3,0.8,0.9,0.8h8.3
	C9.8,24.9,10.1,24.7,10.1,24.1L10.1,24.1z M31.5,24.1v-2.5c0-0.5-0.3-0.8-0.9-0.8h-8.3c-0.5,0-0.8,0.3-0.8,0.8v2.5
	c0,0.5,0.3,0.8,0.8,0.8h8.3C31.2,24.9,31.5,24.7,31.5,24.1L31.5,24.1z M15.2,29.2v-2.5c0-0.6-0.3-0.9-0.8-0.9H6.1
	c-0.5,0-0.8,0.3-0.8,0.9v2.5c0,0.5,0.3,0.8,0.8,0.8h8.3C15,30,15.2,29.7,15.2,29.2L15.2,29.2z M26.1,29.2v-2.5
	c0-0.6-0.3-0.9-0.8-0.9h-8.5c-0.5,0-0.8,0.3-0.8,0.9v2.5c0,0.5,0.3,0.8,0.8,0.8h8.5C25.8,30,26.1,29.7,26.1,29.2L26.1,29.2z
	 M20.8,34.2v-2.5c0-0.5-0.3-0.8-0.8-0.8h-8.3c-0.6,0-0.9,0.3-0.9,0.8v2.5c0,0.5,0.3,0.8,0.9,0.8H20C20.5,35,20.8,34.7,20.8,34.2
	L20.8,34.2z M31.5,34.2v-2.5c0-0.5-0.3-0.8-0.9-0.8h-8.3c-0.5,0-0.8,0.3-0.8,0.8v2.5c0,0.5,0.3,0.8,0.8,0.8h8.3
	C31.2,35,31.5,34.7,31.5,34.2L31.5,34.2z M42.4,3.8V1.2c0-0.5-0.3-0.8-0.8-0.8h-8.5c-0.5,0-0.8,0.3-0.8,0.8v2.5
	c0,0.5,0.3,0.8,0.8,0.8h8.5C42.1,4.6,42.4,4.3,42.4,3.8L42.4,3.8z M53,3.8V1.2c0-0.5-0.3-0.8-0.8-0.8h-8.3c-0.5,0-0.8,0.3-0.8,0.8
	v2.5c0,0.5,0.3,0.8,0.8,0.8h8.3C52.7,4.6,53,4.3,53,3.8L53,3.8z M36.7,8.8V6.3c0-0.6-0.3-0.9-0.9-0.9h-8.3c-0.5,0-0.8,0.3-0.8,0.9
	v2.5c0,0.5,0.3,0.8,0.8,0.8h8.3C36.4,9.6,36.7,9.3,36.7,8.8L36.7,8.8z M47.4,8.8V6.3c0-0.6-0.3-0.9-0.9-0.9h-8.3
	c-0.5,0-0.8,0.3-0.8,0.9v2.5c0,0.5,0.3,0.8,0.8,0.8h8.3C47.1,9.6,47.4,9.3,47.4,8.8L47.4,8.8z M58.1,8.8V6.3c0-0.6-0.3-0.9-0.8-0.9
	h-8.5c-0.5,0-0.8,0.3-0.8,0.9v2.5c0,0.5,0.3,0.8,0.8,0.8h8.5C57.9,9.6,58.1,9.3,58.1,8.8L58.1,8.8z M43,31.7v2.5
	c0,0.5,0.3,0.8,0.8,0.8h8.3c0.5,0,0.8-0.3,0.8-0.8v-2.5c0-0.5-0.3-0.8-0.8-0.8h-8.3C43.3,30.9,43,31.2,43,31.7L43,31.7z M32.2,31.7
	v2.5c0,0.5,0.3,0.8,0.8,0.8h8.5c0.5,0,0.8-0.3,0.8-0.8v-2.5c0-0.5-0.3-0.8-0.8-0.8H33C32.4,30.9,32.2,31.2,32.2,31.7L32.2,31.7z
	 M37.5,26.7v2.5c0,0.5,0.3,0.8,0.8,0.8h8.3c0.6,0,0.9-0.3,0.9-0.8v-2.5c0-0.6-0.3-0.9-0.9-0.9h-8.3C37.7,25.7,37.5,26,37.5,26.7
	L37.5,26.7z M48.2,26.7v2.5c0,0.5,0.3,0.8,0.8,0.8h8.3c0.6,0,0.9-0.3,0.9-0.8v-2.5c0-0.6-0.3-0.9-0.9-0.9H49
	C48.5,25.7,48.2,26,48.2,26.7L48.2,26.7z M26.7,26.7v2.5c0,0.5,0.3,0.8,0.9,0.8H36c0.5,0,0.8-0.3,0.8-0.8v-2.5
	c0-0.6-0.3-0.9-0.8-0.9h-8.3C27.1,25.7,26.7,26,26.7,26.7L26.7,26.7z"/>
<path fill-rule="evenodd" clip-rule="evenodd" fill="#67B22E" d="M38.5,0h158c9.7,0,17.5,7.8,17.5,17.5S206.2,35,196.5,35h-158
	C28.8,35,21,27.2,21,17.5S28.8,0,38.5,0z"/>
<path fill-rule="evenodd" clip-rule="evenodd" fill="#55AB32" d="M45.5,0h149.3c10,0,10,2.5,17.1,9.4c3.8,3.8-14.6,5.9-18.9,7.4
	l-148.4,1C27.4,14.4,16,15.2,25.2,6.7C32.2,0.1,32.8-0.1,45.5,0z"/>
<g>
	<path fill="#FFFFFF" d="M60.4,15.2c0,2.8-1.8,4.5-4.6,4.5h-4.9v5.5c0,0.2-0.1,0.3-0.3,0.3h-0.4c-0.2,0-0.3-0.1-0.3-0.3V10.9
		c0-0.2,0.1-0.3,0.3-0.3h5.6C58.6,10.6,60.4,12.3,60.4,15.2z M59.4,15.2c0-2.3-1.4-3.6-3.7-3.6h-4.8v7.2h4.8
		C58,18.8,59.4,17.4,59.4,15.2z"/>
	<path fill="#FFFFFF" d="M67.6,10.3c3.6,0,5.6,2,5.6,5.1v5.1c0,3.2-2,5.1-5.6,5.1c-3.7,0-5.6-2-5.6-5.1v-5.1
		C62,12.3,63.9,10.3,67.6,10.3z M67.6,11.2c-3,0-4.7,1.6-4.7,4.2v5.1c0,2.7,1.6,4.2,4.7,4.2c3,0,4.6-1.6,4.6-4.2v-5.1
		C72.2,12.8,70.6,11.2,67.6,11.2z"/>
	<path fill="#FFFFFF" d="M86.2,14.8c0,2.4-1.4,3.8-3.7,4c0.8,0.3,1.3,0.9,1.7,1.7l2.3,4.6c0.1,0.1,0.1,0.3-0.1,0.3H86
		c-0.3,0-0.4,0-0.5-0.2l-2.2-4.3c-0.7-1.4-1.5-2-3.2-2h-3.4v6.2c0,0.2-0.1,0.3-0.3,0.3H76c-0.2,0-0.3-0.1-0.3-0.3V10.9
		c0-0.2,0.1-0.3,0.3-0.3h6C84.6,10.6,86.2,12.1,86.2,14.8z M81.9,11.5h-5.2V18h5.2c2.1,0,3.3-1.1,3.3-3.2
		C85.2,12.7,84,11.5,81.9,11.5z"/>
	<path fill="#FFFFFF" d="M99.6,26.4l-0.3,0.2c-0.1,0.1-0.2,0.1-0.4,0l-1.6-1.9c-0.9,0.6-2.1,1-3.6,1c-3.7,0-5.6-2-5.6-5.1v-5.1
		c0-3.2,2-5.1,5.6-5.1c3.6,0,5.6,2,5.6,5.1v5.1c0,1.5-0.4,2.7-1.3,3.6l1.5,1.8C99.8,26.1,99.8,26.2,99.6,26.4z M93.8,24.8
		c3,0,4.6-1.6,4.6-4.2v-5.1c0-2.7-1.6-4.2-4.6-4.2c-3,0-4.7,1.6-4.7,4.2v5.1C89.2,23.2,90.8,24.8,93.8,24.8z"/>
	<path fill="#FFFFFF" d="M107.5,24.8c3,0,4.5-1.7,4.5-4.4v-9.5c0-0.2,0.1-0.3,0.2-0.3h0.5c0.2,0,0.3,0.1,0.3,0.3v9.5
		c0,3.2-1.8,5.3-5.5,5.3c-3.7,0-5.5-2.1-5.5-5.3v-9.5c0-0.2,0.1-0.3,0.3-0.3h0.4c0.2,0,0.3,0.1,0.3,0.3v9.5
		C103,23.1,104.5,24.8,107.5,24.8z"/>
	<path fill="#FFFFFF" d="M124.9,10.9v0.4c0,0.2-0.1,0.3-0.3,0.3h-7.8v6h6.9c0.2,0,0.3,0.1,0.3,0.3v0.4c0,0.2-0.1,0.3-0.3,0.3h-6.9
		v6.1h8.1c0.2,0,0.3,0.1,0.3,0.2v0.4c0,0.2-0.1,0.3-0.3,0.3h-8.8c-0.2,0-0.3-0.1-0.3-0.3V10.9c0-0.2,0.1-0.3,0.3-0.3h8.5
		C124.9,10.6,124.9,10.7,124.9,10.9z M121,7l2.8,2.3c0.1,0.1,0.1,0.2-0.1,0.2h-0.4c-0.2,0-0.3,0-0.4-0.1l-2.4-2l-2.4,2
		c-0.1,0.1-0.2,0.1-0.4,0.1h-0.4c-0.2,0-0.2-0.1-0.1-0.2l2.8-2.3c0.2-0.2,0.3-0.2,0.5-0.2h0.1C120.7,6.7,120.8,6.7,121,7z"/>
	<path fill="#FFFFFF" d="M137.4,24.8c3,0,4.5-1.7,4.5-4.4v-9.5c0-0.2,0.1-0.3,0.2-0.3h0.5c0.2,0,0.3,0.1,0.3,0.3v9.5
		c0,3.2-1.8,5.3-5.5,5.3c-3.7,0-5.5-2.1-5.5-5.3v-9.5c0-0.2,0.1-0.3,0.3-0.3h0.4c0.2,0,0.3,0.1,0.3,0.3v9.5
		C132.9,23.1,134.3,24.8,137.4,24.8z"/>
	<path fill="#FFFFFF" d="M150.4,10.3c2.8,0,4.4,1,5.5,3.2c0.1,0.2,0,0.3-0.1,0.4l-0.4,0.2c-0.2,0.1-0.2,0.1-0.3-0.1
		c-0.9-1.9-2.2-2.7-4.6-2.7c-2.7,0-4.2,1.2-4.2,3.2c0,2.5,2.3,2.9,4.7,3.1c2.5,0.3,5.2,0.7,5.2,3.9c0,2.7-1.9,4.2-5.5,4.2
		c-2.9,0-4.6-1.2-5.6-3.6c-0.1-0.2-0.1-0.3,0.1-0.4l0.4-0.1c0.2-0.1,0.3,0,0.4,0.2c0.9,2.1,2.4,3.1,4.7,3.1c3,0,4.5-1.1,4.5-3.3
		c0-2.5-2.2-2.8-4.4-3c-2.6-0.3-5.4-0.8-5.4-4C145.2,11.9,147.1,10.3,150.4,10.3z"/>
	<path fill="#FFFFFF" d="M169,25.4h-0.4c-0.3,0-0.4,0-0.5-0.2l-1.9-4.6h-6.9l-1.8,4.6c-0.1,0.2-0.2,0.2-0.5,0.2h-0.4
		c-0.2,0-0.3-0.1-0.2-0.3l5.8-14.4c0.1-0.2,0.2-0.2,0.4-0.2h0.4c0.2,0,0.3,0.1,0.4,0.2l5.8,14.4C169.3,25.3,169.2,25.4,169,25.4z
		 M162.9,11.5L162.9,11.5c-0.1,0.1-0.1,0.5-0.2,0.9l-3,7.4h6.4l-3-7.4C162.9,12,162.9,11.6,162.9,11.5z"/>
	<path fill="#FFFFFF" d="M181.2,14.8c0,2.4-1.4,3.8-3.7,4c0.8,0.3,1.3,0.9,1.7,1.7l2.3,4.6c0.1,0.1,0.1,0.3-0.1,0.3h-0.4
		c-0.3,0-0.4,0-0.5-0.2l-2.2-4.3c-0.7-1.4-1.5-2-3.2-2h-3.4v6.2c0,0.2-0.1,0.3-0.3,0.3H171c-0.2,0-0.3-0.1-0.3-0.3V10.9
		c0-0.2,0.1-0.3,0.3-0.3h6C179.6,10.6,181.2,12.1,181.2,14.8z M176.9,11.5h-5.2V18h5.2c2.1,0,3.3-1.1,3.3-3.2
		C180.2,12.7,179,11.5,176.9,11.5z"/>
	<path fill="#FFFFFF" d="M187.8,10c3.1,0,4.9,1.9,4.9,4.3c0,2.8-1.6,3.8-3,4.7c-1.1,0.7-2.1,1.5-2.1,3.2c0,0.2-0.1,0.3-0.3,0.3H187
		c-0.2,0-0.3-0.1-0.3-0.3c0-2.2,1.2-3,2.4-3.9c1.3-0.9,2.6-1.7,2.6-4.1c0-1.9-1.4-3.5-4-3.5c-2.4,0-3.6,1.2-4.3,2.9
		c-0.1,0.2-0.1,0.2-0.3,0.2l-0.4-0.1c-0.2-0.1-0.2-0.1-0.1-0.3C183.4,11.5,184.9,10,187.8,10z M187.8,24.8V25c0,0.4-0.1,0.6-0.6,0.6
		h-0.1c-0.4,0-0.6-0.1-0.6-0.6v-0.1c0-0.4,0.1-0.6,0.6-0.6h0.1C187.7,24.3,187.8,24.4,187.8,24.8z"/>
</g>
</svg>
