<?xml version="1.0" encoding="utf-8"?>
<!-- Generator: Adobe Illustrator 18.0.0, SVG Export Plug-In . SVG Version: 6.00 Build 0)  -->
<!DOCTYPE svg PUBLIC "-//W3C//DTD SVG 1.1//EN" "http://www.w3.org/Graphics/SVG/1.1/DTD/svg11.dtd">
<svg version="1.1" id="Camada_1" xmlns="http://www.w3.org/2000/svg" xmlns:xlink="http://www.w3.org/1999/xlink" x="0px" y="0px"
	 viewBox="0 0 152.3 170.3" enable-background="new 0 0 152.3 170.3" xml:space="preserve">
<path fill-rule="evenodd" clip-rule="evenodd" fill="#67B22E" d="M75.2,1c24.6,0,44.5,19.9,44.5,44.5S99.7,90,75.2,90
	c-24.6,0-44.5-19.9-44.5-44.5S50.6,1,75.2,1z"/>
<path fill="#539032" d="M75.8,90L49.7,60.3l-2.6-10.2l1.1-13.6l7.9-12l16.4-7.3l12.9,1.9l5.4,1.6l28.9,27l-1.3,8.7l-2.6,7.6
	l-3.4,6.1l-7.3,8.6l-6.9,5l-7.8,3.7c0,0-8.5,2.2-8.5,2.2L75.8,90z"/>
<path fill-rule="evenodd" clip-rule="evenodd" fill="none" stroke="#FFFFFF" stroke-width="3" stroke-miterlimit="10" d="M75.1,17.2
	c15.7,0,28.4,12.7,28.4,28.4S90.8,74,75.1,74S46.7,61.3,46.7,45.6S59.4,17.2,75.1,17.2z"/>
<path fill-rule="evenodd" clip-rule="evenodd" fill="#FFFFFF" stroke="#FFFFFF" stroke-width="3" stroke-miterlimit="10" d="
	M54.7,63l39-39"/>
<path fill="#FFFFFF" d="M75.6,23.3c-0.1-0.5-0.8-0.5-0.8,0c-1.8,15.2-11.1,18.3-11.1,28.9c0,6.5,5.3,11.8,11.5,11.8
	c6.2,0,11.5-5.3,11.5-11.8C86.7,41.6,77.4,38.5,75.6,23.3z M73.8,40.1c-0.1,0.5-0.3,0.9-0.4,1.4c-0.8,3-1.8,6.5-1.8,10.5
	c0,2.2-1.2,2.9-2.4,2.9c-1.3,0-2.4-1.1-2.4-2.5c0-4.7,2.2-7.8,4.1-10.5c0.6-0.9,1.2-1.7,1.6-2.5c0.2-0.4,0.8-0.4,1,0
	C73.8,39.7,73.9,39.9,73.8,40.1z"/>
<path fill="#FFFFFF" d="M93.8,33.2c0-0.2-0.3-0.2-0.4,0c-0.8,6.7-4.8,8-4.8,12.7c0,2.9,2.3,5.2,5,5.2s5-2.3,5-5.2
	C98.7,41.2,94.6,39.8,93.8,33.2z M93.1,40.5c-0.1,0.2-0.1,0.4-0.2,0.6c-0.4,1.3-0.8,2.8-0.8,4.6c0,0.9-0.5,1.3-1,1.3
	c-0.6,0-1-0.5-1-1.1c0-2.1,0.9-3.4,1.8-4.6c0.3-0.4,0.5-0.7,0.7-1.1c0.1-0.2,0.3-0.2,0.5,0C93.1,40.3,93.1,40.4,93.1,40.5z"/>
<path fill="#FFFFFF" d="M65.4,8.2c0-0.3-0.4-0.3-0.5,0c-1,8.5-6.3,10.3-6.3,16.2c0,3.7,3,6.6,6.5,6.6c3.5,0,6.5-3,6.5-6.6
	C71.7,18.5,66.4,16.7,65.4,8.2z M64.4,17.6c-0.1,0.3-0.1,0.5-0.2,0.8c-0.5,1.7-1,3.6-1,5.9c0,1.2-0.7,1.6-1.3,1.6
	c-0.7,0-1.3-0.6-1.3-1.4c0-2.6,1.2-4.4,2.3-5.9c0.3-0.5,0.7-0.9,0.9-1.4c0.1-0.2,0.4-0.2,0.6,0C64.4,17.4,64.4,17.5,64.4,17.6z"/>
<g>
	<path fill="#7DA236" stroke="#7EA135" stroke-width="0.6" stroke-miterlimit="10" d="M47,109.6c0,2.3-1.4,3.7-3.8,3.7h-4v4.5
		c0,0.2-0.1,0.2-0.2,0.2h-0.4c-0.2,0-0.2-0.1-0.2-0.2v-11.6c0-0.2,0.1-0.2,0.2-0.2h4.6C45.6,105.9,47,107.3,47,109.6z M46.2,109.6
		c0-1.9-1.2-3-3-3h-3.9v5.9h3.9C45.1,112.6,46.2,111.5,46.2,109.6z"/>
	<path fill="#7DA236" stroke="#7EA135" stroke-width="0.6" stroke-miterlimit="10" d="M57.2,109.3c0,2-1.2,3.1-3,3.3
		c0.6,0.3,1,0.7,1.4,1.4l1.9,3.8c0.1,0.1,0.1,0.2-0.1,0.2h-0.3c-0.3,0-0.4,0-0.4-0.2l-1.8-3.5c-0.6-1.1-1.2-1.6-2.6-1.6h-2.8v5.1
		c0,0.2-0.1,0.2-0.2,0.2h-0.4c-0.2,0-0.2-0.1-0.2-0.2v-11.6c0-0.2,0.1-0.2,0.2-0.2h4.9C55.9,105.9,57.2,107.2,57.2,109.3z
		 M53.7,106.7h-4.2v5.3h4.2c1.7,0,2.7-0.9,2.7-2.6C56.4,107.6,55.4,106.7,53.7,106.7z"/>
	<path fill="#7DA236" stroke="#7EA135" stroke-width="0.6" stroke-miterlimit="10" d="M63.4,105.7c3,0,4.6,1.6,4.6,4.2v4.1
		c0,2.6-1.6,4.2-4.6,4.2c-3,0-4.6-1.6-4.6-4.2v-4.1C58.8,107.3,60.4,105.7,63.4,105.7z M63.4,106.4c-2.5,0-3.8,1.3-3.8,3.5v4.1
		c0,2.2,1.3,3.5,3.8,3.5c2.4,0,3.8-1.3,3.8-3.5v-4.1C67.2,107.7,65.9,106.4,63.4,106.4z"/>
	<path fill="#7DA236" stroke="#7EA135" stroke-width="0.6" stroke-miterlimit="10" d="M78.7,110.4v3.1c0,2.8-1.8,4.5-4.9,4.5h-3.5
		c-0.2,0-0.2-0.1-0.2-0.2v-11.6c0-0.2,0.1-0.2,0.2-0.2h3.5C76.9,105.9,78.7,107.6,78.7,110.4z M73.8,106.7h-2.9v10.6h2.9
		c2.7,0,4.1-1.4,4.1-3.8v-3.1C77.9,108.1,76.4,106.7,73.8,106.7z"/>
	<path fill="#7DA236" stroke="#7EA135" stroke-width="0.6" stroke-miterlimit="10" d="M85.1,117.5c2.5,0,3.7-1.4,3.7-3.6v-7.8
		c0-0.2,0.1-0.2,0.2-0.2h0.4c0.2,0,0.2,0.1,0.2,0.2v7.8c0,2.6-1.5,4.3-4.5,4.3c-3,0-4.5-1.7-4.5-4.3v-7.8c0-0.2,0.1-0.2,0.2-0.2h0.4
		c0.2,0,0.2,0.1,0.2,0.2v7.8C81.4,116.1,82.6,117.5,85.1,117.5z"/>
	<path fill="#7DA236" stroke="#7EA135" stroke-width="0.6" stroke-miterlimit="10" d="M99.3,106.2v0.3c0,0.2-0.1,0.2-0.2,0.2h-3.7
		v11.1c0,0.2-0.1,0.2-0.2,0.2h-0.4c-0.2,0-0.2-0.1-0.2-0.2v-11.1H91c-0.2,0-0.2-0.1-0.2-0.2v-0.3c0-0.2,0.1-0.2,0.2-0.2h8.2
		C99.3,105.9,99.3,106,99.3,106.2z"/>
	<path fill="#7DA236" stroke="#7EA135" stroke-width="0.6" stroke-miterlimit="10" d="M104.7,105.7c3,0,4.6,1.6,4.6,4.2v4.1
		c0,2.6-1.6,4.2-4.6,4.2c-3,0-4.6-1.6-4.6-4.2v-4.1C100.1,107.3,101.7,105.7,104.7,105.7z M104.7,106.4c-2.5,0-3.8,1.3-3.8,3.5v4.1
		c0,2.2,1.3,3.5,3.8,3.5c2.4,0,3.8-1.3,3.8-3.5v-4.1C108.4,107.7,107.1,106.4,104.7,106.4z"/>
	<path fill="#7DA236" stroke="#7EA135" stroke-width="0.6" stroke-miterlimit="10" d="M22.1,130.9h0.4c0.2,0,0.2,0.1,0.2,0.2v11.6
		c0,0.2-0.1,0.2-0.2,0.2h-0.4c-0.2,0-0.2-0.1-0.2-0.2v-11.6C21.9,131,22,130.9,22.1,130.9z"/>
	<path fill="#7DA236" stroke="#7EA135" stroke-width="0.6" stroke-miterlimit="10" d="M35.9,131.2v11.6c0,0.2-0.1,0.2-0.2,0.2h-0.3
		c-0.2,0-0.2-0.1-0.2-0.2V135c0-0.9,0-1.8,0.1-2.8h0c-0.4,0.9-0.8,1.6-1.3,2.4l-3,5.4c-0.1,0.1-0.1,0.2-0.3,0.2h-0.2
		c-0.2,0-0.2,0-0.3-0.2l-3.1-5.4c-0.4-0.8-0.8-1.5-1.2-2.4h0c0.1,1,0.1,1.9,0.1,2.8v7.8c0,0.2-0.1,0.2-0.2,0.2h-0.3
		c-0.2,0-0.2-0.1-0.2-0.2v-11.6c0-0.2,0.1-0.2,0.2-0.2h0.3c0.2,0,0.2,0.1,0.3,0.2l4.6,8l4.5-8c0.1-0.2,0.1-0.2,0.3-0.2h0.3
		C35.8,130.9,35.9,131,35.9,131.2z"/>
	<path fill="#7DA236" stroke="#7EA135" stroke-width="0.6" stroke-miterlimit="10" d="M46.9,134.6c0,2.3-1.4,3.7-3.8,3.7h-4v4.5
		c0,0.2-0.1,0.2-0.2,0.2h-0.4c-0.2,0-0.2-0.1-0.2-0.2v-11.6c0-0.2,0.1-0.2,0.2-0.2h4.6C45.4,130.9,46.9,132.3,46.9,134.6z M46,134.6
		c0-1.9-1.2-3-3-3h-3.9v5.9H43C44.9,137.6,46,136.5,46,134.6z"/>
	<path fill="#7DA236" stroke="#7EA135" stroke-width="0.6" stroke-miterlimit="10" d="M55.9,131.2v0.3c0,0.2-0.1,0.2-0.2,0.2h-6.4
		v4.9h5.6c0.2,0,0.2,0.1,0.2,0.2v0.3c0,0.2-0.1,0.2-0.2,0.2h-5.6v5h6.6c0.2,0,0.2,0.1,0.2,0.2v0.3c0,0.2-0.1,0.2-0.2,0.2h-7.2
		c-0.2,0-0.2-0.1-0.2-0.2v-11.6c0-0.2,0.1-0.2,0.2-0.2h6.9C55.8,130.9,55.9,131,55.9,131.2z"/>
	<path fill="#7DA236" stroke="#7EA135" stroke-width="0.6" stroke-miterlimit="10" d="M66.4,134.3c0,2-1.2,3.1-3,3.3
		c0.6,0.3,1,0.7,1.4,1.4l1.9,3.8c0.1,0.1,0.1,0.2-0.1,0.2h-0.3c-0.3,0-0.4,0-0.4-0.2l-1.8-3.5c-0.6-1.1-1.2-1.6-2.6-1.6h-2.8v5.1
		c0,0.2-0.1,0.2-0.2,0.2h-0.4c-0.2,0-0.2-0.1-0.2-0.2v-11.6c0-0.2,0.1-0.2,0.2-0.2h4.9C65.1,130.9,66.4,132.2,66.4,134.3z
		 M62.8,131.7h-4.2v5.3h4.2c1.7,0,2.7-0.9,2.7-2.6C65.6,132.6,64.6,131.7,62.8,131.7z"/>
	<path fill="#7DA236" stroke="#7EA135" stroke-width="0.6" stroke-miterlimit="10" d="M79.1,131.2v11.6c0,0.2-0.1,0.2-0.2,0.2h-0.3
		c-0.2,0-0.2-0.1-0.2-0.2V135c0-0.9,0-1.8,0.1-2.8h0c-0.4,0.9-0.8,1.6-1.3,2.4l-3,5.4c-0.1,0.1-0.1,0.2-0.3,0.2h-0.2
		c-0.2,0-0.2,0-0.3-0.2l-3.1-5.4c-0.4-0.8-0.8-1.5-1.2-2.4h0c0.1,1,0.1,1.9,0.1,2.8v7.8c0,0.2-0.1,0.2-0.2,0.2h-0.3
		c-0.2,0-0.2-0.1-0.2-0.2v-11.6c0-0.2,0.1-0.2,0.2-0.2h0.3c0.2,0,0.2,0.1,0.3,0.2l4.6,8l4.5-8c0.1-0.2,0.1-0.2,0.3-0.2h0.3
		C79,130.9,79.1,131,79.1,131.2z"/>
	<path fill="#7DA236" stroke="#7EA135" stroke-width="0.6" stroke-miterlimit="10" d="M88.9,131.2v0.3c0,0.2-0.1,0.2-0.2,0.2h-6.4
		v4.9H88c0.2,0,0.2,0.1,0.2,0.2v0.3c0,0.2-0.1,0.2-0.2,0.2h-5.6v5h6.6c0.2,0,0.2,0.1,0.2,0.2v0.3c0,0.2-0.1,0.2-0.2,0.2h-7.2
		c-0.2,0-0.2-0.1-0.2-0.2v-11.6c0-0.2,0.1-0.2,0.2-0.2h6.9C88.9,130.9,88.9,131,88.9,131.2z"/>
	<path fill="#7DA236" stroke="#7EA135" stroke-width="0.6" stroke-miterlimit="10" d="M99.9,143h-0.3c-0.3,0-0.3,0-0.4-0.2l-1.5-3.8
		H92l-1.5,3.8c-0.1,0.2-0.1,0.2-0.4,0.2h-0.3c-0.2,0-0.2-0.1-0.2-0.2l4.7-11.7c0.1-0.2,0.1-0.2,0.3-0.2H95c0.2,0,0.2,0.1,0.3,0.2
		l4.7,11.7C100.1,142.9,100.1,143,99.9,143z M94.9,131.6L94.9,131.6c-0.1,0.1-0.1,0.4-0.2,0.7l-2.4,6h5.2l-2.4-6
		C94.9,132,94.9,131.7,94.9,131.6z M96.4,127.8l0.2,0.2c0.1,0.1,0.1,0.2,0,0.3l-3,1.7c-0.1,0.1-0.2,0.1-0.3,0l-0.1-0.1
		c-0.1-0.1-0.1-0.2,0-0.2l2.9-1.8C96.2,127.7,96.3,127.7,96.4,127.8z"/>
	<path fill="#7DA236" stroke="#7EA135" stroke-width="0.6" stroke-miterlimit="10" d="M109.1,131.1l-4.5,11.7
		c-0.1,0.2-0.1,0.2-0.3,0.2H104c-0.2,0-0.2-0.1-0.3-0.2l-4.5-11.7c-0.1-0.1,0-0.2,0.1-0.2h0.3c0.3,0,0.3,0,0.4,0.2l3.8,9.8
		c0.2,0.4,0.3,0.9,0.4,1.1h0.1c0.1-0.2,0.2-0.7,0.4-1.1l3.8-9.8c0.1-0.2,0.1-0.2,0.4-0.2h0.3C109.2,130.9,109.2,131,109.1,131.1z"/>
	<path fill="#7DA236" stroke="#7EA135" stroke-width="0.6" stroke-miterlimit="10" d="M117.8,131.2v0.3c0,0.2-0.1,0.2-0.2,0.2h-6.4
		v4.9h5.6c0.2,0,0.2,0.1,0.2,0.2v0.3c0,0.2-0.1,0.2-0.2,0.2h-5.6v5h6.6c0.2,0,0.2,0.1,0.2,0.2v0.3c0,0.2-0.1,0.2-0.2,0.2h-7.2
		c-0.2,0-0.2-0.1-0.2-0.2v-11.6c0-0.2,0.1-0.2,0.2-0.2h6.9C117.7,130.9,117.8,131,117.8,131.2z"/>
	<path fill="#7DA236" stroke="#7EA135" stroke-width="0.6" stroke-miterlimit="10" d="M120.5,131.2v11.1h6.2c0.2,0,0.2,0.1,0.2,0.2
		v0.3c0,0.2-0.1,0.2-0.2,0.2H120c-0.2,0-0.2-0.1-0.2-0.2v-11.6c0-0.2,0.1-0.2,0.2-0.2h0.4C120.5,130.9,120.5,131,120.5,131.2z"/>
</g>
</svg>
