<?xml version="1.0" encoding="utf-8"?>
<!-- Generator: Adobe Illustrator 18.0.0, SVG Export Plug-In . SVG Version: 6.00 Build 0)  -->
<!DOCTYPE svg PUBLIC "-//W3C//DTD SVG 1.1//EN" "http://www.w3.org/Graphics/SVG/1.1/DTD/svg11.dtd">
<svg version="1.1" id="Camada_1" xmlns="http://www.w3.org/2000/svg" xmlns:xlink="http://www.w3.org/1999/xlink" x="0px" y="0px"
	 viewBox="0 0 44 44" enable-background="new 0 0 44 44" xml:space="preserve">
<circle fill="#FFFFFF" cx="21.6" cy="21.5" r="15.3"/>
<path fill="#82B233" d="M22,0C9.9,0,0,9.9,0,22s9.9,22,22,22s22-9.9,22-22S34.1,0,22,0z M11.8,14.9h20.3c0.5,0,0.8,0.1,1.2,0.4
	L22,23.4l-11.3-8.2C10.9,15,11.4,14.9,11.8,14.9z M10.1,16.2l8.2,5.9l-8.2,5.8V16.2z M32.2,29.1H11.8c-0.5,0-0.8-0.1-1.2-0.4
	l8.4-6.1l3,2.1l3-2.1l8.4,6.1C33.1,29,32.6,29.1,32.2,29.1z M33.9,27.9l-8.2-5.8l8.2-5.9V27.9z"/>
</svg>
