<?xml version="1.0" encoding="utf-8"?>
<!-- Generator: Adobe Illustrator 18.0.0, SVG Export Plug-In . SVG Version: 6.00 Build 0)  -->
<!DOCTYPE svg PUBLIC "-//W3C//DTD SVG 1.1//EN" "http://www.w3.org/Graphics/SVG/1.1/DTD/svg11.dtd">
<svg version="1.1" id="Camada_1" xmlns="http://www.w3.org/2000/svg" xmlns:xlink="http://www.w3.org/1999/xlink" x="0px" y="0px"
	 viewBox="0 0 152.3 170.3" enable-background="new 0 0 152.3 170.3" xml:space="preserve">
<g id="Camada_1">
	<g>
		<path fill-rule="evenodd" clip-rule="evenodd" fill="#67B22E" d="M79.2,1c24.6,0,44.5,19.9,44.5,44.5S103.7,90,79.2,90
			S34.7,70.1,34.7,45.5S54.6,1,79.2,1z"/>
		<g>
			<path fill="#539032" d="M123.7,46.2v1.2l-0.3,3.1l-0.7,4.2l-1.3,4.8l-2.6,6.1l-3.2,5.4l-3.3,4.2l-4.4,4.3l-7.8,5.3l-9.5,3.6
				c-0.2,0.1-0.5,0.2-0.7,0.3L83.2,90c-0.1,0-0.2,0-0.3,0l-9.5-0.4c-0.9,0-1.8-0.4-2.4-1.1L54.7,71l4.4-45.4l9.7-3l26.9-3.4
				L123.7,46.2z"/>
		</g>
		<g>
			<g>
				<path fill="#FFFFFF" d="M74.7,65.9v3.4c0,0.7,0.4,1.1,1.2,1.1h11.2c0.7,0,1.1-0.4,1.1-1.1v-3.4c0-0.7-0.4-1.1-1.1-1.1H76
					C75.2,64.8,74.7,65.2,74.7,65.9L74.7,65.9z M60.5,65.9v3.4c0,0.7,0.4,1.1,1.1,1.1h11.2c0.7,0,1.1-0.4,1.1-1.1v-3.4
					c0-0.7-0.4-1.1-1.1-1.1H61.6C60.9,64.8,60.5,65.2,60.5,65.9L60.5,65.9z M89.1,65.9v3.4c0,0.7,0.4,1.1,1.1,1.1h11.2
					c0.8,0,1.2-0.4,1.2-1.1v-3.4c0-0.7-0.4-1.1-1.2-1.1H90.2C89.5,64.8,89.1,65.2,89.1,65.9L89.1,65.9z M82.2,59.1v3.4
					c0,0.7,0.4,1.1,1.1,1.1h11.2c0.8,0,1.2-0.4,1.2-1.1v-3.4c0-0.8-0.4-1.3-1.2-1.3H83.3C82.6,57.9,82.2,58.3,82.2,59.1L82.2,59.1z
					 M67.6,59.1v3.4c0,0.7,0.4,1.1,1.2,1.1h11.2c0.7,0,1.1-0.4,1.1-1.1v-3.4c0-0.8-0.4-1.3-1.1-1.3H68.9
					C68,57.9,67.6,58.3,67.6,59.1L67.6,59.1z M74.7,52.1v3.4c0,0.8,0.4,1.3,1.1,1.3h11.4c0.7,0,1.1-0.4,1.1-1.3v-3.4
					c0-0.7-0.4-1.1-1.1-1.1H75.8C75.1,51.1,74.7,51.4,74.7,52.1L74.7,52.1z M89.1,52.1v3.4c0,0.8,0.4,1.3,1.1,1.3h11.2
					c0.8,0,1.2-0.4,1.2-1.3v-3.4c0-0.7-0.4-1.1-1.2-1.1H90.2C89.5,51.1,89.1,51.4,89.1,52.1L89.1,52.1z M60.5,52.1v3.4
					c0,0.8,0.4,1.3,1.1,1.3h11.2c0.7,0,1.1-0.4,1.1-1.3v-3.4c0-0.7-0.4-1.1-1.1-1.1H61.6C60.9,51.1,60.5,51.4,60.5,52.1L60.5,52.1z
					 M82.2,45.5v3.2c0,0.8,0.4,1.3,1.1,1.3h11.2c0.8,0,1.2-0.4,1.2-1.3v-3.2c0-0.8-0.4-1.3-1.2-1.3H83.3
					C82.6,44.3,82.2,44.7,82.2,45.5L82.2,45.5z M67.6,45.5v3.2c0,0.8,0.4,1.3,1.2,1.3h11.2c0.7,0,1.1-0.4,1.1-1.3v-3.2
					c0-0.8-0.4-1.3-1.1-1.3H68.9C68,44.3,67.6,44.7,67.6,45.5L67.6,45.5z M74.7,38.6v3.4c0,0.7,0.4,1.1,1.2,1.1h11.2
					c0.7,0,1.1-0.4,1.1-1.1v-3.4c0-0.8-0.4-1.3-1.1-1.3H76C75.2,37.3,74.7,37.7,74.7,38.6L74.7,38.6z M60.5,38.6v3.4
					c0,0.7,0.4,1.1,1.1,1.1h11.2c0.7,0,1.1-0.4,1.1-1.1v-3.4c0-0.8-0.4-1.3-1.1-1.3H61.6C60.9,37.3,60.5,37.7,60.5,38.6L60.5,38.6z
					 M89.1,38.6v3.4c0,0.7,0.4,1.1,1.1,1.1h11.2c0.8,0,1.2-0.4,1.2-1.1v-3.4c0-0.8-0.4-1.3-1.2-1.3H90.2
					C89.5,37.3,89.1,37.7,89.1,38.6L89.1,38.6z M82.2,31.8V35c0,0.8,0.4,1.3,1.1,1.3h11.2c0.8,0,1.2-0.4,1.2-1.3v-3.2
					c0-0.8-0.4-1.3-1.2-1.3H83.3C82.6,30.5,82.2,30.9,82.2,31.8L82.2,31.8z M67.6,31.8V35c0,0.8,0.4,1.3,1.2,1.3h11.2
					c0.7,0,1.1-0.4,1.1-1.3v-3.2c0-0.8-0.4-1.3-1.1-1.3H68.9C68,30.5,67.6,30.9,67.6,31.8L67.6,31.8z M74.7,24.8v3.4
					c0,0.7,0.4,1.1,1.1,1.1h11.4c0.7,0,1.1-0.4,1.1-1.1v-3.4c0-0.7-0.4-1.1-1.1-1.1H75.8C75.1,23.7,74.7,24.1,74.7,24.8L74.7,24.8z
					 M89.1,24.8v3.4c0,0.7,0.4,1.1,1.1,1.1h11.2c0.8,0,1.2-0.4,1.2-1.1v-3.4c0-0.7-0.4-1.1-1.2-1.1H90.2
					C89.5,23.7,89.1,24.1,89.1,24.8L89.1,24.8z M60.5,24.8v3.4c0,0.7,0.4,1.1,1.1,1.1h11.2c0.7,0,1.1-0.4,1.1-1.1v-3.4
					c0-0.7-0.4-1.1-1.1-1.1H61.6C60.9,23.7,60.5,24.1,60.5,24.8L60.5,24.8z M82.2,18L82.2,18v3.4c0,0.8,0.4,1.3,1.1,1.3h11.2
					c0.8,0,1.2-0.4,1.2-1.3V18 M67.6,18L67.6,18v3.4c0,0.8,0.4,1.3,1.2,1.3h11.2c0.7,0,1.1-0.4,1.1-1.3V18"/>
			</g>
		</g>
		<g>
			<g>
				<path fill="#FFFFFF" d="M58.1,23.7h-3.4c-0.7,0-1.1,0.4-1.1,1.1v45.1c0,0.7,0.4,1.1,1.1,1.1h3.4c0.7,0,1.1-0.4,1.1-1.1V24.8
					C59.2,24.1,58.8,23.7,58.1,23.7L58.1,23.7z"/>
			</g>
		</g>
		<g>
			<path fill="#7DA236" stroke="#7EA135" stroke-width="0.6" stroke-miterlimit="10" d="M54.2,101.6c0,2.3-1.4,3.7-3.8,3.7h-4v4.5
				c0,0.2-0.1,0.2-0.2,0.2h-0.4c-0.2,0-0.2-0.1-0.2-0.2V98.2c0-0.2,0.1-0.2,0.2-0.2h4.6C52.7,97.9,54.2,99.3,54.2,101.6z
				 M53.4,101.6c0-1.9-1.2-3-3-3h-3.9v5.9h3.9C52.2,104.6,53.4,103.5,53.4,101.6z"/>
			<path fill="#7DA236" stroke="#7EA135" stroke-width="0.6" stroke-miterlimit="10" d="M63.2,98.2v0.3c0,0.2-0.1,0.2-0.2,0.2h-6.4
				v4.9h5.6c0.2,0,0.2,0.1,0.2,0.2v0.3c0,0.2-0.1,0.2-0.2,0.2h-5.6v5h6.6c0.2,0,0.2,0.1,0.2,0.2v0.3c0,0.2-0.1,0.2-0.2,0.2H56
				c-0.2,0-0.2-0.1-0.2-0.2V98.2c0-0.2,0.1-0.2,0.2-0.2H63C63.1,97.9,63.2,98,63.2,98.2z"/>
			<path fill="#7DA236" stroke="#7EA135" stroke-width="0.6" stroke-miterlimit="10" d="M73.7,101.3c0,2-1.2,3.1-3,3.3
				c0.6,0.3,1,0.7,1.4,1.4l1.9,3.8c0.1,0.1,0.1,0.2-0.1,0.2h-0.3c-0.3,0-0.4,0-0.4-0.2l-1.8-3.5c-0.6-1.1-1.2-1.6-2.6-1.6h-2.8v5.1
				c0,0.2-0.1,0.2-0.2,0.2h-0.4c-0.2,0-0.2-0.1-0.2-0.2V98.2c0-0.2,0.1-0.2,0.2-0.2h4.9C72.4,97.9,73.7,99.2,73.7,101.3z M70.2,98.7
				h-4.2v5.3h4.2c1.7,0,2.7-0.9,2.7-2.6C72.9,99.6,71.9,98.7,70.2,98.7z"/>
			<path fill="#7DA236" stroke="#7EA135" stroke-width="0.6" stroke-miterlimit="10" d="M86.4,98.2v11.6c0,0.2-0.1,0.2-0.2,0.2h-0.3
				c-0.2,0-0.2-0.1-0.2-0.2V102c0-0.9,0-1.8,0.1-2.8h0c-0.4,0.9-0.8,1.6-1.3,2.4l-3,5.4c-0.1,0.1-0.1,0.2-0.3,0.2H81
				c-0.2,0-0.2,0-0.3-0.2l-3.1-5.4c-0.4-0.8-0.8-1.5-1.2-2.4h0c0.1,1,0.1,1.9,0.1,2.8v7.8c0,0.2-0.1,0.2-0.2,0.2h-0.3
				c-0.2,0-0.2-0.1-0.2-0.2V98.2c0-0.2,0.1-0.2,0.2-0.2h0.3c0.2,0,0.2,0.1,0.3,0.2l4.6,8l4.5-8c0.1-0.2,0.1-0.2,0.3-0.2h0.3
				C86.4,97.9,86.4,98,86.4,98.2z"/>
			<path fill="#7DA236" stroke="#7EA135" stroke-width="0.6" stroke-miterlimit="10" d="M89.1,97.9h0.4c0.2,0,0.2,0.1,0.2,0.2v11.6
				c0,0.2-0.1,0.2-0.2,0.2h-0.4c-0.2,0-0.2-0.1-0.2-0.2V98.2C88.9,98,88.9,97.9,89.1,97.9z"/>
			<path fill="#7DA236" stroke="#7EA135" stroke-width="0.6" stroke-miterlimit="10" d="M99.5,98.2v0.3c0,0.2-0.1,0.2-0.2,0.2h-3.7
				v11.1c0,0.2-0.1,0.2-0.2,0.2H95c-0.2,0-0.2-0.1-0.2-0.2V98.7h-3.7c-0.2,0-0.2-0.1-0.2-0.2v-0.3c0-0.2,0.1-0.2,0.2-0.2h8.2
				C99.5,97.9,99.5,98,99.5,98.2z"/>
			<path fill="#7DA236" stroke="#7EA135" stroke-width="0.6" stroke-miterlimit="10" d="M108.2,98.2v0.3c0,0.2-0.1,0.2-0.2,0.2h-6.4
				v4.9h5.6c0.2,0,0.2,0.1,0.2,0.2v0.3c0,0.2-0.1,0.2-0.2,0.2h-5.6v5h6.6c0.2,0,0.2,0.1,0.2,0.2v0.3c0,0.2-0.1,0.2-0.2,0.2H101
				c-0.2,0-0.2-0.1-0.2-0.2V98.2c0-0.2,0.1-0.2,0.2-0.2h6.9C108.1,97.9,108.2,98,108.2,98.2z"/>
			<path fill="#7DA236" stroke="#7EA135" stroke-width="0.6" stroke-miterlimit="10" d="M20.1,129h-0.3c-0.3,0-0.3,0-0.4-0.2
				l-1.5-3.8h-5.6l-1.5,3.8c-0.1,0.2-0.1,0.2-0.4,0.2h-0.3c-0.2,0-0.2-0.1-0.2-0.2l4.7-11.7c0.1-0.2,0.1-0.2,0.3-0.2h0.3
				c0.2,0,0.2,0.1,0.3,0.2l4.7,11.7C20.3,128.9,20.3,129,20.1,129z M15.1,117.6L15.1,117.6c-0.1,0.1-0.1,0.4-0.2,0.7l-2.4,6h5.2
				l-2.4-6C15.1,118,15.1,117.7,15.1,117.6z"/>
			<path fill="#7DA236" stroke="#7EA135" stroke-width="0.6" stroke-miterlimit="10" d="M30.4,117.2v11.6c0,0.2-0.1,0.2-0.2,0.2
				h-0.4c-0.1,0-0.2,0-0.2-0.1l-6-8.6c-0.6-0.8-1-1.7-1.4-2.2h0c0,0.6,0.1,1.7,0.1,2.8v7.9c0,0.2-0.1,0.2-0.2,0.2h-0.3
				c-0.2,0-0.2-0.1-0.2-0.2v-11.6c0-0.2,0.1-0.2,0.2-0.2h0.3c0.1,0,0.2,0.1,0.2,0.1l5.9,8.4c0.6,0.9,1.2,1.9,1.6,2.4h0
				c0-0.7-0.1-1.9-0.1-3.1v-7.7c0-0.2,0.1-0.2,0.2-0.2h0.3C30.4,116.9,30.4,117,30.4,117.2z"/>
			<path fill="#7DA236" stroke="#7EA135" stroke-width="0.6" stroke-miterlimit="10" d="M37.1,116.7c2.6,0,3.9,1,4.5,3
				c0.1,0.2,0,0.2-0.2,0.3l-0.3,0.1c-0.2,0-0.2,0-0.3-0.1c-0.5-1.7-1.5-2.5-3.7-2.5c-2.5,0-3.8,1.3-3.8,3.4v4.2
				c0,2.1,1.3,3.5,3.8,3.5c2.3,0,3.2-0.9,3.8-2.6c0.1-0.2,0.1-0.2,0.3-0.1l0.3,0.1c0.2,0.1,0.2,0.1,0.1,0.3c-0.6,1.9-1.8,3-4.5,3
				c-3,0-4.6-1.6-4.6-4.2v-4.2C32.5,118.3,34.1,116.7,37.1,116.7z"/>
			<path fill="#7DA236" stroke="#7EA135" stroke-width="0.6" stroke-miterlimit="10" d="M47.5,116.7c3,0,4.6,1.6,4.6,4.2v4.1
				c0,2.6-1.6,4.2-4.6,4.2c-3,0-4.6-1.6-4.6-4.2v-4.1C42.9,118.3,44.5,116.7,47.5,116.7z M47.5,117.4c-2.5,0-3.8,1.3-3.8,3.5v4.1
				c0,2.2,1.3,3.5,3.8,3.5c2.4,0,3.8-1.3,3.8-3.5v-4.1C51.3,118.7,50,117.4,47.5,117.4z"/>
			<path fill="#7DA236" stroke="#7EA135" stroke-width="0.6" stroke-miterlimit="10" d="M62.7,120.3c0,2-1.2,3.1-3,3.3
				c0.6,0.3,1,0.7,1.4,1.4l1.9,3.8c0.1,0.1,0.1,0.2-0.1,0.2h-0.3c-0.3,0-0.4,0-0.4-0.2l-1.8-3.5c-0.6-1.1-1.2-1.6-2.6-1.6H55v5.1
				c0,0.2-0.1,0.2-0.2,0.2h-0.4c-0.2,0-0.2-0.1-0.2-0.2v-11.6c0-0.2,0.1-0.2,0.2-0.2h4.9C61.4,116.9,62.7,118.2,62.7,120.3z
				 M59.2,117.7H55v5.3h4.2c1.7,0,2.7-0.9,2.7-2.6C61.9,118.6,60.9,117.7,59.2,117.7z"/>
			<path fill="#7DA236" stroke="#7EA135" stroke-width="0.6" stroke-miterlimit="10" d="M73.7,129h-0.3c-0.3,0-0.3,0-0.4-0.2
				l-1.5-3.8h-5.6l-1.5,3.8c-0.1,0.2-0.1,0.2-0.4,0.2h-0.3c-0.2,0-0.2-0.1-0.2-0.2l4.7-11.7c0.1-0.2,0.1-0.2,0.3-0.2h0.3
				c0.2,0,0.2,0.1,0.3,0.2l4.7,11.7C73.9,128.9,73.9,129,73.7,129z M68.7,117.6L68.7,117.6c-0.1,0.1-0.1,0.4-0.2,0.7l-2.4,6h5.2
				l-2.4-6C68.7,118,68.7,117.7,68.7,117.6z"/>
			<path fill="#7DA236" stroke="#7EA135" stroke-width="0.6" stroke-miterlimit="10" d="M83.7,123.2v2c0,2.5-1.6,4.1-4.6,4.1
				c-3,0-4.6-1.6-4.6-4.2v-4.1c0-2.6,1.6-4.2,4.6-4.2c2.6,0,3.9,1,4.5,3c0.1,0.2,0,0.2-0.2,0.3l-0.3,0.1c-0.2,0.1-0.2,0-0.3-0.1
				c-0.5-1.7-1.5-2.5-3.7-2.5c-2.5,0-3.8,1.3-3.8,3.4v4.2c0,2.2,1.3,3.5,3.8,3.5c2.4,0,3.8-1.3,3.8-3.4v-1.5h-3.6
				c-0.2,0-0.2-0.1-0.2-0.2v-0.3c0-0.2,0.1-0.2,0.2-0.2h4.2C83.6,122.9,83.7,123,83.7,123.2z"/>
			<path fill="#7DA236" stroke="#7EA135" stroke-width="0.6" stroke-miterlimit="10" d="M93,117.2v0.3c0,0.2-0.1,0.2-0.2,0.2h-6.4
				v4.9H92c0.2,0,0.2,0.1,0.2,0.2v0.3c0,0.2-0.1,0.2-0.2,0.2h-5.6v5H93c0.2,0,0.2,0.1,0.2,0.2v0.3c0,0.2-0.1,0.2-0.2,0.2h-7.2
				c-0.2,0-0.2-0.1-0.2-0.2v-11.6c0-0.2,0.1-0.2,0.2-0.2h6.9C92.9,116.9,93,117,93,117.2z"/>
			<path fill="#7DA236" stroke="#7EA135" stroke-width="0.6" stroke-miterlimit="10" d="M105.7,117.2v11.6c0,0.2-0.1,0.2-0.2,0.2
				h-0.3c-0.2,0-0.2-0.1-0.2-0.2V121c0-0.9,0-1.8,0.1-2.8h0c-0.4,0.9-0.8,1.6-1.3,2.4l-3,5.4c-0.1,0.1-0.1,0.2-0.3,0.2h-0.2
				c-0.2,0-0.2,0-0.3-0.2l-3.1-5.4c-0.4-0.8-0.8-1.5-1.2-2.4h0c0.1,1,0.1,1.9,0.1,2.8v7.8c0,0.2-0.1,0.2-0.2,0.2h-0.3
				c-0.2,0-0.2-0.1-0.2-0.2v-11.6c0-0.2,0.1-0.2,0.2-0.2h0.3c0.2,0,0.2,0.1,0.3,0.2l4.6,8l4.5-8c0.1-0.2,0.1-0.2,0.3-0.2h0.3
				C105.6,116.9,105.7,117,105.7,117.2z"/>
			<path fill="#7DA236" stroke="#7EA135" stroke-width="0.6" stroke-miterlimit="10" d="M115.7,116.7c2.3,0,3.6,0.8,4.5,2.6
				c0.1,0.2,0,0.2-0.1,0.3l-0.3,0.2c-0.1,0.1-0.2,0.1-0.3-0.1c-0.8-1.5-1.8-2.2-3.7-2.2c-2.2,0-3.5,1-3.5,2.6c0,2,1.9,2.3,3.8,2.5
				c2.1,0.2,4.2,0.6,4.2,3.2c0,2.2-1.5,3.5-4.5,3.5c-2.4,0-3.8-1-4.6-3c-0.1-0.2-0.1-0.2,0.1-0.3l0.3-0.1c0.2-0.1,0.2,0,0.3,0.1
				c0.7,1.7,1.9,2.5,3.8,2.5c2.4,0,3.7-0.9,3.7-2.7c0-2-1.8-2.3-3.6-2.5c-2.1-0.3-4.4-0.6-4.4-3.2
				C111.5,118,113.1,116.7,115.7,116.7z"/>
			<path fill="#7DA236" stroke="#7EA135" stroke-width="0.6" stroke-miterlimit="10" d="M129.5,117.2v0.3c0,0.2-0.1,0.2-0.2,0.2
				h-6.4v4.9h5.6c0.2,0,0.2,0.1,0.2,0.2v0.3c0,0.2-0.1,0.2-0.2,0.2h-5.6v5h6.6c0.2,0,0.2,0.1,0.2,0.2v0.3c0,0.2-0.1,0.2-0.2,0.2
				h-7.2c-0.2,0-0.2-0.1-0.2-0.2v-11.6c0-0.2,0.1-0.2,0.2-0.2h6.9C129.5,116.9,129.5,117,129.5,117.2z"/>
			<path fill="#7DA236" stroke="#7EA135" stroke-width="0.6" stroke-miterlimit="10" d="M142.2,117.2v11.6c0,0.2-0.1,0.2-0.2,0.2
				h-0.3c-0.2,0-0.2-0.1-0.2-0.2V121c0-0.9,0-1.8,0.1-2.8h0c-0.4,0.9-0.8,1.6-1.3,2.4l-3,5.4c-0.1,0.1-0.1,0.2-0.3,0.2h-0.2
				c-0.2,0-0.2,0-0.3-0.2l-3.1-5.4c-0.4-0.8-0.8-1.5-1.2-2.4h0c0.1,1,0.1,1.9,0.1,2.8v7.8c0,0.2-0.1,0.2-0.2,0.2h-0.3
				c-0.2,0-0.2-0.1-0.2-0.2v-11.6c0-0.2,0.1-0.2,0.2-0.2h0.3c0.2,0,0.2,0.1,0.3,0.2l4.6,8l4.5-8c0.1-0.2,0.1-0.2,0.3-0.2h0.3
				C142.2,116.9,142.2,117,142.2,117.2z"/>
			<path fill="#7DA236" stroke="#7EA135" stroke-width="0.6" stroke-miterlimit="10" d="M10.1,147.5c2.5,0,3.7-1.4,3.7-3.6v-7.8
				c0-0.2,0.1-0.2,0.2-0.2h0.4c0.2,0,0.2,0.1,0.2,0.2v7.8c0,2.6-1.5,4.3-4.5,4.3c-3,0-4.5-1.7-4.5-4.3v-7.8c0-0.2,0.1-0.2,0.2-0.2
				h0.4c0.2,0,0.2,0.1,0.2,0.2v7.8C6.4,146.1,7.6,147.5,10.1,147.5z"/>
			<path fill="#7DA236" stroke="#7EA135" stroke-width="0.6" stroke-miterlimit="10" d="M20.7,135.7c2.3,0,3.6,0.8,4.5,2.6
				c0.1,0.2,0,0.2-0.1,0.3l-0.3,0.2c-0.1,0.1-0.2,0.1-0.3-0.1c-0.8-1.5-1.8-2.2-3.7-2.2c-2.2,0-3.5,1-3.5,2.6c0,2,1.9,2.3,3.8,2.5
				c2.1,0.2,4.2,0.6,4.2,3.2c0,2.2-1.5,3.5-4.5,3.5c-2.4,0-3.8-1-4.6-3c-0.1-0.2-0.1-0.2,0.1-0.3l0.3-0.1c0.2-0.1,0.2,0,0.3,0.1
				c0.7,1.7,1.9,2.5,3.8,2.5c2.4,0,3.7-0.9,3.7-2.7c0-2-1.8-2.3-3.6-2.5c-2.1-0.3-4.4-0.6-4.4-3.2C16.4,137,18,135.7,20.7,135.7z"/>
			<path fill="#7DA236" stroke="#7EA135" stroke-width="0.6" stroke-miterlimit="10" d="M35.9,148h-0.3c-0.3,0-0.3,0-0.4-0.2
				l-1.5-3.8H28l-1.5,3.8c-0.1,0.2-0.1,0.2-0.4,0.2h-0.3c-0.2,0-0.2-0.1-0.2-0.2l4.7-11.7c0.1-0.2,0.1-0.2,0.3-0.2H31
				c0.2,0,0.2,0.1,0.3,0.2l4.7,11.7C36.1,147.9,36,148,35.9,148z M30.9,136.6L30.9,136.6c-0.1,0.1-0.1,0.4-0.2,0.7l-2.4,6h5.2
				l-2.4-6C30.9,137,30.9,136.7,30.9,136.6z"/>
			<path fill="#7DA236" stroke="#7EA135" stroke-width="0.6" stroke-miterlimit="10" d="M45.8,139.3c0,2-1.2,3.1-3,3.3
				c0.6,0.3,1,0.7,1.4,1.4l1.9,3.8c0.1,0.1,0.1,0.2-0.1,0.2h-0.3c-0.3,0-0.4,0-0.4-0.2l-1.8-3.5c-0.6-1.1-1.2-1.6-2.6-1.6h-2.8v5.1
				c0,0.2-0.1,0.2-0.2,0.2h-0.4c-0.2,0-0.2-0.1-0.2-0.2v-11.6c0-0.2,0.1-0.2,0.2-0.2h4.9C44.5,135.9,45.8,137.2,45.8,139.3z
				 M42.3,136.7h-4.2v5.3h4.2c1.7,0,2.7-0.9,2.7-2.6C45,137.6,44,136.7,42.3,136.7z"/>
			<path fill="#7DA236" stroke="#7EA135" stroke-width="0.6" stroke-miterlimit="10" d="M58.7,136.2v0.3c0,0.2-0.1,0.2-0.2,0.2h-3.7
				v11.1c0,0.2-0.1,0.2-0.2,0.2h-0.4c-0.2,0-0.2-0.1-0.2-0.2v-11.1h-3.7c-0.2,0-0.2-0.1-0.2-0.2v-0.3c0-0.2,0.1-0.2,0.2-0.2h8.2
				C58.6,135.9,58.7,136,58.7,136.2z"/>
			<path fill="#7DA236" stroke="#7EA135" stroke-width="0.6" stroke-miterlimit="10" d="M67.3,136.2v0.3c0,0.2-0.1,0.2-0.2,0.2h-6.4
				v4.9h5.6c0.2,0,0.2,0.1,0.2,0.2v0.3c0,0.2-0.1,0.2-0.2,0.2h-5.6v5h6.6c0.2,0,0.2,0.1,0.2,0.2v0.3c0,0.2-0.1,0.2-0.2,0.2h-7.2
				c-0.2,0-0.2-0.1-0.2-0.2v-11.6c0-0.2,0.1-0.2,0.2-0.2h6.9C67.3,135.9,67.3,136,67.3,136.2z"/>
			<path fill="#7DA236" stroke="#7EA135" stroke-width="0.6" stroke-miterlimit="10" d="M70.1,136.2v11.1h6.2c0.2,0,0.2,0.1,0.2,0.2
				v0.3c0,0.2-0.1,0.2-0.2,0.2h-6.7c-0.2,0-0.2-0.1-0.2-0.2v-11.6c0-0.2,0.1-0.2,0.2-0.2h0.4C70,135.9,70.1,136,70.1,136.2z"/>
			<path fill="#7DA236" stroke="#7EA135" stroke-width="0.6" stroke-miterlimit="10" d="M86.7,148h-0.3c-0.3,0-0.3,0-0.4-0.2
				l-1.5-3.8h-5.6l-1.5,3.8c-0.1,0.2-0.1,0.2-0.4,0.2h-0.3c-0.2,0-0.2-0.1-0.2-0.2l4.7-11.7c0.1-0.2,0.1-0.2,0.3-0.2h0.3
				c0.2,0,0.2,0.1,0.3,0.2l4.7,11.7C86.9,147.9,86.9,148,86.7,148z M81.7,136.6L81.7,136.6c-0.1,0.1-0.1,0.4-0.2,0.7l-2.4,6h5.2
				l-2.4-6C81.8,137,81.7,136.7,81.7,136.6z"/>
			<path fill="#7DA236" stroke="#7EA135" stroke-width="0.6" stroke-miterlimit="10" d="M91.7,135.7c2.3,0,3.6,0.8,4.5,2.6
				c0.1,0.2,0,0.2-0.1,0.3l-0.3,0.2c-0.1,0.1-0.2,0.1-0.3-0.1c-0.8-1.5-1.8-2.2-3.7-2.2c-2.2,0-3.5,1-3.5,2.6c0,2,1.9,2.3,3.8,2.5
				c2.1,0.2,4.2,0.6,4.2,3.2c0,2.2-1.5,3.5-4.5,3.5c-2.4,0-3.8-1-4.6-3c-0.1-0.2-0.1-0.2,0.1-0.3l0.3-0.1c0.2-0.1,0.2,0,0.3,0.1
				c0.7,1.7,1.9,2.5,3.8,2.5c2.4,0,3.7-0.9,3.7-2.7c0-2-1.8-2.3-3.6-2.5c-2.1-0.3-4.4-0.6-4.4-3.2C87.5,137,89,135.7,91.7,135.7z"/>
			<path fill="#7DA236" stroke="#7EA135" stroke-width="0.6" stroke-miterlimit="10" d="M97.2,150.1h-0.1c-0.1,0-0.2,0-0.1-0.2
				l0.6-2.7c0.1-0.2,0.1-0.3,0.3-0.3h0.3c0.2,0,0.3,0.1,0.2,0.3l-0.9,2.6C97.4,150,97.4,150.1,97.2,150.1z"/>
			<path fill="#7DA236" stroke="#7EA135" stroke-width="0.6" stroke-miterlimit="10" d="M112.8,139.6c0,2.3-1.4,3.7-3.8,3.7h-4v4.5
				c0,0.2-0.1,0.2-0.2,0.2h-0.4c-0.2,0-0.2-0.1-0.2-0.2v-11.6c0-0.2,0.1-0.2,0.2-0.2h4.6C111.3,135.9,112.8,137.3,112.8,139.6z
				 M112,139.6c0-1.9-1.2-3-3-3H105v5.9h3.9C110.8,142.6,112,141.5,112,139.6z"/>
			<path fill="#7DA236" stroke="#7EA135" stroke-width="0.6" stroke-miterlimit="10" d="M114.6,135.9h0.4c0.2,0,0.2,0.1,0.2,0.2
				v11.6c0,0.2-0.1,0.2-0.2,0.2h-0.4c-0.2,0-0.2-0.1-0.2-0.2v-11.6C114.4,136,114.4,135.9,114.6,135.9z"/>
			<path fill="#7DA236" stroke="#7EA135" stroke-width="0.6" stroke-miterlimit="10" d="M126.5,136.2v11.6c0,0.2-0.1,0.2-0.2,0.2
				H126c-0.1,0-0.2,0-0.2-0.1l-6-8.6c-0.6-0.8-1-1.7-1.4-2.2h0c0,0.6,0.1,1.7,0.1,2.8v7.9c0,0.2-0.1,0.2-0.2,0.2h-0.3
				c-0.2,0-0.2-0.1-0.2-0.2v-11.6c0-0.2,0.1-0.2,0.2-0.2h0.3c0.1,0,0.2,0.1,0.2,0.1l5.9,8.4c0.6,0.9,1.2,1.9,1.6,2.4h0
				c0-0.7-0.1-1.9-0.1-3.1v-7.7c0-0.2,0.1-0.2,0.2-0.2h0.3C126.5,135.9,126.5,136,126.5,136.2z"/>
			<path fill="#7DA236" stroke="#7EA135" stroke-width="0.6" stroke-miterlimit="10" d="M133.2,135.7c3,0,4.6,1.6,4.6,4.2v4.1
				c0,2.6-1.6,4.2-4.6,4.2c-3,0-4.6-1.6-4.6-4.2v-4.1C128.6,137.3,130.2,135.7,133.2,135.7z M133.2,136.4c-2.5,0-3.8,1.3-3.8,3.5
				v4.1c0,2.2,1.3,3.5,3.8,3.5c2.4,0,3.8-1.3,3.8-3.5v-4.1C137,137.7,135.7,136.4,133.2,136.4z"/>
			<path fill="#7DA236" stroke="#7EA135" stroke-width="0.6" stroke-miterlimit="10" d="M143.7,135.7c2.3,0,3.6,0.8,4.5,2.6
				c0.1,0.2,0,0.2-0.1,0.3l-0.3,0.2c-0.1,0.1-0.2,0.1-0.3-0.1c-0.8-1.5-1.8-2.2-3.7-2.2c-2.2,0-3.5,1-3.5,2.6c0,2,1.9,2.3,3.8,2.5
				c2.1,0.2,4.2,0.6,4.2,3.2c0,2.2-1.5,3.5-4.5,3.5c-2.4,0-3.8-1-4.6-3c-0.1-0.2-0.1-0.2,0.1-0.3l0.3-0.1c0.2-0.1,0.2,0,0.3,0.1
				c0.7,1.7,1.9,2.5,3.8,2.5c2.4,0,3.7-0.9,3.7-2.7c0-2-1.8-2.3-3.6-2.5c-2.1-0.3-4.4-0.6-4.4-3.2C139.4,137,141,135.7,143.7,135.7z
				"/>
			<path fill="#7DA236" stroke="#7EA135" stroke-width="0.6" stroke-miterlimit="10" d="M31.1,154.7c3,0,4.6,1.6,4.6,4.2v4.1
				c0,2.6-1.6,4.2-4.6,4.2c-3,0-4.6-1.6-4.6-4.2v-4.1C26.5,156.3,28.1,154.7,31.1,154.7z M31.1,155.4c-2.5,0-3.8,1.3-3.8,3.5v4.1
				c0,2.2,1.3,3.5,3.8,3.5c2.4,0,3.8-1.3,3.8-3.5v-4.1C34.9,156.7,33.6,155.4,31.1,155.4z"/>
			<path fill="#7DA236" stroke="#7EA135" stroke-width="0.6" stroke-miterlimit="10" d="M42.1,166.5c2.5,0,3.7-1.4,3.7-3.6v-7.8
				c0-0.2,0.1-0.2,0.2-0.2h0.4c0.2,0,0.2,0.1,0.2,0.2v7.8c0,2.6-1.5,4.3-4.5,4.3c-3,0-4.5-1.7-4.5-4.3v-7.8c0-0.2,0.1-0.2,0.2-0.2
				h0.4c0.2,0,0.2,0.1,0.2,0.2v7.8C38.4,165.1,39.6,166.5,42.1,166.5z"/>
			<path fill="#7DA236" stroke="#7EA135" stroke-width="0.6" stroke-miterlimit="10" d="M61.6,161.2v2c0,2.5-1.6,4.1-4.6,4.1
				c-3,0-4.6-1.6-4.6-4.2v-4.1c0-2.6,1.6-4.2,4.6-4.2c2.6,0,3.9,1,4.5,3c0.1,0.2,0,0.2-0.2,0.3L61,158c-0.2,0.1-0.2,0-0.3-0.1
				c-0.5-1.7-1.5-2.5-3.7-2.5c-2.5,0-3.8,1.3-3.8,3.4v4.2c0,2.2,1.3,3.5,3.8,3.5c2.4,0,3.8-1.3,3.8-3.4v-1.5h-3.6
				c-0.2,0-0.2-0.1-0.2-0.2v-0.3c0-0.2,0.1-0.2,0.2-0.2h4.2C61.5,160.9,61.6,161,61.6,161.2z"/>
			<path fill="#7DA236" stroke="#7EA135" stroke-width="0.6" stroke-miterlimit="10" d="M72,158.3c0,2-1.2,3.1-3,3.3
				c0.6,0.3,1,0.7,1.4,1.4l1.9,3.8c0.1,0.1,0.1,0.2-0.1,0.2h-0.3c-0.3,0-0.4,0-0.4-0.2l-1.8-3.5c-0.6-1.1-1.2-1.6-2.6-1.6h-2.8v5.1
				c0,0.2-0.1,0.2-0.2,0.2h-0.4c-0.2,0-0.2-0.1-0.2-0.2v-11.6c0-0.2,0.1-0.2,0.2-0.2h4.9C70.7,154.9,72,156.2,72,158.3z M68.5,155.7
				h-4.2v5.3h4.2c1.7,0,2.7-0.9,2.7-2.6C71.2,156.6,70.2,155.7,68.5,155.7z"/>
			<path fill="#7DA236" stroke="#7EA135" stroke-width="0.6" stroke-miterlimit="10" d="M83,167h-0.3c-0.3,0-0.3,0-0.4-0.2l-1.5-3.8
				h-5.6l-1.5,3.8c-0.1,0.2-0.1,0.2-0.4,0.2H73c-0.2,0-0.2-0.1-0.2-0.2l4.7-11.7c0.1-0.2,0.1-0.2,0.3-0.2h0.3c0.2,0,0.2,0.1,0.3,0.2
				l4.7,11.7C83.2,166.9,83.2,167,83,167z M78,155.6L78,155.6c-0.1,0.1-0.1,0.4-0.2,0.7l-2.4,6h5.2l-2.4-6
				C78.1,156,78,155.7,78,155.6z"/>
			<path fill="#7DA236" stroke="#7EA135" stroke-width="0.6" stroke-miterlimit="10" d="M95.2,155.2v11.6c0,0.2-0.1,0.2-0.2,0.2
				h-0.3c-0.2,0-0.2-0.1-0.2-0.2V159c0-0.9,0-1.8,0.1-2.8h0c-0.4,0.9-0.8,1.6-1.3,2.4l-3,5.4c-0.1,0.1-0.1,0.2-0.3,0.2h-0.2
				c-0.2,0-0.2,0-0.3-0.2l-3.1-5.4c-0.4-0.8-0.8-1.5-1.2-2.4h0c0.1,1,0.1,1.9,0.1,2.8v7.8c0,0.2-0.1,0.2-0.2,0.2h-0.3
				c-0.2,0-0.2-0.1-0.2-0.2v-11.6c0-0.2,0.1-0.2,0.2-0.2h0.3c0.2,0,0.2,0.1,0.3,0.2l4.6,8l4.5-8c0.1-0.2,0.1-0.2,0.3-0.2H95
				C95.1,154.9,95.2,155,95.2,155.2z"/>
			<path fill="#7DA236" stroke="#7EA135" stroke-width="0.6" stroke-miterlimit="10" d="M106.2,158.6c0,2.3-1.4,3.7-3.8,3.7h-4v4.5
				c0,0.2-0.1,0.2-0.2,0.2h-0.4c-0.2,0-0.2-0.1-0.2-0.2v-11.6c0-0.2,0.1-0.2,0.2-0.2h4.6C104.7,154.9,106.2,156.3,106.2,158.6z
				 M105.4,158.6c0-1.9-1.2-3-3-3h-3.9v5.9h3.9C104.2,161.6,105.4,160.5,105.4,158.6z"/>
			<path fill="#7DA236" stroke="#7EA135" stroke-width="0.6" stroke-miterlimit="10" d="M112,154.7c3,0,4.6,1.6,4.6,4.2v4.1
				c0,2.6-1.6,4.2-4.6,4.2c-3,0-4.6-1.6-4.6-4.2v-4.1C107.4,156.3,109,154.7,112,154.7z M112,155.4c-2.5,0-3.8,1.3-3.8,3.5v4.1
				c0,2.2,1.3,3.5,3.8,3.5c2.4,0,3.8-1.3,3.8-3.5v-4.1C115.8,156.7,114.5,155.4,112,155.4z"/>
			<path fill="#7DA236" stroke="#7EA135" stroke-width="0.6" stroke-miterlimit="10" d="M122.5,154.7c2.3,0,3.6,0.8,4.5,2.6
				c0.1,0.2,0,0.2-0.1,0.3l-0.3,0.2c-0.1,0.1-0.2,0.1-0.3-0.1c-0.8-1.5-1.8-2.2-3.7-2.2c-2.2,0-3.5,1-3.5,2.6c0,2,1.9,2.3,3.8,2.5
				c2.1,0.2,4.2,0.6,4.2,3.2c0,2.2-1.5,3.5-4.5,3.5c-2.4,0-3.8-1-4.6-3c-0.1-0.2-0.1-0.2,0.1-0.3l0.3-0.1c0.2-0.1,0.2,0,0.3,0.1
				c0.7,1.7,1.9,2.5,3.8,2.5c2.4,0,3.7-0.9,3.7-2.7c0-2-1.8-2.3-3.6-2.5c-2.1-0.3-4.4-0.6-4.4-3.2
				C118.2,156,119.8,154.7,122.5,154.7z"/>
		</g>
	</g>
</g>
</svg>
