<?xml version="1.0" encoding="utf-8"?>
<!-- Generator: Adobe Illustrator 18.0.0, SVG Export Plug-In . SVG Version: 6.00 Build 0)  -->
<!DOCTYPE svg PUBLIC "-//W3C//DTD SVG 1.1//EN" "http://www.w3.org/Graphics/SVG/1.1/DTD/svg11.dtd">
<svg version="1.1" id="Camada_1" xmlns="http://www.w3.org/2000/svg" xmlns:xlink="http://www.w3.org/1999/xlink" x="0px" y="0px"
	 viewBox="0 0 152.3 170.3" enable-background="new 0 0 152.3 170.3" xml:space="preserve">
<g id="Camada_1">
	<g>
		<path fill-rule="evenodd" clip-rule="evenodd" fill="#67B22E" d="M77.9,1.3c24.6,0,44.5,19.9,44.5,44.5s-19.9,44.5-44.5,44.5
			S33.4,70.4,33.4,45.8S53.3,1.3,77.9,1.3z"/>
		<g>
			<polygon fill-rule="evenodd" clip-rule="evenodd" fill="#539032" points="121.5,45.7 98,23.2 64.1,24.7 57.7,26.4 54.9,73 
				70.7,89.3 77.7,90.2 85.1,89.3 89.7,88.5 93.2,87.4 96.1,86.4 99.7,84.3 102.4,82.8 105.7,80.3 107.7,78.5 109.9,76.7 
				111.9,74.5 114,71.9 115.8,68.9 118.1,64.7 120.6,58.3 121.7,53.8 122.4,46.4 			"/>
		</g>
		<g>
			<path fill="#7DA236" stroke="#7EA135" stroke-width="0.6" stroke-miterlimit="10" d="M14.4,105.4v0.3c0,0.2-0.1,0.2-0.2,0.2H7.8
				v4.9h5.6c0.2,0,0.2,0.1,0.2,0.2v0.3c0,0.2-0.1,0.2-0.2,0.2H7.8v5h6.6c0.2,0,0.2,0.1,0.2,0.2v0.3c0,0.2-0.1,0.2-0.2,0.2H7.3
				c-0.2,0-0.2-0.1-0.2-0.2v-11.6c0-0.2,0.1-0.2,0.2-0.2h6.9C14.4,105.2,14.4,105.3,14.4,105.4z"/>
			<path fill="#7DA236" stroke="#7EA135" stroke-width="0.6" stroke-miterlimit="10" d="M27.1,105.4v11.6c0,0.2-0.1,0.2-0.2,0.2
				h-0.3c-0.2,0-0.2-0.1-0.2-0.2v-7.8c0-0.9,0-1.8,0.1-2.8h0c-0.4,0.9-0.8,1.6-1.3,2.4l-3,5.4c-0.1,0.1-0.1,0.2-0.3,0.2h-0.2
				c-0.2,0-0.2,0-0.3-0.2l-3.1-5.4c-0.4-0.8-0.8-1.5-1.2-2.4h0c0.1,1,0.1,1.9,0.1,2.8v7.8c0,0.2-0.1,0.2-0.2,0.2h-0.3
				c-0.2,0-0.2-0.1-0.2-0.2v-11.6c0-0.2,0.1-0.2,0.2-0.2h0.3c0.2,0,0.2,0.1,0.3,0.2l4.6,8l4.5-8c0.1-0.2,0.1-0.2,0.3-0.2h0.3
				C27.1,105.2,27.1,105.3,27.1,105.4z"/>
			<path fill="#7DA236" stroke="#7EA135" stroke-width="0.6" stroke-miterlimit="10" d="M44.1,105.4v11.6c0,0.2-0.1,0.2-0.2,0.2
				h-0.3c-0.2,0-0.2-0.1-0.2-0.2v-7.8c0-0.9,0-1.8,0.1-2.8h0c-0.4,0.9-0.8,1.6-1.3,2.4l-3,5.4c-0.1,0.1-0.1,0.2-0.3,0.2h-0.2
				c-0.2,0-0.2,0-0.3-0.2l-3.1-5.4c-0.4-0.8-0.8-1.5-1.2-2.4h0c0.1,1,0.1,1.9,0.1,2.8v7.8c0,0.2-0.1,0.2-0.2,0.2h-0.3
				c-0.2,0-0.2-0.1-0.2-0.2v-11.6c0-0.2,0.1-0.2,0.2-0.2h0.3c0.2,0,0.2,0.1,0.3,0.2l4.6,8l4.5-8c0.1-0.2,0.1-0.2,0.3-0.2h0.3
				C44,105.2,44.1,105.3,44.1,105.4z"/>
			<path fill="#7DA236" stroke="#7EA135" stroke-width="0.6" stroke-miterlimit="10" d="M50.9,116.8c2.5,0,3.7-1.4,3.7-3.6v-7.8
				c0-0.2,0.1-0.2,0.2-0.2h0.4c0.2,0,0.2,0.1,0.2,0.2v7.8c0,2.6-1.5,4.3-4.5,4.3c-3,0-4.5-1.7-4.5-4.3v-7.8c0-0.2,0.1-0.2,0.2-0.2
				H47c0.2,0,0.2,0.1,0.2,0.2v7.8C47.2,115.4,48.4,116.8,50.9,116.8z"/>
			<path fill="#7DA236" stroke="#7EA135" stroke-width="0.6" stroke-miterlimit="10" d="M58,105.2h0.4c0.2,0,0.2,0.1,0.2,0.2v11.6
				c0,0.2-0.1,0.2-0.2,0.2H58c-0.2,0-0.2-0.1-0.2-0.2v-11.6C57.7,105.3,57.8,105.2,58,105.2z"/>
			<path fill="#7DA236" stroke="#7EA135" stroke-width="0.6" stroke-miterlimit="10" d="M68.4,105.4v0.3c0,0.2-0.1,0.2-0.2,0.2h-3.7
				v11.1c0,0.2-0.1,0.2-0.2,0.2h-0.4c-0.2,0-0.2-0.1-0.2-0.2V106H60c-0.2,0-0.2-0.1-0.2-0.2v-0.3c0-0.2,0.1-0.2,0.2-0.2h8.2
				C68.4,105.2,68.4,105.3,68.4,105.4z"/>
			<path fill="#7DA236" stroke="#7EA135" stroke-width="0.6" stroke-miterlimit="10" d="M73.7,105c3,0,4.6,1.6,4.6,4.2v4.1
				c0,2.6-1.6,4.2-4.6,4.2c-3,0-4.6-1.6-4.6-4.2v-4.1C69.1,106.6,70.7,105,73.7,105z M73.7,105.7c-2.5,0-3.8,1.3-3.8,3.5v4.1
				c0,2.2,1.3,3.5,3.8,3.5c2.4,0,3.8-1.3,3.8-3.5v-4.1C77.5,107,76.2,105.7,73.7,105.7z"/>
			<path fill="#7DA236" stroke="#7EA135" stroke-width="0.6" stroke-miterlimit="10" d="M84.2,105c2.3,0,3.6,0.8,4.5,2.6
				c0.1,0.2,0,0.2-0.1,0.3l-0.3,0.2c-0.1,0.1-0.2,0.1-0.3-0.1c-0.8-1.5-1.8-2.2-3.7-2.2c-2.2,0-3.5,1-3.5,2.6c0,2,1.9,2.3,3.8,2.5
				c2.1,0.2,4.2,0.6,4.2,3.2c0,2.2-1.5,3.5-4.5,3.5c-2.4,0-3.8-1-4.6-3c-0.1-0.2-0.1-0.2,0.1-0.3l0.3-0.1c0.2-0.1,0.2,0,0.3,0.1
				c0.7,1.7,1.9,2.5,3.8,2.5c2.4,0,3.7-0.9,3.7-2.7c0-2-1.8-2.3-3.6-2.5c-2.1-0.3-4.4-0.6-4.4-3.2C79.9,106.3,81.5,105,84.2,105z"/>
			<path fill="#7DA236" stroke="#7EA135" stroke-width="0.6" stroke-miterlimit="10" d="M98.6,105c2.6,0,3.9,1,4.5,3
				c0.1,0.2,0,0.2-0.2,0.3l-0.3,0.1c-0.2,0-0.2,0-0.3-0.1c-0.5-1.7-1.5-2.5-3.7-2.5c-2.5,0-3.8,1.3-3.8,3.4v4.2
				c0,2.1,1.3,3.5,3.8,3.5c2.3,0,3.2-0.9,3.8-2.6c0.1-0.2,0.1-0.2,0.3-0.1l0.3,0.1c0.2,0.1,0.2,0.1,0.1,0.3c-0.6,1.9-1.8,3-4.5,3
				c-3,0-4.6-1.6-4.6-4.2v-4.2C94.1,106.6,95.6,105,98.6,105z"/>
			<path fill="#7DA236" stroke="#7EA135" stroke-width="0.6" stroke-miterlimit="10" d="M113.7,117.3h-0.3c-0.3,0-0.3,0-0.4-0.2
				l-1.5-3.8h-5.6l-1.5,3.8c-0.1,0.2-0.1,0.2-0.4,0.2h-0.3c-0.2,0-0.2-0.1-0.2-0.2l4.7-11.7c0.1-0.2,0.1-0.2,0.3-0.2h0.3
				c0.2,0,0.2,0.1,0.3,0.2l4.7,11.7C113.9,117.2,113.9,117.3,113.7,117.3z M108.7,105.9L108.7,105.9c-0.1,0.1-0.1,0.4-0.2,0.7
				l-2.4,6h5.2l-2.4-6C108.8,106.3,108.7,106,108.7,105.9z"/>
			<path fill="#7DA236" stroke="#7EA135" stroke-width="0.6" stroke-miterlimit="10" d="M118.7,105c2.3,0,3.6,0.8,4.5,2.6
				c0.1,0.2,0,0.2-0.1,0.3l-0.3,0.2c-0.1,0.1-0.2,0.1-0.3-0.1c-0.8-1.5-1.8-2.2-3.7-2.2c-2.2,0-3.5,1-3.5,2.6c0,2,1.9,2.3,3.8,2.5
				c2.1,0.2,4.2,0.6,4.2,3.2c0,2.2-1.5,3.5-4.5,3.5c-2.4,0-3.8-1-4.6-3c-0.1-0.2-0.1-0.2,0.1-0.3l0.3-0.1c0.2-0.1,0.2,0,0.3,0.1
				c0.7,1.7,1.9,2.5,3.8,2.5c2.4,0,3.7-0.9,3.7-2.7c0-2-1.8-2.3-3.6-2.5c-2.1-0.3-4.4-0.6-4.4-3.2C114.5,106.3,116,105,118.7,105z"
				/>
			<path fill="#7DA236" stroke="#7EA135" stroke-width="0.6" stroke-miterlimit="10" d="M129.4,105c3,0,4.6,1.6,4.6,4.2v4.1
				c0,2.6-1.6,4.2-4.6,4.2c-3,0-4.6-1.6-4.6-4.2v-4.1C124.8,106.6,126.4,105,129.4,105z M129.4,105.7c-2.5,0-3.8,1.3-3.8,3.5v4.1
				c0,2.2,1.3,3.5,3.8,3.5c2.4,0,3.8-1.3,3.8-3.5v-4.1C133.1,107,131.8,105.7,129.4,105.7z"/>
			<path fill="#7DA236" stroke="#7EA135" stroke-width="0.6" stroke-miterlimit="10" d="M139.8,105c2.3,0,3.6,0.8,4.5,2.6
				c0.1,0.2,0,0.2-0.1,0.3l-0.3,0.2c-0.1,0.1-0.2,0.1-0.3-0.1c-0.8-1.5-1.8-2.2-3.7-2.2c-2.2,0-3.5,1-3.5,2.6c0,2,1.9,2.3,3.8,2.5
				c2.1,0.2,4.2,0.6,4.2,3.2c0,2.2-1.5,3.5-4.5,3.5c-2.4,0-3.8-1-4.6-3c-0.1-0.2-0.1-0.2,0.1-0.3l0.3-0.1c0.2-0.1,0.2,0,0.3,0.1
				c0.7,1.7,1.9,2.5,3.8,2.5c2.4,0,3.7-0.9,3.7-2.7c0-2-1.8-2.3-3.6-2.5c-2.1-0.3-4.4-0.6-4.4-3.2C135.6,106.3,137.1,105,139.8,105z
				"/>
			<path fill="#7DA236" stroke="#7EA135" stroke-width="0.6" stroke-miterlimit="10" d="M17.8,133.9c0,2.3-1.4,3.7-3.8,3.7h-4v4.5
				c0,0.2-0.1,0.2-0.2,0.2H9.5c-0.2,0-0.2-0.1-0.2-0.2v-11.6c0-0.2,0.1-0.2,0.2-0.2h4.6C16.3,130.2,17.8,131.6,17.8,133.9z
				 M17,133.9c0-1.9-1.2-3-3-3H10v5.9H14C15.8,136.9,17,135.8,17,133.9z"/>
			<path fill="#7DA236" stroke="#7EA135" stroke-width="0.6" stroke-miterlimit="10" d="M26.8,130.4v0.3c0,0.2-0.1,0.2-0.2,0.2h-6.4
				v4.9h5.6c0.2,0,0.2,0.1,0.2,0.2v0.3c0,0.2-0.1,0.2-0.2,0.2h-5.6v5h6.6c0.2,0,0.2,0.1,0.2,0.2v0.3c0,0.2-0.1,0.2-0.2,0.2h-7.2
				c-0.2,0-0.2-0.1-0.2-0.2v-11.6c0-0.2,0.1-0.2,0.2-0.2h6.9C26.8,130.2,26.8,130.3,26.8,130.4z"/>
			<path fill="#7DA236" stroke="#7EA135" stroke-width="0.6" stroke-miterlimit="10" d="M37.3,133.6c0,2-1.2,3.1-3,3.3
				c0.6,0.3,1,0.7,1.4,1.4l1.9,3.8c0.1,0.1,0.1,0.2-0.1,0.2h-0.3c-0.3,0-0.4,0-0.4-0.2l-1.8-3.5c-0.6-1.1-1.2-1.6-2.6-1.6h-2.8v5.1
				c0,0.2-0.1,0.2-0.2,0.2H29c-0.2,0-0.2-0.1-0.2-0.2v-11.6c0-0.2,0.1-0.2,0.2-0.2h4.9C36,130.2,37.3,131.5,37.3,133.6z M33.8,131
				h-4.2v5.3h4.2c1.7,0,2.7-0.9,2.7-2.6C36.5,131.9,35.5,131,33.8,131z"/>
			<path fill="#7DA236" stroke="#7EA135" stroke-width="0.6" stroke-miterlimit="10" d="M50,130.4v11.6c0,0.2-0.1,0.2-0.2,0.2h-0.3
				c-0.2,0-0.2-0.1-0.2-0.2v-7.8c0-0.9,0-1.8,0.1-2.8h0c-0.4,0.9-0.8,1.6-1.3,2.4l-3,5.4c-0.1,0.1-0.1,0.2-0.3,0.2h-0.2
				c-0.2,0-0.2,0-0.3-0.2l-3.1-5.4c-0.4-0.8-0.8-1.5-1.2-2.4h0c0.1,1,0.1,1.9,0.1,2.8v7.8c0,0.2-0.1,0.2-0.2,0.2h-0.3
				c-0.2,0-0.2-0.1-0.2-0.2v-11.6c0-0.2,0.1-0.2,0.2-0.2h0.3c0.2,0,0.2,0.1,0.3,0.2l4.6,8l4.5-8c0.1-0.2,0.1-0.2,0.3-0.2h0.3
				C50,130.2,50,130.3,50,130.4z"/>
			<path fill="#7DA236" stroke="#7EA135" stroke-width="0.6" stroke-miterlimit="10" d="M52.7,130.2h0.4c0.2,0,0.2,0.1,0.2,0.2v11.6
				c0,0.2-0.1,0.2-0.2,0.2h-0.4c-0.2,0-0.2-0.1-0.2-0.2v-11.6C52.5,130.3,52.5,130.2,52.7,130.2z"/>
			<path fill="#7DA236" stroke="#7EA135" stroke-width="0.6" stroke-miterlimit="10" d="M63.1,130.4v0.3c0,0.2-0.1,0.2-0.2,0.2h-3.7
				v11.1c0,0.2-0.1,0.2-0.2,0.2h-0.4c-0.2,0-0.2-0.1-0.2-0.2V131h-3.7c-0.2,0-0.2-0.1-0.2-0.2v-0.3c0-0.2,0.1-0.2,0.2-0.2h8.2
				C63.1,130.2,63.1,130.3,63.1,130.4z"/>
			<path fill="#7DA236" stroke="#7EA135" stroke-width="0.6" stroke-miterlimit="10" d="M71.8,130.4v0.3c0,0.2-0.1,0.2-0.2,0.2h-6.4
				v4.9h5.6c0.2,0,0.2,0.1,0.2,0.2v0.3c0,0.2-0.1,0.2-0.2,0.2h-5.6v5h6.6c0.2,0,0.2,0.1,0.2,0.2v0.3c0,0.2-0.1,0.2-0.2,0.2h-7.2
				c-0.2,0-0.2-0.1-0.2-0.2v-11.6c0-0.2,0.1-0.2,0.2-0.2h6.9C71.8,130.2,71.8,130.3,71.8,130.4z"/>
			<path fill="#7DA236" stroke="#7EA135" stroke-width="0.6" stroke-miterlimit="10" d="M86.1,133.6c0,2-1.2,3.1-3,3.3
				c0.6,0.3,1,0.7,1.4,1.4l1.9,3.8c0.1,0.1,0.1,0.2-0.1,0.2H86c-0.3,0-0.4,0-0.4-0.2l-1.8-3.5c-0.6-1.1-1.2-1.6-2.6-1.6h-2.8v5.1
				c0,0.2-0.1,0.2-0.2,0.2h-0.4c-0.2,0-0.2-0.1-0.2-0.2v-11.6c0-0.2,0.1-0.2,0.2-0.2h4.9C84.8,130.2,86.1,131.5,86.1,133.6z
				 M82.6,131h-4.2v5.3h4.2c1.7,0,2.7-0.9,2.7-2.6C85.3,131.9,84.3,131,82.6,131z"/>
			<path fill="#7DA236" stroke="#7EA135" stroke-width="0.6" stroke-miterlimit="10" d="M95.5,130.4v0.3c0,0.2-0.1,0.2-0.2,0.2h-6.4
				v4.9h5.6c0.2,0,0.2,0.1,0.2,0.2v0.3c0,0.2-0.1,0.2-0.2,0.2h-5.6v5h6.6c0.2,0,0.2,0.1,0.2,0.2v0.3c0,0.2-0.1,0.2-0.2,0.2h-7.2
				c-0.2,0-0.2-0.1-0.2-0.2v-11.6c0-0.2,0.1-0.2,0.2-0.2h6.9C95.4,130.2,95.5,130.3,95.5,130.4z"/>
			<path fill="#7DA236" stroke="#7EA135" stroke-width="0.6" stroke-miterlimit="10" d="M105.7,133.3c0,1.4-0.6,2.4-1.8,2.8v0
				c1.4,0.3,2.2,1.3,2.2,3c0,2.1-1.3,3.2-3.4,3.2h-5c-0.2,0-0.2-0.1-0.2-0.2v-11.6c0-0.2,0.1-0.2,0.2-0.2h4.8
				C104.5,130.2,105.7,131.3,105.7,133.3z M102.4,131h-4.2v4.8h4.2c1.6,0,2.5-0.8,2.5-2.4C104.9,131.8,104,131,102.4,131z
				 M102.7,136.5h-4.5v5.1h4.5c1.7,0,2.6-0.9,2.6-2.5C105.3,137.4,104.4,136.5,102.7,136.5z"/>
			<path fill="#7DA236" stroke="#7EA135" stroke-width="0.6" stroke-miterlimit="10" d="M112.2,130c3,0,4.6,1.6,4.6,4.2v4.1
				c0,2.6-1.6,4.2-4.6,4.2c-3,0-4.6-1.6-4.6-4.2v-4.1C107.7,131.6,109.3,130,112.2,130z M112.2,130.7c-2.5,0-3.8,1.3-3.8,3.5v4.1
				c0,2.2,1.3,3.5,3.8,3.5c2.4,0,3.8-1.3,3.8-3.5v-4.1C116,132,114.7,130.7,112.2,130.7z"/>
			<path fill="#7DA236" stroke="#7EA135" stroke-width="0.6" stroke-miterlimit="10" d="M123.1,130c2.6,0,3.9,1,4.5,3
				c0.1,0.2,0,0.2-0.2,0.3l-0.3,0.1c-0.2,0-0.2,0-0.3-0.1c-0.5-1.7-1.5-2.5-3.7-2.5c-2.5,0-3.8,1.3-3.8,3.4v4.2
				c0,2.1,1.3,3.5,3.8,3.5c2.3,0,3.2-0.9,3.8-2.6c0.1-0.2,0.1-0.2,0.3-0.1l0.3,0.1c0.2,0.1,0.2,0.1,0.1,0.3c-0.6,1.9-1.8,3-4.5,3
				c-3,0-4.6-1.6-4.6-4.2v-4.2C118.5,131.6,120.1,130,123.1,130z"/>
			<path fill="#7DA236" stroke="#7EA135" stroke-width="0.6" stroke-miterlimit="10" d="M133.6,130c3,0,4.6,1.6,4.6,4.2v4.1
				c0,2.6-1.6,4.2-4.6,4.2c-3,0-4.6-1.6-4.6-4.2v-4.1C129,131.6,130.6,130,133.6,130z M133.6,130.7c-2.5,0-3.8,1.3-3.8,3.5v4.1
				c0,2.2,1.3,3.5,3.8,3.5c2.4,0,3.8-1.3,3.8-3.5v-4.1C137.3,132,136,130.7,133.6,130.7z"/>
			<path fill="#7DA236" stroke="#7EA135" stroke-width="0.6" stroke-miterlimit="10" d="M49.7,155.4v11.6c0,0.2-0.1,0.2-0.2,0.2
				h-0.3c-0.2,0-0.2-0.1-0.2-0.2v-7.8c0-0.9,0-1.8,0.1-2.8h0c-0.4,0.9-0.8,1.6-1.3,2.4l-3,5.4c-0.1,0.1-0.1,0.2-0.3,0.2h-0.2
				c-0.2,0-0.2,0-0.3-0.2l-3.1-5.4c-0.4-0.8-0.8-1.5-1.2-2.4h0c0.1,1,0.1,1.9,0.1,2.8v7.8c0,0.2-0.1,0.2-0.2,0.2h-0.3
				c-0.2,0-0.2-0.1-0.2-0.2v-11.6c0-0.2,0.1-0.2,0.2-0.2h0.3c0.2,0,0.2,0.1,0.3,0.2l4.6,8l4.5-8c0.1-0.2,0.1-0.2,0.3-0.2h0.3
				C49.6,155.2,49.7,155.3,49.7,155.4z"/>
			<path fill="#7DA236" stroke="#7EA135" stroke-width="0.6" stroke-miterlimit="10" d="M61.1,167.3h-0.3c-0.3,0-0.3,0-0.4-0.2
				l-1.5-3.8h-5.6l-1.5,3.8c-0.1,0.2-0.1,0.2-0.4,0.2h-0.3c-0.2,0-0.2-0.1-0.2-0.2l4.7-11.7c0.1-0.2,0.1-0.2,0.3-0.2h0.3
				c0.2,0,0.2,0.1,0.3,0.2l4.7,11.7C61.3,167.2,61.3,167.3,61.1,167.3z M56.1,155.9L56.1,155.9c-0.1,0.1-0.1,0.4-0.2,0.7l-2.4,6h5.2
				l-2.4-6C56.2,156.3,56.1,156,56.1,155.9z"/>
			<path fill="#7DA236" stroke="#7EA135" stroke-width="0.6" stroke-miterlimit="10" d="M62.8,155.2h0.4c0.2,0,0.2,0.1,0.2,0.2v11.6
				c0,0.2-0.1,0.2-0.2,0.2h-0.4c-0.2,0-0.2-0.1-0.2-0.2v-11.6C62.5,155.3,62.6,155.2,62.8,155.2z"/>
			<path fill="#7DA236" stroke="#7EA135" stroke-width="0.6" stroke-miterlimit="10" d="M69.6,155c2.3,0,3.6,0.8,4.5,2.6
				c0.1,0.2,0,0.2-0.1,0.3l-0.3,0.2c-0.1,0.1-0.2,0.1-0.3-0.1c-0.8-1.5-1.8-2.2-3.7-2.2c-2.2,0-3.5,1-3.5,2.6c0,2,1.9,2.3,3.8,2.5
				c2.1,0.2,4.2,0.6,4.2,3.2c0,2.2-1.5,3.5-4.5,3.5c-2.4,0-3.8-1-4.6-3c-0.1-0.2-0.1-0.2,0.1-0.3l0.3-0.1c0.2-0.1,0.2,0,0.3,0.1
				c0.7,1.7,1.9,2.5,3.8,2.5c2.4,0,3.7-0.9,3.7-2.7c0-2-1.8-2.3-3.6-2.5c-2.1-0.3-4.4-0.6-4.4-3.2C65.3,156.3,66.9,155,69.6,155z"/>
			<path fill="#7DA236" stroke="#7EA135" stroke-width="0.6" stroke-miterlimit="10" d="M87.2,155.4v0.3c0,0.2-0.1,0.2-0.2,0.2h-6.4
				v5h5.5c0.2,0,0.2,0.1,0.2,0.2v0.3c0,0.2-0.1,0.2-0.2,0.2h-5.5v5.4c0,0.2-0.1,0.2-0.2,0.2H80c-0.2,0-0.2-0.1-0.2-0.2v-11.6
				c0-0.2,0.1-0.2,0.2-0.2H87C87.1,155.2,87.2,155.3,87.2,155.4z"/>
			<path fill="#7DA236" stroke="#7EA135" stroke-width="0.6" stroke-miterlimit="10" d="M89.1,155.2h0.4c0.2,0,0.2,0.1,0.2,0.2v11.6
				c0,0.2-0.1,0.2-0.2,0.2h-0.4c-0.2,0-0.2-0.1-0.2-0.2v-11.6C88.8,155.3,88.9,155.2,89.1,155.2z"/>
			<path fill="#7DA236" stroke="#7EA135" stroke-width="0.6" stroke-miterlimit="10" d="M101,155.4v11.6c0,0.2-0.1,0.2-0.2,0.2h-0.4
				c-0.1,0-0.2,0-0.2-0.1l-6-8.6c-0.6-0.8-1-1.7-1.4-2.2h0c0,0.6,0.1,1.7,0.1,2.8v7.9c0,0.2-0.1,0.2-0.2,0.2h-0.3
				c-0.2,0-0.2-0.1-0.2-0.2v-11.6c0-0.2,0.1-0.2,0.2-0.2h0.3c0.1,0,0.2,0.1,0.2,0.1l5.9,8.4c0.6,0.9,1.2,1.9,1.6,2.4h0
				c0-0.7-0.1-1.9-0.1-3.1v-7.7c0-0.2,0.1-0.2,0.2-0.2h0.3C100.9,155.2,101,155.3,101,155.4z"/>
			<path fill="#7DA236" stroke="#7EA135" stroke-width="0.6" stroke-miterlimit="10" d="M107.7,155c3,0,4.6,1.6,4.6,4.2v4.1
				c0,2.6-1.6,4.2-4.6,4.2c-3,0-4.6-1.6-4.6-4.2v-4.1C103.1,156.6,104.7,155,107.7,155z M107.7,155.7c-2.5,0-3.8,1.3-3.8,3.5v4.1
				c0,2.2,1.3,3.5,3.8,3.5c2.4,0,3.8-1.3,3.8-3.5v-4.1C111.4,157,110.1,155.7,107.7,155.7z"/>
		</g>
		<g>
			<g>
				<path fill="#FFFFFF" d="M57.9,22h-3.4c-0.7,0-1.1,0.4-1.1,1.1v49.1c0,0.7,0.4,1.1,1.1,1.1h3.4c0.7,0,1.1-0.4,1.1-1.1V23.1
					C58.9,22.4,58.6,22,57.9,22L57.9,22z"/>
			</g>
		</g>
		<g>
			<g>
				<path fill="#FFFFFF" d="M97.5,22.1H61.3c-0.7,0-1.1,0.4-1.1,1.1v48.4c0,0.7,0.4,1.1,1.1,1.1h36.2c0.7,0,1.1-4.4,1.1-5.1V23.2
					C98.6,22.5,98.2,22.1,97.5,22.1z M69.9,25.3c3.6,0,6.5,2.9,6.5,6.5s-2.9,6.5-6.5,6.5c-3.6,0-6.5-2.9-6.5-6.5
					S66.3,25.3,69.9,25.3z M69.9,41.3c3.6,0,6.5,2.9,6.5,6.5s-2.9,6.5-6.5,6.5c-3.6,0-6.5-2.9-6.5-6.5S66.3,41.3,69.9,41.3z
					 M69.9,70.3c-3.6,0-6.5-2.9-6.5-6.5s2.9-6.5,6.5-6.5c3.6,0,6.5,2.9,6.5,6.5S73.5,70.3,69.9,70.3z M78.4,58.3c-1.1,0-2-0.9-2-2
					c0-1.1,0.9-2,2-2c1.1,0,2,0.9,2,2C80.4,57.4,79.5,58.3,78.4,58.3z M78.4,41.3c-1.1,0-2-0.9-2-2c0-1.1,0.9-2,2-2c1.1,0,2,0.9,2,2
					C80.4,40.4,79.5,41.3,78.4,41.3z M87.9,70.3c-3.6,0-6.5-2.9-6.5-6.5s2.9-6.5,6.5-6.5c3.6,0,6.5,2.9,6.5,6.5S91.5,70.3,87.9,70.3
					z M87.9,54.3c-3.6,0-6.5-2.9-6.5-6.5s2.9-6.5,6.5-6.5c3.6,0,6.5,2.9,6.5,6.5S91.5,54.3,87.9,54.3z M87.9,38.3
					c-3.6,0-6.5-2.9-6.5-6.5s2.9-6.5,6.5-6.5c3.6,0,6.5,2.9,6.5,6.5S91.5,38.3,87.9,38.3z"/>
			</g>
		</g>
	</g>
</g>
</svg>
