<?xml version="1.0" encoding="utf-8"?>
<!-- Generator: Adobe Illustrator 18.0.0, SVG Export Plug-In . SVG Version: 6.00 Build 0)  -->
<!DOCTYPE svg PUBLIC "-//W3C//DTD SVG 1.1//EN" "http://www.w3.org/Graphics/SVG/1.1/DTD/svg11.dtd">
<svg version="1.1" id="Camada_1" xmlns="http://www.w3.org/2000/svg" xmlns:xlink="http://www.w3.org/1999/xlink" x="0px" y="0px"
	 viewBox="0 0 43 42" enable-background="new 0 0 43 42" xml:space="preserve">
<path fill-rule="evenodd" clip-rule="evenodd" fill="#0C5B2A" d="M5,0h33c2.8,0,5,2.2,5,5v32c0,2.8-2.2,5-5,5H5c-2.8,0-5-2.2-5-5V5
	C0,2.2,2.2,0,5,0z"/>
<path fill="#FFFFFF" d="M34,27.5c0.1,0.4-0.1,0.8-0.4,1.1l-3.7,3.6c-0.2,0.2-0.4,0.3-0.6,0.5c-0.3,0.1-0.5,0.2-0.8,0.2
	c0,0-0.1,0-0.2,0c-0.1,0-0.2,0-0.4,0c-0.3,0-0.9-0.1-1.7-0.2c-0.8-0.1-1.7-0.4-2.9-0.9c-1.1-0.5-2.4-1.2-3.8-2.1
	c-1.4-0.9-3-2.2-4.6-3.9c-1.3-1.3-2.3-2.5-3.2-3.6c-0.8-1.2-1.5-2.2-2-3.2c-0.5-1-0.9-1.9-1.2-2.7c-0.3-0.8-0.4-1.5-0.5-2.1
	C8,13.8,8,13.4,8,13c0-0.3,0-0.5,0-0.6c0-0.3,0.1-0.5,0.2-0.8c0.1-0.3,0.3-0.5,0.5-0.6l3.7-3.7C12.7,7.1,13,7,13.3,7
	c0.2,0,0.4,0.1,0.6,0.2c0.2,0.1,0.3,0.3,0.5,0.5l2.9,5.6c0.2,0.3,0.2,0.6,0.1,1c-0.1,0.3-0.2,0.6-0.5,0.9l-1.3,1.3
	c0,0-0.1,0.1-0.1,0.2c0,0.1,0,0.2,0,0.2c0.1,0.4,0.2,0.8,0.5,1.3c0.2,0.4,0.6,1,1,1.6c0.5,0.6,1.1,1.4,2,2.2c0.8,0.8,1.6,1.5,2.2,2
	c0.6,0.5,1.2,0.8,1.6,1c0.4,0.2,0.8,0.4,1,0.4l0.3,0.1c0,0,0.1,0,0.2,0c0.1,0,0.1-0.1,0.2-0.1l1.6-1.6c0.3-0.3,0.7-0.4,1.2-0.4
	c0.3,0,0.6,0.1,0.7,0.2h0l5.3,3.1C33.7,26.8,33.9,27.2,34,27.5z"/>
</svg>
