<?xml version="1.0" encoding="utf-8"?>
<!-- Generator: Adobe Illustrator 18.0.0, SVG Export Plug-In . SVG Version: 6.00 Build 0)  -->
<!DOCTYPE svg PUBLIC "-//W3C//DTD SVG 1.1//EN" "http://www.w3.org/Graphics/SVG/1.1/DTD/svg11.dtd">
<svg version="1.1" id="Camada_1" xmlns="http://www.w3.org/2000/svg" xmlns:xlink="http://www.w3.org/1999/xlink" x="0px" y="0px"
	 viewBox="0 0 152.3 170.3" enable-background="new 0 0 152.3 170.3" xml:space="preserve">
<path fill-rule="evenodd" clip-rule="evenodd" fill="#67B22E" d="M75.9,1c24.3,0,44,19.7,44,44s-19.7,44-44,44s-44-19.7-44-44
	S51.6,1,75.9,1z"/>
<path fill="#4B8230" d="M75.9,89c13.8,0.1,22.7-6.7,27.9-10.5C110,74,120.4,58.9,118.7,48c-1-6.7-18.5-18.2-21.1-23.8
	c-2,3.4-6.6,4-13.2,4.9c-0.3,0-5.8,0.8-16.5,2.2c-8.6,1.1-15.8,3.1-21.5,6.2c-6.3,3.3-10.5,8-12.7,14.1c-1.5,4.2-0.2,5.1-0.1,5.8
	c0.4,2.2,3.4,9.1,6.2,13.1c0.7-3.4,1.4-7.5,2.7-10.2c2.8-5.1,5.8-7.8,11.4-11c2-1.2,4.1-2.4,8.2-3.9c1.4-0.5,3.3-1.6,5.8-2.2
	c3.1-0.6,5.8-2.3,8-3.1c2.2-0.8,4.1-2.3,6.5-3.3c2-0.9,2.2-1.9,2.1-1.9c0.1,0-0.8,0.6-2.7,1.7c-2.3,1.3-4.5,2.5-6.6,3.5
	c-2.2,1.1-4.8,2.1-7.8,3c0.1,0-1.8,0.6-5.5,1.9c-3.3,1.2-6.2,2.5-8.5,4.1c-2,1.3-4.1,3-6.2,4.9c-1.9,1.7-3.5,3.9-4.7,6.7
	c-1.6,3.7-2.3,4.7-2.6,9.9c1.6,2,14.6,16.3,27.8,18L75.9,89z"/>
<path fill="#FFFFFF" d="M47.7,77.5c9.3-0.9,17.5-4.3,24.5-10.3c5.6-4.8,10.4-11.1,14.3-18.9c4.5-9,7.2-17.8,8.3-26.4
	c-2,3.4-5.6,5.8-10.7,7.3c-0.3,0.1-5.8,0.8-16.5,2.2c-8.6,1.1-15.8,3.1-21.5,6.2c-6.3,3.3-10.5,8-12.7,14.1c-1.5,4.2-2,8.2-1.3,11.8
	c0.4,2.2,1.7,3.8,3.9,4.8c0.7-3.4,1.7-6.5,3.1-9.3c2.8-5.1,7-9.3,12.5-12.5c2-1.2,5.1-2.5,9.2-4c1.4-0.5,3.3-1,5.8-1.5
	c3.1-0.6,5.7-1.3,7.9-2.1c2.2-0.8,4.5-1.7,6.9-2.7c2-0.9,3-1.3,2.9-1.3c0.1,0-0.8,0.6-2.7,1.7c-2.3,1.3-4.5,2.5-6.6,3.5
	c-2.2,1.1-4.8,2.1-7.8,3c0.1,0-1.8,0.6-5.5,1.9c-3.3,1.2-6.2,2.5-8.5,4.1c-2,1.3-4.1,3-6.2,4.9c-1.9,1.7-3.5,3.9-4.7,6.7
	c-1.6,3.7-2.6,8.2-2.9,13.5C40.8,76.1,43.6,77.2,47.7,77.5L47.7,77.5z"/>
<g>
	<path fill="#7DA135" stroke="#7EA135" stroke-width="0.6" stroke-miterlimit="10" d="M48.1,107.3c0,2.4-1.5,3.8-3.9,3.8H40v4.7
		c0,0.2-0.1,0.2-0.2,0.2h-0.4c-0.2,0-0.2-0.1-0.2-0.2v-12.2c0-0.2,0.1-0.2,0.2-0.2h4.8C46.6,103.4,48.1,104.8,48.1,107.3z
		 M47.3,107.3c0-2-1.2-3.1-3.2-3.1H40v6.2h4.1C46.1,110.4,47.3,109.2,47.3,107.3z"/>
	<path fill="#7DA135" stroke="#7EA135" stroke-width="0.6" stroke-miterlimit="10" d="M58.8,106.9c0,2-1.2,3.3-3.1,3.4
		c0.7,0.3,1.1,0.7,1.5,1.5l2,4c0.1,0.1,0.1,0.2-0.1,0.2h-0.3c-0.3,0-0.4,0-0.4-0.2l-1.9-3.7c-0.6-1.2-1.3-1.7-2.8-1.7h-2.9v5.3
		c0,0.2-0.1,0.2-0.2,0.2h-0.4c-0.2,0-0.2-0.1-0.2-0.2v-12.2c0-0.2,0.1-0.2,0.2-0.2h5.1C57.4,103.4,58.8,104.7,58.8,106.9z
		 M55.1,104.2h-4.4v5.6h4.4c1.8,0,2.9-1,2.9-2.8S56.9,104.2,55.1,104.2z"/>
	<path fill="#7DA135" stroke="#7EA135" stroke-width="0.6" stroke-miterlimit="10" d="M65.3,103.1c3.1,0,4.8,1.7,4.8,4.4v4.3
		c0,2.7-1.7,4.4-4.8,4.4c-3.1,0-4.8-1.7-4.8-4.4v-4.3C60.5,104.8,62.2,103.1,65.3,103.1z M65.3,103.9c-2.6,0-4,1.4-4,3.6v4.3
		c0,2.3,1.4,3.6,4,3.6c2.6,0,4-1.4,4-3.6v-4.3C69.3,105.3,67.9,103.9,65.3,103.9z"/>
	<path fill="#7DA135" stroke="#7EA135" stroke-width="0.6" stroke-miterlimit="10" d="M81.3,108.1v3.2c0,2.9-1.9,4.7-5.2,4.7h-3.6
		c-0.2,0-0.2-0.1-0.2-0.2v-12.2c0-0.2,0.1-0.2,0.2-0.2h3.6C79.5,103.4,81.3,105.2,81.3,108.1z M76.2,104.2h-3.1v11.1h3.1
		c2.8,0,4.3-1.5,4.3-3.9v-3.2C80.5,105.6,79,104.2,76.2,104.2z"/>
	<path fill="#7DA135" stroke="#7EA135" stroke-width="0.6" stroke-miterlimit="10" d="M88.1,115.5c2.6,0,3.9-1.5,3.9-3.8v-8.1
		c0-0.2,0.1-0.2,0.2-0.2h0.4c0.2,0,0.2,0.1,0.2,0.2v8.1c0,2.8-1.6,4.5-4.7,4.5c-3.2,0-4.7-1.8-4.7-4.5v-8.1c0-0.2,0.1-0.2,0.2-0.2
		H84c0.2,0,0.2,0.1,0.2,0.2v8.1C84.2,114.1,85.4,115.5,88.1,115.5z"/>
	<path fill="#7DA135" stroke="#7EA135" stroke-width="0.6" stroke-miterlimit="10" d="M103,103.6v0.3c0,0.2-0.1,0.2-0.2,0.2h-3.9
		v11.7c0,0.2-0.1,0.2-0.2,0.2h-0.4c-0.2,0-0.2-0.1-0.2-0.2v-11.7h-3.9c-0.2,0-0.2-0.1-0.2-0.2v-0.3c0-0.2,0.1-0.2,0.2-0.2h8.6
		C102.9,103.4,103,103.4,103,103.6z"/>
	<path fill="#7DA135" stroke="#7EA135" stroke-width="0.6" stroke-miterlimit="10" d="M108.6,103.1c3.1,0,4.8,1.7,4.8,4.4v4.3
		c0,2.7-1.7,4.4-4.8,4.4c-3.1,0-4.8-1.7-4.8-4.4v-4.3C103.8,104.8,105.4,103.1,108.6,103.1z M108.6,103.9c-2.6,0-4,1.4-4,3.6v4.3
		c0,2.3,1.4,3.6,4,3.6c2.6,0,4-1.4,4-3.6v-4.3C112.5,105.3,111.1,103.9,108.6,103.9z"/>
	<path fill="#7DA135" stroke="#7EA135" stroke-width="0.6" stroke-miterlimit="10" d="M26.2,129.3c2.4,0,3.7,0.9,4.7,2.8
		c0.1,0.2,0,0.2-0.1,0.3l-0.4,0.2c-0.1,0.1-0.2,0.1-0.3-0.1c-0.8-1.6-1.9-2.3-3.9-2.3c-2.3,0-3.6,1-3.6,2.7c0,2.1,2,2.4,4,2.7
		c2.2,0.3,4.4,0.6,4.4,3.4c0,2.3-1.6,3.6-4.7,3.6c-2.5,0-3.9-1-4.8-3.1c-0.1-0.2-0.1-0.3,0.1-0.3l0.3-0.1c0.2-0.1,0.2,0,0.3,0.1
		c0.8,1.8,2,2.6,4,2.6c2.6,0,3.9-0.9,3.9-2.8c0-2.1-1.9-2.4-3.8-2.6c-2.2-0.3-4.7-0.6-4.7-3.4C21.7,130.7,23.4,129.3,26.2,129.3z"/>
	<path fill="#7DA135" stroke="#7EA135" stroke-width="0.6" stroke-miterlimit="10" d="M37.5,141.8c2.6,0,3.9-1.5,3.9-3.8v-8.1
		c0-0.2,0.1-0.2,0.2-0.2H42c0.2,0,0.2,0.1,0.2,0.2v8.1c0,2.8-1.6,4.5-4.7,4.5c-3.2,0-4.7-1.8-4.7-4.5v-8.1c0-0.2,0.1-0.2,0.2-0.2
		h0.4c0.2,0,0.2,0.1,0.2,0.2v8.1C33.6,140.3,34.9,141.8,37.5,141.8z"/>
	<path fill="#7DA135" stroke="#7EA135" stroke-width="0.6" stroke-miterlimit="10" d="M48.7,129.3c2.4,0,3.7,0.9,4.7,2.8
		c0.1,0.2,0,0.2-0.1,0.3l-0.4,0.2c-0.1,0.1-0.2,0.1-0.3-0.1c-0.8-1.6-1.9-2.3-3.9-2.3c-2.3,0-3.6,1-3.6,2.7c0,2.1,2,2.4,4,2.7
		c2.2,0.3,4.4,0.6,4.4,3.4c0,2.3-1.6,3.6-4.7,3.6c-2.5,0-3.9-1-4.8-3.1c-0.1-0.2-0.1-0.3,0.1-0.3l0.3-0.1c0.2-0.1,0.2,0,0.3,0.1
		c0.8,1.8,2,2.6,4,2.6c2.6,0,3.9-0.9,3.9-2.8c0-2.1-1.9-2.4-3.8-2.6c-2.2-0.3-4.7-0.6-4.7-3.4C44.2,130.7,45.9,129.3,48.7,129.3z"/>
	<path fill="#7DA135" stroke="#7EA135" stroke-width="0.6" stroke-miterlimit="10" d="M63,129.8v0.3c0,0.2-0.1,0.2-0.2,0.2h-3.9V142
		c0,0.2-0.1,0.2-0.2,0.2h-0.4c-0.2,0-0.2-0.1-0.2-0.2v-11.7h-3.9c-0.2,0-0.2-0.1-0.2-0.2v-0.3c0-0.2,0.1-0.2,0.2-0.2h8.6
		C63,129.6,63,129.6,63,129.8z"/>
	<path fill="#7DA135" stroke="#7EA135" stroke-width="0.6" stroke-miterlimit="10" d="M72.1,129.8v0.3c0,0.2-0.1,0.2-0.2,0.2h-6.7
		v5.1h5.9c0.2,0,0.2,0.1,0.2,0.2v0.3c0,0.2-0.1,0.2-0.2,0.2h-5.9v5.3h6.9c0.2,0,0.2,0.1,0.2,0.2v0.3c0,0.2-0.1,0.2-0.2,0.2h-7.5
		c-0.2,0-0.2-0.1-0.2-0.2v-12.2c0-0.2,0.1-0.2,0.2-0.2h7.3C72.1,129.6,72.1,129.6,72.1,129.8z"/>
	<path fill="#7DA135" stroke="#7EA135" stroke-width="0.6" stroke-miterlimit="10" d="M83.5,129.8V142c0,0.2-0.1,0.2-0.2,0.2h-0.4
		c-0.1,0-0.2,0-0.2-0.1l-6.3-9c-0.6-0.8-1.1-1.8-1.4-2.3h0c0,0.7,0.1,1.8,0.1,2.9v8.3c0,0.2-0.1,0.2-0.2,0.2h-0.4
		c-0.2,0-0.2-0.1-0.2-0.2v-12.2c0-0.2,0.1-0.2,0.2-0.2h0.4c0.1,0,0.2,0.1,0.2,0.1l6.1,8.8c0.7,0.9,1.2,1.9,1.6,2.5h0
		c0-0.8-0.1-2-0.1-3.2v-8c0-0.2,0.1-0.2,0.2-0.2h0.4C83.5,129.6,83.5,129.6,83.5,129.8z"/>
	<path fill="#7DA135" stroke="#7EA135" stroke-width="0.6" stroke-miterlimit="10" d="M93.9,129.8v0.3c0,0.2-0.1,0.2-0.2,0.2h-3.9
		V142c0,0.2-0.1,0.2-0.2,0.2h-0.4c-0.2,0-0.2-0.1-0.2-0.2v-11.7h-3.9c-0.2,0-0.2-0.1-0.2-0.2v-0.3c0-0.2,0.1-0.2,0.2-0.2h8.6
		C93.8,129.6,93.9,129.6,93.9,129.8z"/>
	<path fill="#7DA135" stroke="#7EA135" stroke-width="0.6" stroke-miterlimit="10" d="M103.2,142.2h-0.3c-0.3,0-0.4,0-0.4-0.2
		l-1.6-3.9H95l-1.6,3.9c-0.1,0.2-0.1,0.2-0.4,0.2h-0.3c-0.2,0-0.2-0.1-0.2-0.2l4.9-12.3c0.1-0.2,0.1-0.2,0.3-0.2h0.4
		c0.2,0,0.3,0.1,0.3,0.2l4.9,12.3C103.4,142.2,103.4,142.2,103.2,142.2z M97.9,130.3L97.9,130.3c-0.1,0.1-0.1,0.4-0.2,0.8l-2.5,6.3
		h5.4l-2.5-6.3C98,130.7,98,130.4,97.9,130.3z M99.6,126.3l0.2,0.2c0.1,0.1,0.1,0.2,0,0.3l-3.2,1.8c-0.1,0.1-0.2,0.1-0.3,0l-0.1-0.1
		c-0.1-0.1-0.1-0.2,0-0.2l3-1.9C99.3,126.2,99.5,126.2,99.6,126.3z"/>
	<path fill="#7DA135" stroke="#7EA135" stroke-width="0.6" stroke-miterlimit="10" d="M112.9,129.8l-4.8,12.2
		c-0.1,0.2-0.1,0.2-0.3,0.2h-0.3c-0.2,0-0.2-0.1-0.3-0.2l-4.8-12.2c-0.1-0.1,0-0.2,0.1-0.2h0.3c0.3,0,0.3,0,0.4,0.2l4,10.2
		c0.2,0.4,0.3,1,0.4,1.2h0.1c0.1-0.2,0.2-0.7,0.4-1.2l3.9-10.2c0.1-0.2,0.1-0.2,0.4-0.2h0.3C112.9,129.6,112.9,129.7,112.9,129.8z"
		/>
	<path fill="#7DA135" stroke="#7EA135" stroke-width="0.6" stroke-miterlimit="10" d="M122,129.8v0.3c0,0.2-0.1,0.2-0.2,0.2h-6.7
		v5.1h5.9c0.2,0,0.2,0.1,0.2,0.2v0.3c0,0.2-0.1,0.2-0.2,0.2h-5.9v5.3h6.9c0.2,0,0.2,0.1,0.2,0.2v0.3c0,0.2-0.1,0.2-0.2,0.2h-7.5
		c-0.2,0-0.2-0.1-0.2-0.2v-12.2c0-0.2,0.1-0.2,0.2-0.2h7.3C121.9,129.6,122,129.6,122,129.8z"/>
	<path fill="#7DA135" stroke="#7EA135" stroke-width="0.6" stroke-miterlimit="10" d="M124.9,129.8v11.7h6.5c0.2,0,0.2,0.1,0.2,0.2
		v0.3c0,0.2-0.1,0.2-0.2,0.2h-7.1c-0.2,0-0.2-0.1-0.2-0.2v-12.2c0-0.2,0.1-0.2,0.2-0.2h0.4C124.8,129.6,124.9,129.6,124.9,129.8z"/>
</g>
</svg>
