<?xml version="1.0" encoding="utf-8"?>
<!-- Generator: Adobe Illustrator 18.0.0, SVG Export Plug-In . SVG Version: 6.00 Build 0)  -->
<!DOCTYPE svg PUBLIC "-//W3C//DTD SVG 1.1//EN" "http://www.w3.org/Graphics/SVG/1.1/DTD/svg11.dtd">
<svg version="1.1" id="Camada_1" xmlns="http://www.w3.org/2000/svg" xmlns:xlink="http://www.w3.org/1999/xlink" x="0px" y="0px"
	 viewBox="0 0 152.3 170.3" enable-background="new 0 0 152.3 170.3" xml:space="preserve">
<path fill-rule="evenodd" clip-rule="evenodd" fill="#67B22E" d="M76.2,1.3c24.6,0,44.5,19.9,44.5,44.5s-19.9,44.5-44.5,44.5
	c-24.6,0-44.5-19.9-44.5-44.5S51.6,1.3,76.2,1.3z"/>
<path fill="#539032" d="M70.5,90L56.6,73.9l10-30.8l-1.3-2.5L62,36.3l0.4-8.4l4.3-6.2l5-5.4l9.4-3l37.7,37.4
	c0.6,0.6,0.9,1.3,1.1,2.1l0.2,1.3l-1.1,3.4l-1,4.4l-2.3,4.7l-4.9,7.5l-5,5l-6,4.7L92.5,87l-4.8,1.8l-6.8,1.3
	C79.3,90.3,72.1,90.5,70.5,90z"/>
<path fill="#FFFFFF" d="M96.5,70.6c-0.3-1.2-5.9-21.9-6.7-24.7c-0.8-2.8-2.7-3.6-4.9-3.6c-0.8,0-3.7,0-7.2,0v-2.6
	c13.5-1.2,17.1-11.2,17.1-11.2H55.7c0,0,3,10.5,17.4,11.2v2.5c-3.3,0-6,0-6.7,0c-2.2,0-4.2,0.8-5,3.6c-0.8,2.8-6.3,23.5-6.7,24.7
	c-0.4,1.5-0.3,3.4,2.7,3.4c0.3,0,1.1,0,2.1,0v1.6h31.6V74c1.2,0,2.1,0,2.5,0C96.8,74,96.9,72.1,96.5,70.6z M75.7,45
	c7.3,0,13.2,5.9,13.2,13.1c0,7.2-5.9,13.1-13.2,13.1c-7.3,0-13.2-5.9-13.2-13.1C62.5,50.9,68.4,45,75.7,45z"/>
<path fill="#FFFFFF" d="M68.1,52.4l-1.4-1L66.3,52l1.3,0.9C67.8,52.7,67.9,52.5,68.1,52.4z"/>
<path fill="#FFFFFF" d="M71.8,49.4l-0.7-1.5l-0.6,0.3l0.8,1.5C71.4,49.6,71.6,49.5,71.8,49.4z"/>
<path fill="#FFFFFF" d="M66.1,58.1c0-0.1,0-0.1,0-0.2h-1.7v0.7h1.7C66.1,58.4,66.1,58.3,66.1,58.1z"/>
<path fill="#FFFFFF" d="M86,53.1l-0.3-0.6L84,53.5c0.1,0.2,0.2,0.4,0.3,0.6L86,53.1z"/>
<path fill="#FFFFFF" d="M82,48.7l-0.6-0.4l-1,1.6c0.2,0.1,0.4,0.2,0.6,0.3L82,48.7z"/>
<path fill="#FFFFFF" d="M76.2,48.7v-1.8h-0.7v1.7c0.1,0,0.1,0,0.2,0C75.8,48.6,76,48.6,76.2,48.7z"/>
<path fill="#FFFFFF" d="M81.2,68.3l-0.9-1.8c-0.2,0.1-0.4,0.2-0.6,0.3l0.9,1.8L81.2,68.3z"/>
<path fill="#FFFFFF" d="M85.3,64.6l-1.7-1.2c-0.1,0.2-0.3,0.4-0.4,0.5l1.7,1.2L85.3,64.6z"/>
<path fill="#FFFFFF" d="M85.2,58.1c0,0.2,0,0.3,0,0.5h2v-0.7h-2C85.2,58,85.2,58.1,85.2,58.1z"/>
<path fill="#FFFFFF" d="M75.5,67.7v2h0.7v-2c-0.2,0-0.3,0.1-0.5,0.1C75.6,67.7,75.5,67.7,75.5,67.7z"/>
<path fill="#FFFFFF" d="M67.2,62.5l-1.6,0.8L66,64l1.6-0.8C67.4,62.9,67.3,62.7,67.2,62.5z"/>
<path fill="#FFFFFF" d="M71.2,66.5c-0.2-0.1-0.4-0.2-0.6-0.3l-1,1.6l0.6,0.4L71.2,66.5z"/>
<path fill="#FFFFFF" d="M71.6,64.8l0.5,0.3l3.3-5.5c0.1,0,0.3,0.1,0.4,0.1c1.2,0,2.1-0.9,2.1-2.1c0-1.2-0.9-2.1-2.1-2.1
	c-1.2,0-2.1,0.9-2.1,2.1c0,0.7,0.3,1.2,0.8,1.6L71.6,64.8z M75.9,57c0.3,0,0.6,0.3,0.6,0.6c0,0.3-0.3,0.6-0.6,0.6
	c-0.3,0-0.6-0.3-0.6-0.6C75.3,57.2,75.5,57,75.9,57z"/>
<path fill="#FFFFFF" d="M88.1,23.3H61.5c-0.6,0-0.8,0.2-0.8,0.8v1.7c0,0.6,0.2,0.8,0.8,0.8h26.6c0.6,0,0.8-0.2,0.8-0.8v-1.7
	C89,23.5,88.8,23.3,88.1,23.3z"/>
<path fill="#FFFFFF" d="M85.1,17.3H65.5c-0.6,0-0.8,0.2-0.8,0.8v1.7c0,0.6,0.2,0.8,0.8,0.8h19.6c0.6,0,0.8-0.2,0.8-0.8v-1.7
	C86,17.5,85.8,17.3,85.1,17.3z"/>
<path fill="#FFFFFF" d="M80.1,12.3h-9.6c-0.6,0-0.8,0.2-0.8,0.8v1.7c0,0.6,0.2,0.8,0.8,0.8h9.6c0.6,0,0.8-0.2,0.8-0.8v-1.7
	C81,12.5,80.8,12.3,80.1,12.3z"/>
<g>
	<path fill="#7DA236" stroke="#7EA135" stroke-width="0.6" stroke-miterlimit="10" d="M52.7,109.3c0,2-1.2,3.1-3,3.3
		c0.6,0.3,1,0.7,1.4,1.4l1.9,3.8c0.1,0.1,0.1,0.2-0.1,0.2h-0.3c-0.3,0-0.4,0-0.4-0.2l-1.8-3.5c-0.6-1.1-1.2-1.6-2.6-1.6h-2.8v5.1
		c0,0.2-0.1,0.2-0.2,0.2h-0.4c-0.2,0-0.2-0.1-0.2-0.2v-11.6c0-0.2,0.1-0.2,0.2-0.2h4.9C51.4,105.9,52.7,107.2,52.7,109.3z
		 M49.2,106.7h-4.2v5.3h4.2c1.7,0,2.7-0.9,2.7-2.6C51.9,107.6,50.9,106.7,49.2,106.7z"/>
	<path fill="#7DA236" stroke="#7EA135" stroke-width="0.6" stroke-miterlimit="10" d="M62.1,106.2v0.3c0,0.2-0.1,0.2-0.2,0.2h-6.4
		v4.9h5.6c0.2,0,0.2,0.1,0.2,0.2v0.3c0,0.2-0.1,0.2-0.2,0.2h-5.6v5h6.6c0.2,0,0.2,0.1,0.2,0.2v0.3c0,0.2-0.1,0.2-0.2,0.2h-7.2
		c-0.2,0-0.2-0.1-0.2-0.2v-11.6c0-0.2,0.1-0.2,0.2-0.2h6.9C62,105.9,62.1,106,62.1,106.2z"/>
	<path fill="#7DA236" stroke="#7EA135" stroke-width="0.6" stroke-miterlimit="10" d="M67.9,105.7c2.3,0,3.6,0.8,4.5,2.6
		c0.1,0.2,0,0.2-0.1,0.3l-0.3,0.2c-0.1,0.1-0.2,0.1-0.3-0.1c-0.8-1.5-1.8-2.2-3.7-2.2c-2.2,0-3.5,1-3.5,2.6c0,2,1.9,2.3,3.8,2.5
		c2.1,0.2,4.2,0.6,4.2,3.2c0,2.2-1.5,3.5-4.5,3.5c-2.4,0-3.8-1-4.6-3c-0.1-0.2-0.1-0.2,0.1-0.3l0.3-0.1c0.2-0.1,0.2,0,0.3,0.1
		c0.7,1.7,1.9,2.5,3.8,2.5c2.4,0,3.7-0.9,3.7-2.7c0-2-1.8-2.3-3.6-2.5c-2.1-0.3-4.4-0.6-4.4-3.2C63.6,107,65.2,105.7,67.9,105.7z"/>
	<path fill="#7DA236" stroke="#7EA135" stroke-width="0.6" stroke-miterlimit="10" d="M78.6,117.5c2.5,0,3.7-1.4,3.7-3.6v-7.8
		c0-0.2,0.1-0.2,0.2-0.2h0.4c0.2,0,0.2,0.1,0.2,0.2v7.8c0,2.6-1.5,4.3-4.5,4.3c-3,0-4.5-1.7-4.5-4.3v-7.8c0-0.2,0.1-0.2,0.2-0.2h0.4
		c0.2,0,0.2,0.1,0.2,0.2v7.8C74.9,116.1,76.1,117.5,78.6,117.5z"/>
	<path fill="#7DA236" stroke="#7EA135" stroke-width="0.6" stroke-miterlimit="10" d="M86.2,106.2v11.1h6.2c0.2,0,0.2,0.1,0.2,0.2
		v0.3c0,0.2-0.1,0.2-0.2,0.2h-6.7c-0.2,0-0.2-0.1-0.2-0.2v-11.6c0-0.2,0.1-0.2,0.2-0.2H86C86.2,105.9,86.2,106,86.2,106.2z"/>
	<path fill="#7DA236" stroke="#7EA135" stroke-width="0.6" stroke-miterlimit="10" d="M99.1,106.2v0.3c0,0.2-0.1,0.2-0.2,0.2h-3.7
		v11.1c0,0.2-0.1,0.2-0.2,0.2h-0.4c-0.2,0-0.2-0.1-0.2-0.2v-11.1h-3.7c-0.2,0-0.2-0.1-0.2-0.2v-0.3c0-0.2,0.1-0.2,0.2-0.2h8.2
		C99.1,105.9,99.1,106,99.1,106.2z"/>
	<path fill="#7DA236" stroke="#7EA135" stroke-width="0.6" stroke-miterlimit="10" d="M108,118h-0.3c-0.3,0-0.3,0-0.4-0.2l-1.5-3.8
		h-5.6l-1.5,3.8c-0.1,0.2-0.1,0.2-0.4,0.2H98c-0.2,0-0.2-0.1-0.2-0.2l4.7-11.7c0.1-0.2,0.1-0.2,0.3-0.2h0.3c0.2,0,0.2,0.1,0.3,0.2
		l4.7,11.7C108.2,117.9,108.2,118,108,118z M103,106.6L103,106.6c-0.1,0.1-0.1,0.4-0.2,0.7l-2.4,6h5.2l-2.4-6
		C103.1,107,103,106.7,103,106.6z"/>
	<path fill="#7DA236" stroke="#7EA135" stroke-width="0.6" stroke-miterlimit="10" d="M29,131.2v0.3c0,0.2-0.1,0.2-0.2,0.2h-6.4v4.9
		h5.6c0.2,0,0.2,0.1,0.2,0.2v0.3c0,0.2-0.1,0.2-0.2,0.2h-5.6v5H29c0.2,0,0.2,0.1,0.2,0.2v0.3c0,0.2-0.1,0.2-0.2,0.2h-7.2
		c-0.2,0-0.2-0.1-0.2-0.2v-11.6c0-0.2,0.1-0.2,0.2-0.2h6.9C29,130.9,29,131,29,131.2z"/>
	<path fill="#7DA236" stroke="#7EA135" stroke-width="0.6" stroke-miterlimit="10" d="M41.7,131.2v11.6c0,0.2-0.1,0.2-0.2,0.2h-0.3
		c-0.2,0-0.2-0.1-0.2-0.2V135c0-0.9,0-1.8,0.1-2.8h0c-0.4,0.9-0.8,1.6-1.3,2.4l-3,5.4c-0.1,0.1-0.1,0.2-0.3,0.2h-0.2
		c-0.2,0-0.2,0-0.3-0.2l-3.1-5.4c-0.4-0.8-0.8-1.5-1.2-2.4h0c0.1,1,0.1,1.9,0.1,2.8v7.8c0,0.2-0.1,0.2-0.2,0.2h-0.3
		c-0.2,0-0.2-0.1-0.2-0.2v-11.6c0-0.2,0.1-0.2,0.2-0.2h0.3c0.2,0,0.2,0.1,0.3,0.2l4.6,8l4.5-8c0.1-0.2,0.1-0.2,0.3-0.2h0.3
		C41.7,130.9,41.7,131,41.7,131.2z"/>
	<path fill="#7DA236" stroke="#7EA135" stroke-width="0.6" stroke-miterlimit="10" d="M52.4,142.5c2.5,0,3.7-1.4,3.7-3.6v-7.8
		c0-0.2,0.1-0.2,0.2-0.2h0.4c0.2,0,0.2,0.1,0.2,0.2v7.8c0,2.6-1.5,4.3-4.5,4.3c-3,0-4.5-1.7-4.5-4.3v-7.8c0-0.2,0.1-0.2,0.2-0.2h0.4
		c0.2,0,0.2,0.1,0.2,0.2v7.8C48.7,141.1,49.9,142.5,52.4,142.5z"/>
	<path fill="#7DA236" stroke="#7EA135" stroke-width="0.6" stroke-miterlimit="10" d="M69.9,131.2v11.6c0,0.2-0.1,0.2-0.2,0.2h-0.3
		c-0.2,0-0.2-0.1-0.2-0.2V135c0-0.9,0-1.8,0.1-2.8h0c-0.4,0.9-0.8,1.6-1.3,2.4l-3,5.4c-0.1,0.1-0.1,0.2-0.3,0.2h-0.2
		c-0.2,0-0.2,0-0.3-0.2l-3.1-5.4c-0.4-0.8-0.8-1.5-1.2-2.4h0c0.1,1,0.1,1.9,0.1,2.8v7.8c0,0.2-0.1,0.2-0.2,0.2h-0.3
		c-0.2,0-0.2-0.1-0.2-0.2v-11.6c0-0.2,0.1-0.2,0.2-0.2h0.3c0.2,0,0.2,0.1,0.3,0.2l4.6,8l4.5-8c0.1-0.2,0.1-0.2,0.3-0.2h0.3
		C69.8,130.9,69.9,131,69.9,131.2z"/>
	<path fill="#7DA236" stroke="#7EA135" stroke-width="0.6" stroke-miterlimit="10" d="M86.9,131.2v11.6c0,0.2-0.1,0.2-0.2,0.2h-0.3
		c-0.2,0-0.2-0.1-0.2-0.2V135c0-0.9,0-1.8,0.1-2.8h0c-0.4,0.9-0.8,1.6-1.3,2.4l-3,5.4c-0.1,0.1-0.1,0.2-0.3,0.2h-0.2
		c-0.2,0-0.2,0-0.3-0.2l-3.1-5.4c-0.4-0.8-0.8-1.5-1.2-2.4h0c0.1,1,0.1,1.9,0.1,2.8v7.8c0,0.2-0.1,0.2-0.2,0.2h-0.3
		c-0.2,0-0.2-0.1-0.2-0.2v-11.6c0-0.2,0.1-0.2,0.2-0.2h0.3c0.2,0,0.2,0.1,0.3,0.2l4.6,8l4.5-8c0.1-0.2,0.1-0.2,0.3-0.2h0.3
		C86.8,130.9,86.9,131,86.9,131.2z"/>
	<path fill="#7DA236" stroke="#7EA135" stroke-width="0.6" stroke-miterlimit="10" d="M96.7,131.2v0.3c0,0.2-0.1,0.2-0.2,0.2h-6.4
		v4.9h5.6c0.2,0,0.2,0.1,0.2,0.2v0.3c0,0.2-0.1,0.2-0.2,0.2h-5.6v5h6.6c0.2,0,0.2,0.1,0.2,0.2v0.3c0,0.2-0.1,0.2-0.2,0.2h-7.2
		c-0.2,0-0.2-0.1-0.2-0.2v-11.6c0-0.2,0.1-0.2,0.2-0.2h6.9C96.7,130.9,96.7,131,96.7,131.2z"/>
	<path fill="#7DA236" stroke="#7EA135" stroke-width="0.6" stroke-miterlimit="10" d="M107.6,131.2v11.6c0,0.2-0.1,0.2-0.2,0.2H107
		c-0.1,0-0.2,0-0.2-0.1l-6-8.6c-0.6-0.8-1-1.7-1.4-2.2h0c0,0.6,0.1,1.7,0.1,2.8v7.9c0,0.2-0.1,0.2-0.2,0.2h-0.3
		c-0.2,0-0.2-0.1-0.2-0.2v-11.6c0-0.2,0.1-0.2,0.2-0.2h0.3c0.1,0,0.2,0.1,0.2,0.1l5.9,8.4c0.6,0.9,1.2,1.9,1.6,2.4h0
		c0-0.7-0.1-1.9-0.1-3.1v-7.7c0-0.2,0.1-0.2,0.2-0.2h0.3C107.5,130.9,107.6,131,107.6,131.2z"/>
	<path fill="#7DA236" stroke="#7EA135" stroke-width="0.6" stroke-miterlimit="10" d="M114.3,130.7c3,0,4.6,1.6,4.6,4.2v4.1
		c0,2.6-1.6,4.2-4.6,4.2c-3,0-4.6-1.6-4.6-4.2v-4.1C109.7,132.3,111.3,130.7,114.3,130.7z M114.3,131.4c-2.5,0-3.8,1.3-3.8,3.5v4.1
		c0,2.2,1.3,3.5,3.8,3.5c2.4,0,3.8-1.3,3.8-3.5v-4.1C118,132.7,116.7,131.4,114.3,131.4z"/>
	<path fill="#7DA236" stroke="#7EA135" stroke-width="0.6" stroke-miterlimit="10" d="M129.5,134.3c0,2-1.2,3.1-3,3.3
		c0.6,0.3,1,0.7,1.4,1.4l1.9,3.8c0.1,0.1,0.1,0.2-0.1,0.2h-0.3c-0.3,0-0.4,0-0.4-0.2l-1.8-3.5c-0.6-1.1-1.2-1.6-2.6-1.6h-2.8v5.1
		c0,0.2-0.1,0.2-0.2,0.2h-0.4c-0.2,0-0.2-0.1-0.2-0.2v-11.6c0-0.2,0.1-0.2,0.2-0.2h4.9C128.2,130.9,129.5,132.2,129.5,134.3z
		 M125.9,131.7h-4.2v5.3h4.2c1.7,0,2.7-0.9,2.7-2.6C128.7,132.6,127.7,131.7,125.9,131.7z"/>
	<path fill="#7DA236" stroke="#7EA135" stroke-width="0.6" stroke-miterlimit="10" d="M13.5,159.6c0,2.3-1.4,3.7-3.8,3.7h-4v4.5
		c0,0.2-0.1,0.2-0.2,0.2H5.1c-0.2,0-0.2-0.1-0.2-0.2v-11.6c0-0.2,0.1-0.2,0.2-0.2h4.6C12,155.9,13.5,157.3,13.5,159.6z M12.6,159.6
		c0-1.9-1.2-3-3-3H5.7v5.9h3.9C11.5,162.6,12.6,161.5,12.6,159.6z"/>
	<path fill="#7DA236" stroke="#7EA135" stroke-width="0.6" stroke-miterlimit="10" d="M22.4,156.2v0.3c0,0.2-0.1,0.2-0.2,0.2h-6.4
		v4.9h5.6c0.2,0,0.2,0.1,0.2,0.2v0.3c0,0.2-0.1,0.2-0.2,0.2h-5.6v5h6.6c0.2,0,0.2,0.1,0.2,0.2v0.3c0,0.2-0.1,0.2-0.2,0.2h-7.2
		c-0.2,0-0.2-0.1-0.2-0.2v-11.6c0-0.2,0.1-0.2,0.2-0.2h6.9C22.4,155.9,22.4,156,22.4,156.2z"/>
	<path fill="#7DA236" stroke="#7EA135" stroke-width="0.6" stroke-miterlimit="10" d="M28.2,155.7c2.3,0,3.6,0.8,4.5,2.6
		c0.1,0.2,0,0.2-0.1,0.3l-0.3,0.2c-0.1,0.1-0.2,0.1-0.3-0.1c-0.8-1.5-1.8-2.2-3.7-2.2c-2.2,0-3.5,1-3.5,2.6c0,2,1.9,2.3,3.8,2.5
		c2.1,0.2,4.2,0.6,4.2,3.2c0,2.2-1.5,3.5-4.5,3.5c-2.4,0-3.8-1-4.6-3c-0.1-0.2-0.1-0.2,0.1-0.3l0.3-0.1c0.2-0.1,0.2,0,0.3,0.1
		c0.7,1.7,1.9,2.5,3.8,2.5c2.4,0,3.7-0.9,3.7-2.7c0-2-1.8-2.3-3.6-2.5c-2.1-0.3-4.4-0.6-4.4-3.2C24,157,25.6,155.7,28.2,155.7z"/>
	<path fill="#7DA236" stroke="#7EA135" stroke-width="0.6" stroke-miterlimit="10" d="M38.9,155.7c3,0,4.6,1.6,4.6,4.2v4.1
		c0,2.6-1.6,4.2-4.6,4.2c-3,0-4.6-1.6-4.6-4.2v-4.1C34.3,157.3,35.9,155.7,38.9,155.7z M38.9,156.4c-2.5,0-3.8,1.3-3.8,3.5v4.1
		c0,2.2,1.3,3.5,3.8,3.5c2.4,0,3.8-1.3,3.8-3.5v-4.1C42.7,157.7,41.3,156.4,38.9,156.4z"/>
	<path fill="#7DA236" stroke="#7EA135" stroke-width="0.6" stroke-miterlimit="10" d="M56.7,156.2v0.3c0,0.2-0.1,0.2-0.2,0.2h-6.4
		v4.9h5.6c0.2,0,0.2,0.1,0.2,0.2v0.3c0,0.2-0.1,0.2-0.2,0.2h-5.6v5h6.6c0.2,0,0.2,0.1,0.2,0.2v0.3c0,0.2-0.1,0.2-0.2,0.2h-7.2
		c-0.2,0-0.2-0.1-0.2-0.2v-11.6c0-0.2,0.1-0.2,0.2-0.2h6.9C56.7,155.9,56.7,156,56.7,156.2z"/>
	<path fill="#7DA236" stroke="#7EA135" stroke-width="0.6" stroke-miterlimit="10" d="M62.5,155.7c2.3,0,3.6,0.8,4.5,2.6
		c0.1,0.2,0,0.2-0.1,0.3l-0.3,0.2c-0.1,0.1-0.2,0.1-0.3-0.1c-0.8-1.5-1.8-2.2-3.7-2.2c-2.2,0-3.5,1-3.5,2.6c0,2,1.9,2.3,3.8,2.5
		c2.1,0.2,4.2,0.6,4.2,3.2c0,2.2-1.5,3.5-4.5,3.5c-2.4,0-3.8-1-4.6-3c-0.1-0.2-0.1-0.2,0.1-0.3l0.3-0.1c0.2-0.1,0.2,0,0.3,0.1
		c0.7,1.7,1.9,2.5,3.8,2.5c2.4,0,3.7-0.9,3.7-2.7c0-2-1.8-2.3-3.6-2.5c-2.1-0.3-4.4-0.6-4.4-3.2C58.2,157,59.8,155.7,62.5,155.7z"/>
	<path fill="#7DA236" stroke="#7EA135" stroke-width="0.6" stroke-miterlimit="10" d="M76.2,156.2v0.3c0,0.2-0.1,0.2-0.2,0.2h-3.7
		v11.1c0,0.2-0.1,0.2-0.2,0.2h-0.4c-0.2,0-0.2-0.1-0.2-0.2v-11.1h-3.7c-0.2,0-0.2-0.1-0.2-0.2v-0.3c0-0.2,0.1-0.2,0.2-0.2H76
		C76.2,155.9,76.2,156,76.2,156.2z"/>
	<path fill="#7DA236" stroke="#7EA135" stroke-width="0.6" stroke-miterlimit="10" d="M86,159.3c0,2-1.2,3.1-3,3.3
		c0.6,0.3,1,0.7,1.4,1.4l1.9,3.8c0.1,0.1,0.1,0.2-0.1,0.2h-0.3c-0.3,0-0.4,0-0.4-0.2l-1.8-3.5c-0.6-1.1-1.2-1.6-2.6-1.6h-2.8v5.1
		c0,0.2-0.1,0.2-0.2,0.2h-0.4c-0.2,0-0.2-0.1-0.2-0.2v-11.6c0-0.2,0.1-0.2,0.2-0.2h4.9C84.7,155.9,86,157.2,86,159.3z M82.5,156.7
		h-4.2v5.3h4.2c1.7,0,2.7-0.9,2.7-2.6C85.2,157.6,84.2,156.7,82.5,156.7z"/>
	<path fill="#7DA236" stroke="#7EA135" stroke-width="0.6" stroke-miterlimit="10" d="M92.4,167.5c2.5,0,3.7-1.4,3.7-3.6v-7.8
		c0-0.2,0.1-0.2,0.2-0.2h0.4c0.2,0,0.2,0.1,0.2,0.2v7.8c0,2.6-1.5,4.3-4.5,4.3c-3,0-4.5-1.7-4.5-4.3v-7.8c0-0.2,0.1-0.2,0.2-0.2h0.4
		c0.2,0,0.2,0.1,0.2,0.2v7.8C88.7,166.1,89.9,167.5,92.4,167.5z"/>
	<path fill="#7DA236" stroke="#7EA135" stroke-width="0.6" stroke-miterlimit="10" d="M106.7,156.2v0.3c0,0.2-0.1,0.2-0.2,0.2h-3.7
		v11.1c0,0.2-0.1,0.2-0.2,0.2h-0.4c-0.2,0-0.2-0.1-0.2-0.2v-11.1h-3.7c-0.2,0-0.2-0.1-0.2-0.2v-0.3c0-0.2,0.1-0.2,0.2-0.2h8.2
		C106.6,155.9,106.7,156,106.7,156.2z"/>
	<path fill="#7DA236" stroke="#7EA135" stroke-width="0.6" stroke-miterlimit="10" d="M112.3,167.5c2.5,0,3.7-1.4,3.7-3.6v-7.8
		c0-0.2,0.1-0.2,0.2-0.2h0.4c0.2,0,0.2,0.1,0.2,0.2v7.8c0,2.6-1.5,4.3-4.5,4.3c-3,0-4.5-1.7-4.5-4.3v-7.8c0-0.2,0.1-0.2,0.2-0.2h0.4
		c0.2,0,0.2,0.1,0.2,0.2v7.8C108.6,166.1,109.8,167.5,112.3,167.5z"/>
	<path fill="#7DA236" stroke="#7EA135" stroke-width="0.6" stroke-miterlimit="10" d="M127.7,159.3c0,2-1.2,3.1-3,3.3
		c0.6,0.3,1,0.7,1.4,1.4l1.9,3.8c0.1,0.1,0.1,0.2-0.1,0.2h-0.3c-0.3,0-0.4,0-0.4-0.2l-1.8-3.5c-0.6-1.1-1.2-1.6-2.6-1.6h-2.8v5.1
		c0,0.2-0.1,0.2-0.2,0.2h-0.4c-0.2,0-0.2-0.1-0.2-0.2v-11.6c0-0.2,0.1-0.2,0.2-0.2h4.9C126.4,155.9,127.7,157.2,127.7,159.3z
		 M124.2,156.7h-4.2v5.3h4.2c1.7,0,2.7-0.9,2.7-2.6C126.9,157.6,125.9,156.7,124.2,156.7z"/>
	<path fill="#7DA236" stroke="#7EA135" stroke-width="0.6" stroke-miterlimit="10" d="M138.7,168h-0.3c-0.3,0-0.3,0-0.4-0.2
		l-1.5-3.8h-5.6l-1.5,3.8c-0.1,0.2-0.1,0.2-0.4,0.2h-0.3c-0.2,0-0.2-0.1-0.2-0.2l4.7-11.7c0.1-0.2,0.1-0.2,0.3-0.2h0.3
		c0.2,0,0.2,0.1,0.3,0.2l4.7,11.7C138.9,167.9,138.8,168,138.7,168z M133.7,156.6L133.7,156.6c-0.1,0.1-0.1,0.4-0.2,0.7l-2.4,6h5.2
		l-2.4-6C133.7,157,133.7,156.7,133.7,156.6z"/>
	<path fill="#7DA236" stroke="#7EA135" stroke-width="0.6" stroke-miterlimit="10" d="M140.9,156.2v11.1h6.2c0.2,0,0.2,0.1,0.2,0.2
		v0.3c0,0.2-0.1,0.2-0.2,0.2h-6.7c-0.2,0-0.2-0.1-0.2-0.2v-11.6c0-0.2,0.1-0.2,0.2-0.2h0.4C140.8,155.9,140.9,156,140.9,156.2z"/>
</g>
</svg>
