<?xml version="1.0" encoding="utf-8"?>
<!-- Generator: Adobe Illustrator 18.0.0, SVG Export Plug-In . SVG Version: 6.00 Build 0)  -->
<!DOCTYPE svg PUBLIC "-//W3C//DTD SVG 1.1//EN" "http://www.w3.org/Graphics/SVG/1.1/DTD/svg11.dtd">
<svg version="1.1" id="Camada_1" xmlns="http://www.w3.org/2000/svg" xmlns:xlink="http://www.w3.org/1999/xlink" x="0px" y="0px"
	 viewBox="0 0 152.3 170.3" enable-background="new 0 0 152.3 170.3" xml:space="preserve">
<path fill-rule="evenodd" clip-rule="evenodd" fill="#67B22E" d="M76.7,0.8c24.6,0,44.5,19.9,44.5,44.5s-19.9,44.5-44.5,44.5
	S32.2,69.9,32.2,45.3S52.1,0.8,76.7,0.8z"/>
<polygon fill="#4B8230" points="81.9,88.9 62.9,68.5 63.5,65.1 52.9,51.1 66.3,50 52.2,34.5 50.6,28.1 53.4,21 61.9,27.4 66.2,25.3 
	76,28.4 81.9,25.6 91.3,27.4 93.1,25 107.4,26.7 120.6,40.3 120.1,52.1 119.3,56.9 116.6,64.6 111.2,73.4 101.6,82 91.7,87.2 
	85.1,88.9 "/>
<line fill="none" stroke="#E2E2E1" stroke-miterlimit="10" x1="51.2" y1="68.5" x2="100.7" y2="16.3"/>
<g>
	<path fill="#FFFFFF" d="M55.5,22.4v12.5c0,0.6-0.2,0.8-0.8,0.8h-2.3c-0.6,0-0.9-0.2-0.9-0.8v-8.3l-1.3,0.8c-0.7,0.4-1,0.2-1.3-0.3
		l-0.9-1.7c-0.3-0.6-0.1-0.8,0.4-1.2l3.9-2.2c0.5-0.3,0.7-0.3,1.2-0.3h1.2C55.3,21.5,55.5,21.7,55.5,22.4z"/>
</g>
<g>
	<path fill="#FFFFFF" d="M59.6,48.8v1.6c0,0.6-0.2,0.9-0.8,0.9h-2.5v2.5c0,0.6-0.2,0.8-0.9,0.8h-1.6c-0.6,0-0.9-0.2-0.9-0.8v-2.5
		h-2.5c-0.6,0-0.8-0.2-0.8-0.9v-1.6c0-0.6,0.2-0.9,0.8-0.9H53v-2.5c0-0.6,0.2-0.8,0.9-0.8h1.6c0.6,0,0.9,0.2,0.9,0.8v2.5h2.5
		C59.4,47.9,59.6,48.2,59.6,48.8z"/>
	<path fill="#FFFFFF" d="M66.5,47.1c3.8,0,5.6,1.5,5.6,4.6c0,3-2.2,4.7-5.8,4.7c-3.8,0-5.8-1.9-5.8-5.4v-4c0-3.4,2-5.4,5.8-5.4
		c3,0,4.7,1,5.6,3.2c0.2,0.6,0.1,0.9-0.5,1.1l-1.9,0.7c-0.6,0.2-0.8,0-1.1-0.6c-0.3-0.6-0.9-0.9-2-0.9c-1.3,0-1.9,0.6-1.9,1.9v0.3
		C65,47.2,65.6,47.1,66.5,47.1z M66.3,53.1c1.4,0,1.9-0.5,1.9-1.3c0-0.8-0.5-1.3-1.9-1.3c-0.9,0-1.5,0.1-1.9,0.2v0.8
		C64.5,52.5,65,53.1,66.3,53.1z"/>
</g>
<g>
	<path fill="#FFFFFF" d="M72.2,66.1v1.6c0,0.6-0.2,0.9-0.8,0.9h-2.5V71c0,0.6-0.2,0.8-0.9,0.8h-1.6c-0.6,0-0.9-0.2-0.9-0.8v-2.5H63
		c-0.6,0-0.8-0.2-0.8-0.9v-1.6c0-0.6,0.2-0.9,0.8-0.9h2.5v-2.5c0-0.6,0.2-0.8,0.9-0.8H68c0.6,0,0.9,0.2,0.9,0.8v2.5h2.5
		C72,65.2,72.2,65.4,72.2,66.1z"/>
	<path fill="#FFFFFF" d="M79.9,60v12.5c0,0.6-0.2,0.8-0.8,0.8h-2.3c-0.6,0-0.9-0.2-0.9-0.8v-8.3L74.6,65c-0.7,0.4-1,0.2-1.3-0.3
		l-0.9-1.7c-0.3-0.6-0.1-0.8,0.4-1.2l3.9-2.2c0.5-0.3,0.7-0.3,1.2-0.3H79C79.7,59.2,79.9,59.4,79.9,60z"/>
</g>
<g>
	<path fill="#FFFFFF" d="M65.3,25c1.7,0,2.5,0.7,2.9,1.9c0,0.1,0,0.1-0.1,0.2l-0.2,0.1c-0.1,0-0.2,0-0.2-0.1c-0.3-1.1-1-1.6-2.4-1.6
		c-1.6,0-2.5,0.8-2.5,2.2v2.7c0,1.4,0.9,2.2,2.5,2.2c1.5,0,2.1-0.6,2.4-1.7c0-0.1,0.1-0.1,0.2-0.1l0.2,0.1c0.1,0,0.1,0.1,0.1,0.2
		c-0.4,1.3-1.2,2-2.9,2c-1.9,0-3-1-3-2.7v-2.7C62.4,26,63.4,25,65.3,25z"/>
	<path fill="#FFFFFF" d="M69.5,25.1h0.2c0.1,0,0.1,0,0.1,0.1v7.5c0,0.1,0,0.1-0.1,0.1h-0.2c-0.1,0-0.1,0-0.1-0.1v-7.5
		C69.4,25.2,69.4,25.1,69.5,25.1z"/>
	<path fill="#FFFFFF" d="M78.4,25.3v7.5c0,0.1,0,0.1-0.1,0.1H78c-0.1,0-0.1,0-0.1-0.1v-5c0-0.6,0-1.2,0.1-1.8h0
		c-0.3,0.6-0.5,1.1-0.8,1.6l-2,3.5c0,0.1-0.1,0.1-0.2,0.1h-0.1c-0.1,0-0.1,0-0.2-0.1l-2-3.5c-0.3-0.5-0.5-1-0.8-1.5h0
		c0,0.6,0.1,1.2,0.1,1.8v5c0,0.1,0,0.1-0.1,0.1h-0.2c-0.1,0-0.1,0-0.1-0.1v-7.5c0-0.1,0-0.1,0.1-0.1h0.2c0.1,0,0.2,0,0.2,0.1
		l2.9,5.2l2.9-5.2c0.1-0.1,0.1-0.1,0.2-0.1h0.2C78.4,25.1,78.4,25.2,78.4,25.3z"/>
	<path fill="#FFFFFF" d="M84.7,25.3v0.2c0,0.1,0,0.1-0.1,0.1h-4.1v3.1h3.7c0.1,0,0.1,0,0.1,0.1v0.2c0,0.1,0,0.1-0.1,0.1h-3.7v3.2
		h4.3c0.1,0,0.1,0,0.1,0.1v0.2c0,0.1,0,0.1-0.1,0.1h-4.6c-0.1,0-0.1,0-0.1-0.1v-7.5c0-0.1,0-0.1,0.1-0.1h4.5
		C84.7,25.1,84.7,25.2,84.7,25.3z"/>
	<path fill="#FFFFFF" d="M91.8,25.3v7.5c0,0.1,0,0.1-0.1,0.1h-0.2c-0.1,0-0.1,0-0.2-0.1l-3.9-5.6c-0.4-0.5-0.7-1.1-0.9-1.4h0
		c0,0.4,0.1,1.1,0.1,1.8v5.1c0,0.1,0,0.1-0.1,0.1h-0.2c-0.1,0-0.1,0-0.1-0.1v-7.5c0-0.1,0-0.1,0.1-0.1h0.2c0.1,0,0.1,0,0.2,0.1
		l3.8,5.4c0.4,0.6,0.7,1.2,1,1.6h0c0-0.5-0.1-1.2-0.1-2v-5c0-0.1,0-0.1,0.1-0.1h0.2C91.8,25.1,91.8,25.2,91.8,25.3z"/>
	<path fill="#FFFFFF" d="M98.2,25.3v0.2c0,0.1,0,0.1-0.1,0.1h-2.4v7.2c0,0.1,0,0.1-0.1,0.1h-0.2c-0.1,0-0.1,0-0.1-0.1v-7.2h-2.4
		c-0.1,0-0.1,0-0.1-0.1v-0.2c0-0.1,0-0.1,0.1-0.1H98C98.1,25.1,98.2,25.2,98.2,25.3z"/>
	<path fill="#FFFFFF" d="M101.6,25c1.9,0,2.9,1,2.9,2.7v2.7c0,1.7-1,2.7-2.9,2.7c-1.9,0-3-1-3-2.7v-2.7C98.7,26,99.7,25,101.6,25z
		 M101.6,25.4c-1.6,0-2.5,0.8-2.5,2.2v2.7c0,1.4,0.9,2.2,2.5,2.2c1.6,0,2.4-0.8,2.4-2.2v-2.7C104.1,26.3,103.2,25.4,101.6,25.4z"/>
</g>
<g>
	<path fill="#FFFFFF" d="M85,45.4v7.5c0,0.1,0,0.1-0.1,0.1h-0.2c-0.1,0-0.1,0-0.1-0.1v-5c0-0.6,0-1.2,0.1-1.8h0
		c-0.3,0.6-0.5,1.1-0.8,1.6l-2,3.5c0,0.1-0.1,0.1-0.2,0.1h-0.1c-0.1,0-0.1,0-0.2-0.1l-2-3.5c-0.3-0.5-0.5-1-0.8-1.5h0
		c0,0.6,0.1,1.2,0.1,1.8v5c0,0.1,0,0.1-0.1,0.1h-0.2c-0.1,0-0.1,0-0.1-0.1v-7.5c0-0.1,0-0.1,0.1-0.1h0.2c0.1,0,0.2,0,0.2,0.1
		l2.9,5.2l2.9-5.2c0.1-0.1,0.1-0.1,0.2-0.1h0.2C85,45.2,85,45.3,85,45.4z"/>
	<path fill="#FFFFFF" d="M91.4,45.4v0.2c0,0.1,0,0.1-0.1,0.1h-4.1v3.1h3.7c0.1,0,0.1,0,0.1,0.1v0.2c0,0.1,0,0.1-0.1,0.1h-3.7v3.2
		h4.3c0.1,0,0.1,0,0.1,0.1v0.2c0,0.1,0,0.1-0.1,0.1h-4.6c-0.1,0-0.1,0-0.1-0.1v-7.5c0-0.1,0-0.1,0.1-0.1h4.5
		C91.3,45.2,91.4,45.3,91.4,45.4z"/>
	<path fill="#FFFFFF" d="M92.8,45.2H93c0.1,0,0.1,0,0.1,0.1v7.5c0,0.1,0,0.1-0.1,0.1h-0.2c-0.1,0-0.1,0-0.1-0.1v-7.5
		C92.6,45.3,92.7,45.2,92.8,45.2z"/>
	<path fill="#FFFFFF" d="M100.5,53h-0.2c-0.2,0-0.2,0-0.2-0.1l-1-2.4h-3.7l-1,2.4c0,0.1-0.1,0.1-0.3,0.1h-0.2
		c-0.1,0-0.1-0.1-0.1-0.1l3-7.6c0-0.1,0.1-0.1,0.2-0.1h0.2c0.1,0,0.2,0,0.2,0.1l3,7.6C100.7,53,100.7,53,100.5,53z M97.3,45.7
		L97.3,45.7c0,0.1,0,0.3-0.1,0.5L95.6,50H99l-1.6-3.9C97.3,45.9,97.3,45.7,97.3,45.7z"/>
</g>
<g>
	<path fill="#FFFFFF" d="M87.3,62.8c1.7,0,2.5,0.7,2.9,1.9c0,0.1,0,0.1-0.1,0.2l-0.2,0.1c-0.1,0-0.2,0-0.2-0.1
		c-0.3-1.1-1-1.6-2.4-1.6c-1.6,0-2.5,0.8-2.5,2.2v2.7c0,1.4,0.9,2.2,2.5,2.2c1.5,0,2.1-0.6,2.4-1.7c0-0.1,0.1-0.1,0.2-0.1l0.2,0.1
		c0.1,0,0.1,0.1,0.1,0.2c-0.4,1.3-1.2,2-2.9,2c-1.9,0-3-1-3-2.7v-2.7C84.4,63.8,85.4,62.8,87.3,62.8z"/>
	<path fill="#FFFFFF" d="M97.1,70.7h-0.2c-0.2,0-0.2,0-0.2-0.1l-1-2.4H92l-1,2.4c0,0.1-0.1,0.1-0.3,0.1h-0.2c-0.1,0-0.1-0.1-0.1-0.1
		l3-7.6c0-0.1,0.1-0.1,0.2-0.1h0.2c0.1,0,0.2,0,0.2,0.1l3,7.6C97.2,70.7,97.2,70.7,97.1,70.7z M93.8,63.4L93.8,63.4
		c0,0.1,0,0.3-0.1,0.5l-1.6,3.9h3.4l-1.6-3.9C93.9,63.6,93.8,63.4,93.8,63.4z"/>
	<path fill="#FFFFFF" d="M98.5,63.1v7.2h4c0.1,0,0.1,0,0.1,0.1v0.2c0,0.1,0,0.1-0.1,0.1h-4.4c-0.1,0-0.1,0-0.1-0.1v-7.5
		c0-0.1,0-0.1,0.1-0.1h0.2C98.5,62.9,98.5,63,98.5,63.1z"/>
</g>
<g>
	<path fill="#7DA135" stroke="#7EA135" stroke-width="0.6" stroke-miterlimit="10" d="M54.8,103.2v0.3c0,0.2-0.1,0.2-0.2,0.2h-6.4
		v4.9h5.6c0.2,0,0.2,0.1,0.2,0.2v0.3c0,0.2-0.1,0.2-0.2,0.2h-5.6v5h6.6c0.2,0,0.2,0.1,0.2,0.2v0.3c0,0.2-0.1,0.2-0.2,0.2h-7.2
		c-0.2,0-0.2-0.1-0.2-0.2v-11.6c0-0.2,0.1-0.2,0.2-0.2h6.9C54.7,103,54.8,103,54.8,103.2z"/>
	<path fill="#7DA135" stroke="#7EA135" stroke-width="0.6" stroke-miterlimit="10" d="M57.5,103.2v11.1h6.2c0.2,0,0.2,0.1,0.2,0.2
		v0.3c0,0.2-0.1,0.2-0.2,0.2H57c-0.2,0-0.2-0.1-0.2-0.2v-11.6c0-0.2,0.1-0.2,0.2-0.2h0.4C57.5,103,57.5,103,57.5,103.2z"/>
	<path fill="#7DA135" stroke="#7EA135" stroke-width="0.6" stroke-miterlimit="10" d="M65.4,103h0.4c0.2,0,0.2,0.1,0.2,0.2v11.6
		c0,0.2-0.1,0.2-0.2,0.2h-0.4c-0.2,0-0.2-0.1-0.2-0.2v-11.6C65.2,103,65.3,103,65.4,103z"/>
	<path fill="#7DA135" stroke="#7EA135" stroke-width="0.6" stroke-miterlimit="10" d="M79.2,103.2v11.6c0,0.2-0.1,0.2-0.2,0.2h-0.3
		c-0.2,0-0.2-0.1-0.2-0.2V107c0-0.9,0-1.8,0.1-2.8h0c-0.4,0.9-0.8,1.6-1.3,2.4l-3,5.4c-0.1,0.1-0.1,0.2-0.3,0.2h-0.2
		c-0.2,0-0.2,0-0.3-0.2l-3.1-5.4c-0.4-0.8-0.8-1.5-1.2-2.4h0c0.1,1,0.1,1.9,0.1,2.8v7.8c0,0.2-0.1,0.2-0.2,0.2h-0.3
		c-0.2,0-0.2-0.1-0.2-0.2v-11.6c0-0.2,0.1-0.2,0.2-0.2h0.3c0.2,0,0.2,0.1,0.3,0.2l4.6,8l4.5-8c0.1-0.2,0.1-0.2,0.3-0.2H79
		C79.1,103,79.2,103,79.2,103.2z"/>
	<path fill="#7DA135" stroke="#7EA135" stroke-width="0.6" stroke-miterlimit="10" d="M81.9,103h0.4c0.2,0,0.2,0.1,0.2,0.2v11.6
		c0,0.2-0.1,0.2-0.2,0.2h-0.4c-0.2,0-0.2-0.1-0.2-0.2v-11.6C81.6,103,81.7,103,81.9,103z"/>
	<path fill="#7DA135" stroke="#7EA135" stroke-width="0.6" stroke-miterlimit="10" d="M93.8,103.2v11.6c0,0.2-0.1,0.2-0.2,0.2h-0.4
		c-0.1,0-0.2,0-0.2-0.1l-6-8.6c-0.6-0.8-1-1.7-1.4-2.2h0c0,0.6,0.1,1.7,0.1,2.8v7.9c0,0.2-0.1,0.2-0.2,0.2h-0.3
		c-0.2,0-0.2-0.1-0.2-0.2v-11.6c0-0.2,0.1-0.2,0.2-0.2h0.3c0.1,0,0.2,0.1,0.2,0.1l5.9,8.4c0.6,0.9,1.2,1.9,1.6,2.4h0
		c0-0.7-0.1-1.9-0.1-3.1v-7.7c0-0.2,0.1-0.2,0.2-0.2h0.3C93.7,103,93.8,103,93.8,103.2z"/>
	<path fill="#7DA135" stroke="#7EA135" stroke-width="0.6" stroke-miterlimit="10" d="M105.2,115h-0.3c-0.3,0-0.3,0-0.4-0.2
		l-1.5-3.8h-5.6l-1.5,3.8c-0.1,0.2-0.1,0.2-0.4,0.2h-0.3c-0.2,0-0.2-0.1-0.2-0.2l4.7-11.7c0.1-0.2,0.1-0.2,0.3-0.2h0.3
		c0.2,0,0.2,0.1,0.3,0.2l4.7,11.7C105.4,114.9,105.4,115,105.2,115z M100.2,103.6L100.2,103.6c-0.1,0.1-0.1,0.4-0.2,0.7l-2.4,6h5.2
		l-2.4-6C100.2,104,100.2,103.7,100.2,103.6z"/>
	<path fill="#7DA135" stroke="#7EA135" stroke-width="0.6" stroke-miterlimit="10" d="M24.2,140h-0.3c-0.3,0-0.3,0-0.4-0.2l-1.5-3.8
		h-5.6l-1.5,3.8c-0.1,0.2-0.1,0.2-0.4,0.2h-0.3c-0.2,0-0.2-0.1-0.2-0.2l4.7-11.7c0.1-0.2,0.1-0.2,0.3-0.2h0.3c0.2,0,0.2,0.1,0.3,0.2
		l4.7,11.7C24.4,139.9,24.3,140,24.2,140z M19.2,128.6L19.2,128.6c-0.1,0.1-0.1,0.4-0.2,0.7l-2.4,6h5.2l-2.4-6
		C19.2,129,19.2,128.7,19.2,128.6z"/>
	<path fill="#7DA135" stroke="#7EA135" stroke-width="0.6" stroke-miterlimit="10" d="M37.3,128.2l-4.5,11.7
		c-0.1,0.2-0.1,0.2-0.3,0.2h-0.3c-0.2,0-0.2-0.1-0.3-0.2l-4.5-11.7c-0.1-0.1,0-0.2,0.1-0.2h0.3c0.3,0,0.3,0,0.4,0.2l3.8,9.8
		c0.2,0.4,0.3,0.9,0.4,1.1h0.1c0.1-0.2,0.2-0.7,0.4-1.1l3.8-9.8c0.1-0.2,0.1-0.2,0.4-0.2h0.3C37.3,128,37.3,128,37.3,128.2z"/>
	<path fill="#7DA135" stroke="#7EA135" stroke-width="0.6" stroke-miterlimit="10" d="M46.6,140h-0.3c-0.3,0-0.3,0-0.4-0.2l-1.5-3.8
		h-5.6l-1.5,3.8c-0.1,0.2-0.1,0.2-0.4,0.2h-0.3c-0.2,0-0.2-0.1-0.2-0.2l4.7-11.7c0.1-0.2,0.1-0.2,0.3-0.2h0.3c0.2,0,0.2,0.1,0.3,0.2
		l4.7,11.7C46.8,139.9,46.7,140,46.6,140z M41.6,128.6L41.6,128.6c-0.1,0.1-0.1,0.4-0.2,0.7l-2.4,6h5.2l-2.4-6
		C41.6,129,41.6,128.7,41.6,128.6z"/>
	<path fill="#7DA135" stroke="#7EA135" stroke-width="0.6" stroke-miterlimit="10" d="M56.5,131.4c0,2-1.2,3.1-3,3.3
		c0.6,0.3,1,0.7,1.4,1.4l1.9,3.8c0.1,0.1,0.1,0.2-0.1,0.2h-0.3c-0.3,0-0.4,0-0.4-0.2l-1.8-3.5c-0.6-1.1-1.2-1.6-2.6-1.6h-2.8v5.1
		c0,0.2-0.1,0.2-0.2,0.2h-0.4c-0.2,0-0.2-0.1-0.2-0.2v-11.6c0-0.2,0.1-0.2,0.2-0.2h4.9C55.2,128,56.5,129.2,56.5,131.4z M53,128.7
		h-4.2v5.3H53c1.7,0,2.7-0.9,2.7-2.6C55.7,129.7,54.7,128.7,53,128.7z"/>
	<path fill="#7DA135" stroke="#7EA135" stroke-width="0.6" stroke-miterlimit="10" d="M58.7,128h0.4c0.2,0,0.2,0.1,0.2,0.2v11.6
		c0,0.2-0.1,0.2-0.2,0.2h-0.4c-0.2,0-0.2-0.1-0.2-0.2v-11.6C58.5,128,58.6,128,58.7,128z"/>
	<path fill="#7DA135" stroke="#7EA135" stroke-width="0.6" stroke-miterlimit="10" d="M70.7,140h-0.3c-0.3,0-0.3,0-0.4-0.2l-1.5-3.8
		h-5.6l-1.5,3.8c-0.1,0.2-0.1,0.2-0.4,0.2h-0.3c-0.2,0-0.2-0.1-0.2-0.2l4.7-11.7c0.1-0.2,0.1-0.2,0.3-0.2h0.3c0.2,0,0.2,0.1,0.3,0.2
		l4.7,11.7C70.9,139.9,70.9,140,70.7,140z M65.7,128.6L65.7,128.6c-0.1,0.1-0.1,0.4-0.2,0.7l-2.4,6h5.2l-2.4-6
		C65.8,129,65.7,128.7,65.7,128.6z"/>
	<path fill="#7DA135" stroke="#7EA135" stroke-width="0.6" stroke-miterlimit="10" d="M80.4,131c0,1.4-0.6,2.4-1.8,2.8v0
		c1.4,0.3,2.2,1.3,2.2,3c0,2.1-1.3,3.2-3.4,3.2h-5c-0.2,0-0.2-0.1-0.2-0.2v-11.6c0-0.2,0.1-0.2,0.2-0.2h4.8
		C79.2,128,80.4,129,80.4,131z M77.1,128.7h-4.2v4.8h4.2c1.6,0,2.5-0.8,2.5-2.4C79.6,129.5,78.7,128.7,77.1,128.7z M77.4,134.2h-4.5
		v5.1h4.5c1.7,0,2.6-0.9,2.6-2.5C80,135.1,79.1,134.2,77.4,134.2z"/>
	<path fill="#7DA135" stroke="#7EA135" stroke-width="0.6" stroke-miterlimit="10" d="M82.9,128h0.4c0.2,0,0.2,0.1,0.2,0.2v11.6
		c0,0.2-0.1,0.2-0.2,0.2h-0.4c-0.2,0-0.2-0.1-0.2-0.2v-11.6C82.7,128,82.7,128,82.9,128z"/>
	<path fill="#7DA135" stroke="#7EA135" stroke-width="0.6" stroke-miterlimit="10" d="M86.7,128.2v11.1h6.2c0.2,0,0.2,0.1,0.2,0.2
		v0.3c0,0.2-0.1,0.2-0.2,0.2h-6.7c-0.2,0-0.2-0.1-0.2-0.2v-11.6c0-0.2,0.1-0.2,0.2-0.2h0.4C86.7,128,86.7,128,86.7,128.2z"/>
	<path fill="#7DA135" stroke="#7EA135" stroke-width="0.6" stroke-miterlimit="10" d="M94.6,128H95c0.2,0,0.2,0.1,0.2,0.2v11.6
		c0,0.2-0.1,0.2-0.2,0.2h-0.4c-0.2,0-0.2-0.1-0.2-0.2v-11.6C94.4,128,94.4,128,94.6,128z"/>
	<path fill="#7DA135" stroke="#7EA135" stroke-width="0.6" stroke-miterlimit="10" d="M106.2,132.4v3.1c0,2.8-1.8,4.5-4.9,4.5h-3.5
		c-0.2,0-0.2-0.1-0.2-0.2v-11.6c0-0.2,0.1-0.2,0.2-0.2h3.5C104.5,128,106.2,129.7,106.2,132.4z M101.3,128.7h-2.9v10.6h2.9
		c2.7,0,4.1-1.4,4.1-3.8v-3.1C105.5,130.1,104,128.7,101.3,128.7z"/>
	<path fill="#7DA135" stroke="#7EA135" stroke-width="0.6" stroke-miterlimit="10" d="M116.9,140h-0.3c-0.3,0-0.3,0-0.4-0.2
		l-1.5-3.8h-5.6l-1.5,3.8c-0.1,0.2-0.1,0.2-0.4,0.2h-0.3c-0.2,0-0.2-0.1-0.2-0.2l4.7-11.7c0.1-0.2,0.1-0.2,0.3-0.2h0.3
		c0.2,0,0.2,0.1,0.3,0.2l4.7,11.7C117.2,139.9,117.1,140,116.9,140z M111.9,128.6L111.9,128.6c-0.1,0.1-0.1,0.4-0.2,0.7l-2.4,6h5.2
		l-2.4-6C112,129,112,128.7,111.9,128.6z"/>
	<path fill="#7DA135" stroke="#7EA135" stroke-width="0.6" stroke-miterlimit="10" d="M127,132.4v3.1c0,2.8-1.8,4.5-4.9,4.5h-3.5
		c-0.2,0-0.2-0.1-0.2-0.2v-11.6c0-0.2,0.1-0.2,0.2-0.2h3.5C125.2,128,127,129.7,127,132.4z M122.1,128.7h-2.9v10.6h2.9
		c2.7,0,4.1-1.4,4.1-3.8v-3.1C126.2,130.1,124.7,128.7,122.1,128.7z"/>
	<path fill="#7DA135" stroke="#7EA135" stroke-width="0.6" stroke-miterlimit="10" d="M136.4,128.2v0.3c0,0.2-0.1,0.2-0.2,0.2h-6.4
		v4.9h5.6c0.2,0,0.2,0.1,0.2,0.2v0.3c0,0.2-0.1,0.2-0.2,0.2h-5.6v5h6.6c0.2,0,0.2,0.1,0.2,0.2v0.3c0,0.2-0.1,0.2-0.2,0.2h-7.2
		c-0.2,0-0.2-0.1-0.2-0.2v-11.6c0-0.2,0.1-0.2,0.2-0.2h6.9C136.3,128,136.4,128,136.4,128.2z"/>
	<path fill="#7DA135" stroke="#7EA135" stroke-width="0.6" stroke-miterlimit="10" d="M47.6,157.4v3.1c0,2.8-1.8,4.5-4.9,4.5h-3.5
		c-0.2,0-0.2-0.1-0.2-0.2v-11.6c0-0.2,0.1-0.2,0.2-0.2h3.5C45.8,153,47.6,154.7,47.6,157.4z M42.7,153.7h-2.9v10.6h2.9
		c2.7,0,4.1-1.4,4.1-3.8v-3.1C46.8,155.1,45.3,153.7,42.7,153.7z"/>
	<path fill="#7DA135" stroke="#7EA135" stroke-width="0.6" stroke-miterlimit="10" d="M53.8,152.7c3,0,4.6,1.6,4.6,4.2v4.1
		c0,2.6-1.6,4.2-4.6,4.2c-3,0-4.6-1.6-4.6-4.2v-4.1C49.2,154.3,50.8,152.7,53.8,152.7z M53.8,153.4c-2.5,0-3.8,1.3-3.8,3.5v4.1
		c0,2.2,1.3,3.5,3.8,3.5c2.4,0,3.8-1.3,3.8-3.5v-4.1C57.6,154.7,56.3,153.4,53.8,153.4z"/>
	<path fill="#7DA135" stroke="#7EA135" stroke-width="0.6" stroke-miterlimit="10" d="M71.3,153.2v0.3c0,0.2-0.1,0.2-0.2,0.2h-3.7
		v11.1c0,0.2-0.1,0.2-0.2,0.2h-0.4c-0.2,0-0.2-0.1-0.2-0.2v-11.1h-3.7c-0.2,0-0.2-0.1-0.2-0.2v-0.3c0-0.2,0.1-0.2,0.2-0.2h8.2
		C71.3,153,71.3,153,71.3,153.2z"/>
	<path fill="#7DA135" stroke="#7EA135" stroke-width="0.6" stroke-miterlimit="10" d="M81.1,156.4c0,2-1.2,3.1-3,3.3
		c0.6,0.3,1,0.7,1.4,1.4l1.9,3.8c0.1,0.1,0.1,0.2-0.1,0.2H81c-0.3,0-0.4,0-0.4-0.2l-1.8-3.5c-0.6-1.1-1.2-1.6-2.6-1.6h-2.8v5.1
		c0,0.2-0.1,0.2-0.2,0.2h-0.4c-0.2,0-0.2-0.1-0.2-0.2v-11.6c0-0.2,0.1-0.2,0.2-0.2h4.9C79.8,153,81.1,154.2,81.1,156.4z M77.6,153.7
		h-4.2v5.3h4.2c1.7,0,2.7-0.9,2.7-2.6C80.3,154.7,79.3,153.7,77.6,153.7z"/>
	<path fill="#7DA135" stroke="#7EA135" stroke-width="0.6" stroke-miterlimit="10" d="M92.1,165h-0.3c-0.3,0-0.3,0-0.4-0.2l-1.5-3.8
		h-5.6l-1.5,3.8c-0.1,0.2-0.1,0.2-0.4,0.2h-0.3c-0.2,0-0.2-0.1-0.2-0.2l4.7-11.7c0.1-0.2,0.1-0.2,0.3-0.2h0.3c0.2,0,0.2,0.1,0.3,0.2
		l4.7,11.7C92.3,164.9,92.3,165,92.1,165z M87.1,153.6L87.1,153.6c-0.1,0.1-0.1,0.4-0.2,0.7l-2.4,6h5.2l-2.4-6
		C87.1,154,87.1,153.7,87.1,153.6z"/>
	<path fill="#7DA135" stroke="#7EA135" stroke-width="0.6" stroke-miterlimit="10" d="M102,162.2c-0.6,1.9-1.7,3-4.4,3l-0.4,1.2
		c0.2-0.1,0.4-0.1,0.5-0.1c0.9,0,1.5,0.5,1.5,1.3c0,1.1-0.8,1.6-1.9,1.6c-0.7,0-1.1-0.2-1.4-0.4c-0.1-0.1-0.2-0.1-0.2-0.3l0-0.2
		c0-0.1,0.1-0.1,0.1-0.1c0.3,0.2,0.7,0.4,1.4,0.4c0.8,0,1.3-0.4,1.3-1.1c0-0.6-0.4-0.8-1.2-0.8c-0.2,0-0.4,0-0.6,0.1
		c-0.2,0-0.2-0.1-0.2-0.2l0.5-1.4c-2.7-0.1-4.2-1.7-4.2-4.2v-4.2c0-2.6,1.6-4.2,4.6-4.2c2.6,0,3.9,1,4.5,3c0.1,0.2,0,0.2-0.2,0.3
		l-0.3,0.1c-0.2,0-0.2,0-0.3-0.1c-0.5-1.7-1.5-2.5-3.7-2.5c-2.5,0-3.8,1.3-3.8,3.4v4.2c0,2.1,1.3,3.5,3.8,3.5c2.3,0,3.2-0.9,3.8-2.6
		c0.1-0.2,0.1-0.2,0.3-0.1l0.3,0.1C102,162,102,162.1,102,162.2z"/>
	<path fill="#7DA135" stroke="#7EA135" stroke-width="0.6" stroke-miterlimit="10" d="M107.9,152.7c3,0,4.6,1.6,4.6,4.2v4.1
		c0,2.6-1.6,4.2-4.6,4.2c-3,0-4.6-1.6-4.6-4.2v-4.1C103.3,154.3,104.9,152.7,107.9,152.7z M107.9,153.4c-2.5,0-3.8,1.3-3.8,3.5v4.1
		c0,2.2,1.3,3.5,3.8,3.5c2.4,0,3.8-1.3,3.8-3.5v-4.1C111.7,154.7,110.4,153.4,107.9,153.4z"/>
</g>
</svg>
